G75*
G70*
%OFA0B0*%
%FSLAX24Y24*%
%IPPOS*%
%LPD*%
%AMOC8*
5,1,8,0,0,1.08239X$1,22.5*
%
%ADD10C,0.0000*%
%ADD11R,0.0500X0.0220*%
%ADD12R,0.0220X0.0500*%
%ADD13R,0.0669X0.0276*%
%ADD14R,0.0315X0.0472*%
%ADD15R,0.0217X0.0472*%
%ADD16R,0.0394X0.0709*%
%ADD17OC8,0.0740*%
%ADD18R,0.0472X0.0315*%
%ADD19C,0.0197*%
%ADD20R,0.0433X0.0591*%
%ADD21C,0.0740*%
%ADD22R,0.0276X0.0787*%
%ADD23R,0.0433X0.0748*%
%ADD24C,0.0060*%
%ADD25C,0.0080*%
%ADD26C,0.0240*%
%ADD27C,0.0276*%
D10*
X000373Y000131D02*
X000373Y019127D01*
X001840Y019127D01*
X001903Y019129D01*
X001967Y019134D01*
X002030Y019144D01*
X002092Y019156D01*
X002153Y019173D01*
X002213Y019193D01*
X002273Y019216D01*
X002330Y019243D01*
X002386Y019273D01*
X002440Y019307D01*
X002492Y019343D01*
X002542Y019382D01*
X002589Y019425D01*
X002634Y019470D01*
X002677Y019517D01*
X002716Y019567D01*
X002752Y019619D01*
X002786Y019673D01*
X002816Y019729D01*
X002843Y019786D01*
X002866Y019846D01*
X002886Y019906D01*
X002903Y019967D01*
X002915Y020029D01*
X002925Y020092D01*
X002930Y020156D01*
X002932Y020219D01*
X002932Y021588D01*
X011987Y021588D01*
X011987Y002690D01*
X010554Y002690D01*
X010489Y002688D01*
X010423Y002682D01*
X010358Y002673D01*
X010294Y002660D01*
X010231Y002643D01*
X010169Y002622D01*
X010108Y002598D01*
X010049Y002570D01*
X009991Y002539D01*
X009935Y002505D01*
X009882Y002467D01*
X009830Y002427D01*
X009781Y002383D01*
X009735Y002337D01*
X009691Y002288D01*
X009651Y002236D01*
X009613Y002183D01*
X009579Y002127D01*
X009548Y002069D01*
X009520Y002010D01*
X009496Y001949D01*
X009475Y001887D01*
X009458Y001824D01*
X009445Y001760D01*
X009436Y001695D01*
X009430Y001629D01*
X009428Y001564D01*
X009428Y000131D01*
X000373Y000131D01*
X008298Y001706D02*
X008300Y001740D01*
X008306Y001774D01*
X008316Y001807D01*
X008329Y001838D01*
X008347Y001868D01*
X008367Y001896D01*
X008391Y001921D01*
X008417Y001943D01*
X008445Y001961D01*
X008476Y001977D01*
X008508Y001989D01*
X008542Y001997D01*
X008576Y002001D01*
X008610Y002001D01*
X008644Y001997D01*
X008678Y001989D01*
X008710Y001977D01*
X008740Y001961D01*
X008769Y001943D01*
X008795Y001921D01*
X008819Y001896D01*
X008839Y001868D01*
X008857Y001838D01*
X008870Y001807D01*
X008880Y001774D01*
X008886Y001740D01*
X008888Y001706D01*
X008886Y001672D01*
X008880Y001638D01*
X008870Y001605D01*
X008857Y001574D01*
X008839Y001544D01*
X008819Y001516D01*
X008795Y001491D01*
X008769Y001469D01*
X008741Y001451D01*
X008710Y001435D01*
X008678Y001423D01*
X008644Y001415D01*
X008610Y001411D01*
X008576Y001411D01*
X008542Y001415D01*
X008508Y001423D01*
X008476Y001435D01*
X008445Y001451D01*
X008417Y001469D01*
X008391Y001491D01*
X008367Y001516D01*
X008347Y001544D01*
X008329Y001574D01*
X008316Y001605D01*
X008306Y001638D01*
X008300Y001672D01*
X008298Y001706D01*
X009428Y000131D02*
X011987Y000131D01*
X011987Y002690D01*
X000905Y017572D02*
X000907Y017606D01*
X000913Y017640D01*
X000923Y017673D01*
X000936Y017704D01*
X000954Y017734D01*
X000974Y017762D01*
X000998Y017787D01*
X001024Y017809D01*
X001052Y017827D01*
X001083Y017843D01*
X001115Y017855D01*
X001149Y017863D01*
X001183Y017867D01*
X001217Y017867D01*
X001251Y017863D01*
X001285Y017855D01*
X001317Y017843D01*
X001347Y017827D01*
X001376Y017809D01*
X001402Y017787D01*
X001426Y017762D01*
X001446Y017734D01*
X001464Y017704D01*
X001477Y017673D01*
X001487Y017640D01*
X001493Y017606D01*
X001495Y017572D01*
X001493Y017538D01*
X001487Y017504D01*
X001477Y017471D01*
X001464Y017440D01*
X001446Y017410D01*
X001426Y017382D01*
X001402Y017357D01*
X001376Y017335D01*
X001348Y017317D01*
X001317Y017301D01*
X001285Y017289D01*
X001251Y017281D01*
X001217Y017277D01*
X001183Y017277D01*
X001149Y017281D01*
X001115Y017289D01*
X001083Y017301D01*
X001052Y017317D01*
X001024Y017335D01*
X000998Y017357D01*
X000974Y017382D01*
X000954Y017410D01*
X000936Y017440D01*
X000923Y017471D01*
X000913Y017504D01*
X000907Y017538D01*
X000905Y017572D01*
X000373Y019127D02*
X000373Y021588D01*
X002932Y021588D01*
D11*
X006688Y013901D03*
X006688Y013586D03*
X006688Y013271D03*
X006688Y012956D03*
X006688Y012641D03*
X006688Y012326D03*
X006688Y012011D03*
X006688Y011696D03*
X010068Y011696D03*
X010068Y012011D03*
X010068Y012326D03*
X010068Y012641D03*
X010068Y012956D03*
X010068Y013271D03*
X010068Y013586D03*
X010068Y013901D03*
D12*
X009480Y014489D03*
X009165Y014489D03*
X008850Y014489D03*
X008536Y014489D03*
X008221Y014489D03*
X007906Y014489D03*
X007591Y014489D03*
X007276Y014489D03*
X007276Y011109D03*
X007591Y011109D03*
X007906Y011109D03*
X008221Y011109D03*
X008536Y011109D03*
X008850Y011109D03*
X009165Y011109D03*
X009480Y011109D03*
D13*
X005786Y011264D03*
X005786Y010792D03*
X005786Y010320D03*
D14*
X007578Y010096D03*
X008286Y010096D03*
X010767Y011942D03*
X010767Y012670D03*
X011475Y012670D03*
X011475Y011942D03*
X008877Y016470D03*
X009211Y017257D03*
X008503Y017257D03*
X008168Y016470D03*
X005452Y017218D03*
X004743Y017218D03*
X003759Y017218D03*
X003050Y017218D03*
X002975Y018438D03*
X002267Y018438D03*
X003050Y014560D03*
X003759Y014560D03*
X004743Y014560D03*
X005452Y014560D03*
D15*
X005471Y015367D03*
X004723Y015367D03*
X004723Y016391D03*
X005097Y016391D03*
X005471Y016391D03*
X003778Y016391D03*
X003030Y016391D03*
X003030Y015367D03*
X003404Y015367D03*
X003778Y015367D03*
D16*
X002233Y014580D03*
X001131Y014580D03*
D17*
X009393Y008694D03*
X009393Y007694D03*
X009393Y006694D03*
X010393Y006694D03*
X010393Y007694D03*
X010393Y008694D03*
D18*
X009082Y004229D03*
X009082Y003521D03*
X008219Y003509D03*
X008219Y004218D03*
D19*
X009527Y018222D02*
X009527Y018812D01*
X010117Y018812D01*
X010117Y018222D01*
X009527Y018222D01*
X009527Y018418D02*
X010117Y018418D01*
X010117Y018614D02*
X009527Y018614D01*
X009527Y018810D02*
X010117Y018810D01*
X004605Y018812D02*
X004605Y018222D01*
X004015Y018222D01*
X004015Y018812D01*
X004605Y018812D01*
X004605Y018418D02*
X004015Y018418D01*
X004015Y018614D02*
X004605Y018614D01*
X004605Y018810D02*
X004015Y018810D01*
D20*
X001495Y018458D03*
X000904Y018458D03*
X000904Y016686D03*
X001495Y016686D03*
X008298Y002592D03*
X008889Y002592D03*
X008889Y000820D03*
X008298Y000820D03*
D21*
X006294Y020509D03*
X005294Y020509D03*
X004294Y020509D03*
D22*
X008987Y019726D03*
X009578Y019726D03*
X010168Y019726D03*
X010759Y019726D03*
D23*
X011526Y021044D03*
X008219Y021044D03*
D24*
X008189Y021031D02*
X003062Y021031D01*
X003062Y020972D02*
X007873Y020972D01*
X007873Y021014D02*
X007873Y020653D01*
X007882Y020620D01*
X007899Y020591D01*
X007923Y020566D01*
X007953Y020549D01*
X007986Y020540D01*
X008189Y020540D01*
X008189Y021014D01*
X008249Y021014D01*
X008249Y020540D01*
X008453Y020540D01*
X008486Y020549D01*
X008516Y020566D01*
X008540Y020591D01*
X008557Y020620D01*
X008566Y020653D01*
X008566Y021014D01*
X008249Y021014D01*
X008249Y021074D01*
X008566Y021074D01*
X008566Y021436D01*
X008560Y021458D01*
X011186Y021458D01*
X011180Y021436D01*
X011180Y021074D01*
X011496Y021074D01*
X011496Y021014D01*
X011180Y021014D01*
X011180Y020653D01*
X011189Y020620D01*
X011206Y020591D01*
X011230Y020566D01*
X011260Y020549D01*
X011293Y020540D01*
X011496Y020540D01*
X011496Y021014D01*
X011556Y021014D01*
X011556Y020540D01*
X011760Y020540D01*
X011793Y020549D01*
X011823Y020566D01*
X011847Y020591D01*
X011857Y020608D01*
X011857Y002820D01*
X010500Y002820D01*
X010355Y002820D01*
X009977Y002697D01*
X009977Y002697D01*
X009655Y002463D01*
X009421Y002141D01*
X009298Y001763D01*
X009298Y001618D01*
X009298Y001566D01*
X009298Y001564D01*
X009298Y001510D01*
X009298Y000261D01*
X000503Y000261D01*
X000503Y018997D01*
X001786Y018997D01*
X001818Y018997D01*
X001894Y018997D01*
X001894Y018997D01*
X002034Y018997D01*
X002402Y019117D01*
X002715Y019344D01*
X002942Y019657D01*
X002942Y019657D01*
X003062Y020025D01*
X003062Y020026D01*
X003062Y020165D01*
X003062Y021458D01*
X007879Y021458D01*
X007873Y021436D01*
X007873Y021074D01*
X008189Y021074D01*
X008189Y021014D01*
X007873Y021014D01*
X007873Y021090D02*
X003062Y021090D01*
X003062Y021148D02*
X007873Y021148D01*
X007873Y021207D02*
X003062Y021207D01*
X003062Y021265D02*
X007873Y021265D01*
X007873Y021324D02*
X003062Y021324D01*
X003062Y021382D02*
X007873Y021382D01*
X007874Y021441D02*
X003062Y021441D01*
X003062Y020914D02*
X004070Y020914D01*
X004034Y020899D02*
X003904Y020770D01*
X003834Y020600D01*
X003834Y020417D01*
X003904Y020248D01*
X004034Y020119D01*
X004203Y020049D01*
X004386Y020049D01*
X004555Y020119D01*
X004684Y020248D01*
X004754Y020417D01*
X004754Y020600D01*
X004684Y020770D01*
X004555Y020899D01*
X004386Y020969D01*
X004203Y020969D01*
X004034Y020899D01*
X003990Y020855D02*
X003062Y020855D01*
X003062Y020797D02*
X003931Y020797D01*
X003891Y020738D02*
X003062Y020738D01*
X003062Y020680D02*
X003867Y020680D01*
X003843Y020621D02*
X003062Y020621D01*
X003062Y020563D02*
X003834Y020563D01*
X003834Y020504D02*
X003062Y020504D01*
X003062Y020446D02*
X003834Y020446D01*
X003847Y020387D02*
X003062Y020387D01*
X003062Y020328D02*
X003871Y020328D01*
X003895Y020270D02*
X003062Y020270D01*
X003062Y020211D02*
X003941Y020211D01*
X004000Y020153D02*
X003062Y020153D01*
X003062Y020165D02*
X003062Y020165D01*
X003062Y020094D02*
X004093Y020094D01*
X004347Y019860D02*
X003008Y019860D01*
X002989Y019802D02*
X004288Y019802D01*
X004294Y019808D02*
X004161Y019674D01*
X004161Y019001D01*
X003937Y019001D01*
X003826Y018890D01*
X003826Y018568D01*
X003223Y018568D01*
X003223Y018712D01*
X003170Y018764D01*
X002781Y018764D01*
X002728Y018712D01*
X002728Y018165D01*
X002781Y018112D01*
X002920Y018112D01*
X002920Y017544D01*
X002855Y017544D01*
X002803Y017491D01*
X002803Y016944D01*
X002855Y016891D01*
X002900Y016891D01*
X002900Y016717D01*
X002885Y016717D01*
X002832Y016664D01*
X002832Y016117D01*
X002885Y016065D01*
X003176Y016065D01*
X003229Y016117D01*
X003229Y016664D01*
X003176Y016717D01*
X003160Y016717D01*
X003160Y016891D01*
X003245Y016891D01*
X003298Y016944D01*
X003298Y017491D01*
X003245Y017544D01*
X003180Y017544D01*
X003180Y018122D01*
X003223Y018165D01*
X003223Y018308D01*
X003826Y018308D01*
X003826Y018144D01*
X003937Y018033D01*
X004683Y018033D01*
X004794Y018144D01*
X004794Y018890D01*
X004683Y019001D01*
X004617Y019001D01*
X004617Y019485D01*
X005187Y020056D01*
X005203Y020049D01*
X005386Y020049D01*
X005555Y020119D01*
X005684Y020248D01*
X005754Y020417D01*
X005754Y020600D01*
X005684Y020770D01*
X005555Y020899D01*
X005386Y020969D01*
X005203Y020969D01*
X005034Y020899D01*
X004904Y020770D01*
X004834Y020600D01*
X004834Y020417D01*
X004855Y020368D01*
X004294Y019808D01*
X004229Y019743D02*
X002970Y019743D01*
X002951Y019684D02*
X004171Y019684D01*
X004161Y019626D02*
X002919Y019626D01*
X002877Y019567D02*
X004161Y019567D01*
X004161Y019509D02*
X002834Y019509D01*
X002792Y019450D02*
X004161Y019450D01*
X004161Y019392D02*
X002749Y019392D01*
X002715Y019344D02*
X002715Y019344D01*
X002715Y019344D01*
X002700Y019333D02*
X004161Y019333D01*
X004161Y019275D02*
X002619Y019275D01*
X002538Y019216D02*
X004161Y019216D01*
X004161Y019158D02*
X002458Y019158D01*
X002402Y019117D02*
X002402Y019117D01*
X002347Y019099D02*
X004161Y019099D01*
X004161Y019041D02*
X002167Y019041D01*
X002034Y018997D02*
X002034Y018997D01*
X002072Y018764D02*
X002019Y018712D01*
X002019Y018568D01*
X001801Y018568D01*
X001801Y018790D01*
X001749Y018843D01*
X001241Y018843D01*
X001200Y018802D01*
X001158Y018843D01*
X000651Y018843D01*
X000598Y018790D01*
X000598Y018125D01*
X000651Y018073D01*
X001158Y018073D01*
X001200Y018114D01*
X001241Y018073D01*
X001749Y018073D01*
X001801Y018125D01*
X001801Y018308D01*
X002019Y018308D01*
X002019Y018165D01*
X002072Y018112D01*
X002461Y018112D01*
X002514Y018165D01*
X002514Y018712D01*
X002461Y018764D01*
X002072Y018764D01*
X002055Y018748D02*
X001801Y018748D01*
X001801Y018689D02*
X002019Y018689D01*
X002019Y018631D02*
X001801Y018631D01*
X001801Y018572D02*
X002019Y018572D01*
X002019Y018279D02*
X001801Y018279D01*
X001801Y018221D02*
X002019Y018221D01*
X002021Y018162D02*
X001801Y018162D01*
X001780Y018104D02*
X002920Y018104D01*
X002920Y018045D02*
X000503Y018045D01*
X000503Y017987D02*
X001090Y017987D01*
X001115Y017997D02*
X000959Y017932D01*
X000839Y017813D01*
X000774Y017657D01*
X000774Y017487D01*
X000839Y017331D01*
X000959Y017211D01*
X001115Y017147D01*
X001284Y017147D01*
X001441Y017211D01*
X001560Y017331D01*
X001625Y017487D01*
X001625Y017657D01*
X001560Y017813D01*
X001441Y017932D01*
X001284Y017997D01*
X001115Y017997D01*
X001189Y018104D02*
X001210Y018104D01*
X001310Y017987D02*
X002920Y017987D01*
X002920Y017928D02*
X001445Y017928D01*
X001503Y017870D02*
X002920Y017870D01*
X002920Y017811D02*
X001561Y017811D01*
X001585Y017753D02*
X002920Y017753D01*
X002920Y017694D02*
X001609Y017694D01*
X001625Y017635D02*
X002920Y017635D01*
X002920Y017577D02*
X001625Y017577D01*
X001625Y017518D02*
X002830Y017518D01*
X002803Y017460D02*
X001614Y017460D01*
X001589Y017401D02*
X002803Y017401D01*
X002803Y017343D02*
X001565Y017343D01*
X001513Y017284D02*
X002803Y017284D01*
X002803Y017226D02*
X001455Y017226D01*
X001334Y017167D02*
X002803Y017167D01*
X002803Y017109D02*
X000503Y017109D01*
X000503Y017167D02*
X001066Y017167D01*
X001158Y017071D02*
X000651Y017071D01*
X000598Y017019D01*
X000598Y016354D01*
X000651Y016301D01*
X001158Y016301D01*
X001200Y016342D01*
X001241Y016301D01*
X001696Y016301D01*
X002209Y015788D01*
X002316Y015788D01*
X003547Y015788D01*
X003629Y015707D01*
X003629Y015689D01*
X003619Y015679D01*
X003617Y015683D01*
X003592Y015707D01*
X003563Y015725D01*
X003530Y015733D01*
X003429Y015733D01*
X003429Y015392D01*
X003380Y015392D01*
X003380Y015733D01*
X003279Y015733D01*
X003246Y015725D01*
X003216Y015707D01*
X003192Y015683D01*
X003190Y015679D01*
X003176Y015693D01*
X002885Y015693D01*
X002832Y015641D01*
X002832Y015094D01*
X002853Y015073D01*
X002840Y015061D01*
X002840Y014887D01*
X002848Y014879D01*
X002803Y014834D01*
X002803Y014631D01*
X002520Y014631D01*
X002520Y014971D01*
X002467Y015024D01*
X001999Y015024D01*
X001946Y014971D01*
X001946Y014188D01*
X001999Y014136D01*
X002467Y014136D01*
X002520Y014188D01*
X002520Y014371D01*
X002803Y014371D01*
X002803Y014287D01*
X002855Y014234D01*
X003245Y014234D01*
X003298Y014287D01*
X003298Y014834D01*
X003252Y014879D01*
X003260Y014887D01*
X003260Y015006D01*
X003279Y015001D01*
X003380Y015001D01*
X003429Y015001D01*
X003530Y015001D01*
X005322Y015001D01*
X005322Y015045D02*
X005322Y014886D01*
X005257Y014886D01*
X005204Y014834D01*
X005204Y014287D01*
X005257Y014234D01*
X005361Y014234D01*
X005361Y012271D01*
X005361Y012232D01*
X002171Y009042D01*
X002058Y009042D01*
X001935Y008919D01*
X001935Y008745D01*
X002058Y008622D01*
X002232Y008622D01*
X002355Y008745D01*
X002355Y008858D01*
X005565Y012068D01*
X005641Y012144D01*
X005702Y012206D01*
X006348Y012206D01*
X006348Y012179D01*
X006358Y012169D01*
X006348Y012159D01*
X006348Y012151D01*
X006264Y012151D01*
X005752Y011639D01*
X005676Y011563D01*
X005676Y011492D01*
X005414Y011492D01*
X005362Y011440D01*
X005362Y011089D01*
X005401Y011050D01*
X005372Y011034D01*
X005348Y011010D01*
X005331Y010980D01*
X005322Y010947D01*
X005322Y010822D01*
X005756Y010822D01*
X005756Y010762D01*
X005322Y010762D01*
X005322Y010637D01*
X005331Y010604D01*
X005348Y010574D01*
X005372Y010550D01*
X005401Y010534D01*
X005362Y010495D01*
X005362Y010145D01*
X005414Y010092D01*
X006158Y010092D01*
X006211Y010145D01*
X006211Y010198D01*
X006214Y010198D01*
X006290Y010274D01*
X006802Y010786D01*
X007111Y010786D01*
X007128Y010769D02*
X007423Y010769D01*
X007433Y010779D01*
X007443Y010769D01*
X007448Y010769D01*
X007448Y010422D01*
X007383Y010422D01*
X007330Y010369D01*
X007330Y009822D01*
X007383Y009769D01*
X007772Y009769D01*
X007776Y009773D01*
X007776Y004164D01*
X007852Y004088D01*
X007893Y004088D01*
X007893Y004023D01*
X007946Y003970D01*
X008493Y003970D01*
X008546Y004023D01*
X008546Y004412D01*
X008493Y004465D01*
X008036Y004465D01*
X008036Y010769D01*
X008053Y010769D01*
X008063Y010779D01*
X008073Y010769D01*
X008368Y010769D01*
X008378Y010779D01*
X008388Y010769D01*
X008683Y010769D01*
X008693Y010779D01*
X008703Y010769D01*
X008998Y010769D01*
X009008Y010779D01*
X009018Y010769D01*
X009022Y010769D01*
X009022Y009358D01*
X008744Y009080D01*
X008668Y009004D01*
X008668Y008413D01*
X008668Y008306D01*
X009011Y007963D01*
X008933Y007885D01*
X008933Y007503D01*
X009202Y007234D01*
X009583Y007234D01*
X009853Y007503D01*
X009853Y007885D01*
X009583Y008154D01*
X009202Y008154D01*
X009195Y008147D01*
X008928Y008413D01*
X008928Y008896D01*
X009282Y009250D01*
X009282Y009358D01*
X009282Y010769D01*
X009313Y010769D01*
X009323Y010779D01*
X009333Y010769D01*
X009377Y010769D01*
X009377Y009673D01*
X009377Y009565D01*
X009995Y008947D01*
X009933Y008885D01*
X009933Y008503D01*
X009852Y008503D01*
X009853Y008503D02*
X009583Y008234D01*
X009202Y008234D01*
X008933Y008503D01*
X008928Y008503D01*
X008933Y008503D02*
X008933Y008885D01*
X009202Y009154D01*
X009583Y009154D01*
X009853Y008885D01*
X009853Y008503D01*
X009853Y008561D02*
X009933Y008561D01*
X009933Y008503D02*
X010202Y008234D01*
X010583Y008234D01*
X010853Y008503D01*
X010853Y008885D01*
X010583Y009154D01*
X010202Y009154D01*
X010179Y009131D01*
X009637Y009673D01*
X009637Y010778D01*
X009680Y010821D01*
X009680Y011396D01*
X009628Y011449D01*
X009333Y011449D01*
X009323Y011438D01*
X009313Y011449D01*
X009018Y011449D01*
X009008Y011438D01*
X008998Y011449D01*
X008703Y011449D01*
X008693Y011438D01*
X008683Y011449D01*
X008388Y011449D01*
X008378Y011438D01*
X008368Y011449D01*
X008073Y011449D01*
X008063Y011438D01*
X008053Y011449D01*
X007758Y011449D01*
X007748Y011438D01*
X007738Y011449D01*
X007443Y011449D01*
X007433Y011438D01*
X007423Y011449D01*
X007128Y011449D01*
X007076Y011396D01*
X007076Y010821D01*
X007128Y010769D01*
X007076Y010844D02*
X006802Y010844D01*
X006802Y010894D02*
X006802Y011496D01*
X006975Y011496D01*
X007028Y011549D01*
X007028Y011844D01*
X007018Y011854D01*
X007028Y011864D01*
X007028Y012032D01*
X007054Y012006D01*
X007130Y011930D01*
X007253Y011930D01*
X007333Y011850D01*
X007507Y011850D01*
X007587Y011930D01*
X007917Y011930D01*
X008025Y011930D01*
X008985Y011930D01*
X008987Y011929D01*
X009060Y011929D01*
X009099Y011891D01*
X009728Y011891D01*
X009728Y011864D01*
X009738Y011854D01*
X009728Y011844D01*
X009728Y011549D01*
X009781Y011496D01*
X009967Y011496D01*
X009967Y009909D01*
X009967Y009802D01*
X010873Y008896D01*
X010873Y008374D01*
X010618Y008119D01*
X010583Y008154D01*
X010202Y008154D01*
X009933Y007885D01*
X009933Y007503D01*
X010202Y007234D01*
X010583Y007234D01*
X010614Y007265D01*
X010873Y007006D01*
X010873Y006523D01*
X008983Y004634D01*
X008983Y004526D01*
X008983Y004477D01*
X008808Y004477D01*
X008755Y004424D01*
X008755Y004035D01*
X008808Y003982D01*
X009355Y003982D01*
X009408Y004035D01*
X009408Y004424D01*
X009355Y004477D01*
X009243Y004477D01*
X009243Y004526D01*
X011057Y006340D01*
X011133Y006416D01*
X011133Y007006D01*
X011133Y007114D01*
X010798Y007449D01*
X011857Y007449D01*
X011857Y007507D02*
X010853Y007507D01*
X010853Y007503D02*
X010853Y007885D01*
X010802Y007935D01*
X011057Y008190D01*
X011133Y008266D01*
X011133Y009004D01*
X011057Y009080D01*
X010227Y009909D01*
X010227Y011496D01*
X010355Y011496D01*
X010408Y011549D01*
X010408Y011812D01*
X010519Y011812D01*
X010519Y011669D01*
X010572Y011616D01*
X010961Y011616D01*
X011014Y011669D01*
X011014Y012216D01*
X010961Y012268D01*
X010572Y012268D01*
X010519Y012216D01*
X010519Y012072D01*
X010408Y012072D01*
X010408Y012159D01*
X010398Y012169D01*
X010408Y012179D01*
X010408Y012474D01*
X010398Y012484D01*
X010519Y012484D01*
X010519Y012521D02*
X010519Y012397D01*
X010572Y012344D01*
X010961Y012344D01*
X011014Y012397D01*
X011014Y012944D01*
X010961Y012997D01*
X010572Y012997D01*
X010519Y012944D01*
X010519Y012781D01*
X010430Y012781D01*
X010439Y012796D01*
X010448Y012829D01*
X010448Y012931D01*
X010093Y012931D01*
X010093Y012981D01*
X010448Y012981D01*
X010448Y013083D01*
X010439Y013116D01*
X010422Y013146D01*
X010408Y013160D01*
X010408Y013418D01*
X010398Y013429D01*
X010408Y013439D01*
X010408Y013733D01*
X010398Y013744D01*
X010408Y013754D01*
X010408Y014048D01*
X010355Y014101D01*
X009781Y014101D01*
X009728Y014048D01*
X009728Y013754D01*
X009738Y013744D01*
X009728Y013733D01*
X009728Y013439D01*
X009738Y013429D01*
X009728Y013418D01*
X009728Y013160D01*
X009714Y013146D01*
X009697Y013116D01*
X009688Y013083D01*
X009688Y012981D01*
X010043Y012981D01*
X010043Y012931D01*
X009688Y012931D01*
X009688Y012829D01*
X009697Y012796D01*
X009714Y012766D01*
X009728Y012752D01*
X009728Y012494D01*
X009738Y012484D01*
X009728Y012474D01*
X009728Y012179D01*
X009738Y012169D01*
X009728Y012159D01*
X009728Y012151D01*
X009284Y012151D01*
X009284Y012226D01*
X009161Y012349D01*
X008987Y012349D01*
X008864Y012226D01*
X008864Y012190D01*
X008065Y012190D01*
X008025Y012229D01*
X007198Y013056D01*
X007091Y013056D01*
X007028Y013056D01*
X007028Y013067D01*
X007042Y013081D01*
X007059Y013111D01*
X007068Y013144D01*
X007068Y013246D01*
X006713Y013246D01*
X006713Y013296D01*
X007068Y013296D01*
X007068Y013398D01*
X007059Y013431D01*
X007042Y013461D01*
X007028Y013475D01*
X007028Y013733D01*
X007018Y013744D01*
X007028Y013754D01*
X007028Y014048D01*
X006975Y014101D01*
X006401Y014101D01*
X006348Y014048D01*
X006348Y013754D01*
X006358Y013744D01*
X006348Y013733D01*
X006348Y013475D01*
X006334Y013461D01*
X006317Y013431D01*
X006308Y013398D01*
X006308Y013296D01*
X006663Y013296D01*
X006663Y013246D01*
X006308Y013246D01*
X006308Y013144D01*
X006317Y013111D01*
X006334Y013081D01*
X006348Y013067D01*
X006348Y012845D01*
X006334Y012831D01*
X006317Y012801D01*
X006308Y012768D01*
X006308Y012666D01*
X006663Y012666D01*
X006663Y012616D01*
X006308Y012616D01*
X006308Y012514D01*
X006317Y012481D01*
X006326Y012466D01*
X005621Y012466D01*
X005621Y014234D01*
X005646Y014234D01*
X005699Y014287D01*
X005699Y014834D01*
X005646Y014886D01*
X005582Y014886D01*
X005582Y015041D01*
X005617Y015041D01*
X005670Y015094D01*
X005670Y015244D01*
X006765Y016340D01*
X007921Y016340D01*
X007921Y016196D01*
X007973Y016143D01*
X007978Y016143D01*
X007958Y016124D01*
X007958Y016010D01*
X007487Y015539D01*
X007487Y015431D01*
X007487Y014829D01*
X007443Y014829D01*
X007433Y014818D01*
X007423Y014829D01*
X007128Y014829D01*
X007076Y014776D01*
X007076Y014201D01*
X007128Y014149D01*
X007423Y014149D01*
X007433Y014159D01*
X007443Y014149D01*
X007487Y014149D01*
X007487Y013768D01*
X007407Y013687D01*
X007294Y013687D01*
X007171Y013564D01*
X007171Y013390D01*
X007294Y013267D01*
X007468Y013267D01*
X007591Y013390D01*
X007591Y013504D01*
X007723Y013636D01*
X007723Y013448D01*
X007683Y013407D01*
X007683Y013233D01*
X007806Y013110D01*
X007980Y013110D01*
X008103Y013233D01*
X008103Y013404D01*
X008121Y013386D01*
X008295Y013386D01*
X008418Y013509D01*
X008418Y013683D01*
X008338Y013763D01*
X008338Y014149D01*
X008368Y014149D01*
X008378Y014159D01*
X008388Y014149D01*
X008683Y014149D01*
X008693Y014159D01*
X008703Y014149D01*
X008998Y014149D01*
X009008Y014159D01*
X009018Y014149D01*
X009313Y014149D01*
X009323Y014159D01*
X009333Y014149D01*
X009628Y014149D01*
X009680Y014201D01*
X009680Y014776D01*
X009628Y014829D01*
X009333Y014829D01*
X009323Y014818D01*
X009313Y014829D01*
X009018Y014829D01*
X009008Y014818D01*
X009007Y014820D01*
X009007Y014920D01*
X009324Y015237D01*
X009401Y015313D01*
X009401Y016931D01*
X009406Y016931D01*
X009459Y016984D01*
X009459Y017127D01*
X009718Y017127D01*
X009794Y017203D01*
X010781Y018190D01*
X010857Y018266D01*
X010857Y019242D01*
X010934Y019242D01*
X010986Y019295D01*
X010986Y020156D01*
X010934Y020209D01*
X010584Y020209D01*
X010531Y020156D01*
X010531Y019295D01*
X010584Y019242D01*
X010597Y019242D01*
X010597Y018374D01*
X009610Y017387D01*
X009459Y017387D01*
X009459Y017530D01*
X009406Y017583D01*
X009017Y017583D01*
X009007Y017573D01*
X009007Y019242D01*
X009162Y019242D01*
X009215Y019295D01*
X009215Y020156D01*
X009162Y020209D01*
X008812Y020209D01*
X008759Y020156D01*
X008759Y019681D01*
X008747Y019669D01*
X008747Y017534D01*
X008698Y017583D01*
X008308Y017583D01*
X008255Y017530D01*
X008255Y016984D01*
X008308Y016931D01*
X008393Y016931D01*
X008393Y016878D01*
X008311Y016796D01*
X007973Y016796D01*
X007921Y016743D01*
X007921Y016600D01*
X006658Y016600D01*
X006581Y016523D01*
X005670Y016523D01*
X005670Y016465D02*
X006523Y016465D01*
X006581Y016523D02*
X005670Y015611D01*
X005670Y015641D01*
X005617Y015693D01*
X005326Y015693D01*
X005273Y015641D01*
X005273Y015094D01*
X005322Y015045D01*
X005307Y015060D02*
X004887Y015060D01*
X004869Y015041D02*
X004922Y015094D01*
X004922Y015641D01*
X004869Y015693D01*
X004578Y015693D01*
X004525Y015641D01*
X004525Y015094D01*
X004578Y015041D01*
X004869Y015041D01*
X004922Y015118D02*
X005273Y015118D01*
X005273Y015177D02*
X004922Y015177D01*
X004922Y015235D02*
X005273Y015235D01*
X005273Y015294D02*
X004922Y015294D01*
X004922Y015352D02*
X005273Y015352D01*
X005273Y015411D02*
X004922Y015411D01*
X004922Y015469D02*
X005273Y015469D01*
X005273Y015528D02*
X004922Y015528D01*
X004922Y015586D02*
X005273Y015586D01*
X005277Y015645D02*
X004917Y015645D01*
X004650Y015867D02*
X005398Y015867D01*
X005505Y015867D01*
X005525Y015887D01*
X005601Y015963D01*
X005601Y016065D01*
X005617Y016065D01*
X005670Y016117D01*
X005670Y016664D01*
X005617Y016717D01*
X005582Y016717D01*
X005582Y016891D01*
X005646Y016891D01*
X005699Y016944D01*
X005699Y017239D01*
X005737Y017353D01*
X005722Y017383D01*
X006348Y018009D01*
X006424Y018085D01*
X006424Y020061D01*
X006609Y020061D01*
X008467Y020061D01*
X008656Y020061D01*
X008853Y020257D01*
X009806Y020257D01*
X009940Y020123D01*
X009940Y019631D01*
X009940Y019631D01*
X009940Y019295D01*
X009993Y019242D01*
X010343Y019242D01*
X010396Y019295D01*
X010396Y019631D01*
X010396Y019631D01*
X010396Y020123D01*
X010396Y020312D01*
X010128Y020580D01*
X009995Y020713D01*
X008853Y020713D01*
X008664Y020713D01*
X008467Y020516D01*
X006754Y020516D01*
X006754Y020600D01*
X006684Y020770D01*
X006555Y020899D01*
X006386Y020969D01*
X006203Y020969D01*
X006034Y020899D01*
X005904Y020770D01*
X005834Y020600D01*
X005834Y020417D01*
X005904Y020248D01*
X006034Y020119D01*
X006164Y020065D01*
X006164Y018193D01*
X005533Y017562D01*
X005474Y017582D01*
X005397Y017544D01*
X005257Y017544D01*
X005204Y017491D01*
X005204Y016944D01*
X005257Y016891D01*
X005322Y016891D01*
X005322Y016713D01*
X005312Y016703D01*
X005310Y016707D01*
X005285Y016731D01*
X005256Y016748D01*
X005223Y016757D01*
X005121Y016757D01*
X005121Y016415D01*
X005073Y016415D01*
X005073Y016757D01*
X004972Y016757D01*
X004939Y016748D01*
X004909Y016731D01*
X004885Y016707D01*
X004883Y016703D01*
X004869Y016717D01*
X004578Y016717D01*
X004525Y016664D01*
X004525Y016117D01*
X004574Y016069D01*
X004574Y016051D01*
X004574Y015943D01*
X004650Y015867D01*
X004638Y015879D02*
X003824Y015879D01*
X003766Y015938D02*
X004579Y015938D01*
X004574Y015996D02*
X003707Y015996D01*
X003731Y015972D02*
X003655Y016048D01*
X002316Y016048D01*
X001801Y016563D01*
X001801Y017019D01*
X001749Y017071D01*
X001241Y017071D01*
X001200Y017030D01*
X001158Y017071D01*
X001180Y017050D02*
X001220Y017050D01*
X000945Y017226D02*
X000503Y017226D01*
X000503Y017284D02*
X000886Y017284D01*
X000834Y017343D02*
X000503Y017343D01*
X000503Y017401D02*
X000810Y017401D01*
X000786Y017460D02*
X000503Y017460D01*
X000503Y017518D02*
X000774Y017518D01*
X000774Y017577D02*
X000503Y017577D01*
X000503Y017635D02*
X000774Y017635D01*
X000790Y017694D02*
X000503Y017694D01*
X000503Y017753D02*
X000814Y017753D01*
X000838Y017811D02*
X000503Y017811D01*
X000503Y017870D02*
X000896Y017870D01*
X000954Y017928D02*
X000503Y017928D01*
X000503Y018104D02*
X000619Y018104D01*
X000598Y018162D02*
X000503Y018162D01*
X000503Y018221D02*
X000598Y018221D01*
X000598Y018279D02*
X000503Y018279D01*
X000503Y018338D02*
X000598Y018338D01*
X000598Y018397D02*
X000503Y018397D01*
X000503Y018455D02*
X000598Y018455D01*
X000598Y018514D02*
X000503Y018514D01*
X000503Y018572D02*
X000598Y018572D01*
X000598Y018631D02*
X000503Y018631D01*
X000503Y018689D02*
X000598Y018689D01*
X000598Y018748D02*
X000503Y018748D01*
X000503Y018806D02*
X000614Y018806D01*
X000503Y018865D02*
X003826Y018865D01*
X003826Y018806D02*
X001785Y018806D01*
X001204Y018806D02*
X001195Y018806D01*
X000503Y018923D02*
X003859Y018923D01*
X003918Y018982D02*
X000503Y018982D01*
X000503Y017050D02*
X000629Y017050D01*
X000598Y016991D02*
X000503Y016991D01*
X000503Y016933D02*
X000598Y016933D01*
X000598Y016874D02*
X000503Y016874D01*
X000503Y016816D02*
X000598Y016816D01*
X000598Y016757D02*
X000503Y016757D01*
X000503Y016699D02*
X000598Y016699D01*
X000598Y016640D02*
X000503Y016640D01*
X000503Y016582D02*
X000598Y016582D01*
X000598Y016523D02*
X000503Y016523D01*
X000503Y016465D02*
X000598Y016465D01*
X000598Y016406D02*
X000503Y016406D01*
X000503Y016348D02*
X000604Y016348D01*
X000503Y016289D02*
X001708Y016289D01*
X001767Y016230D02*
X000503Y016230D01*
X000503Y016172D02*
X001825Y016172D01*
X001884Y016113D02*
X000503Y016113D01*
X000503Y016055D02*
X001942Y016055D01*
X002001Y015996D02*
X000503Y015996D01*
X000503Y015938D02*
X002060Y015938D01*
X002118Y015879D02*
X000503Y015879D01*
X000503Y015821D02*
X002177Y015821D01*
X002310Y016055D02*
X004574Y016055D01*
X004529Y016113D02*
X003973Y016113D01*
X003977Y016117D02*
X003924Y016065D01*
X003633Y016065D01*
X003580Y016117D01*
X003580Y016664D01*
X003633Y016717D01*
X003924Y016717D01*
X003977Y016664D01*
X003977Y016117D01*
X003977Y016172D02*
X004525Y016172D01*
X004525Y016230D02*
X003977Y016230D01*
X003977Y016289D02*
X004525Y016289D01*
X004525Y016348D02*
X003977Y016348D01*
X003977Y016406D02*
X004525Y016406D01*
X004525Y016465D02*
X003977Y016465D01*
X003977Y016523D02*
X004525Y016523D01*
X004525Y016582D02*
X003977Y016582D01*
X003977Y016640D02*
X004525Y016640D01*
X004559Y016699D02*
X003942Y016699D01*
X003933Y016851D02*
X003966Y016860D01*
X003996Y016877D01*
X004020Y016902D01*
X004037Y016931D01*
X004046Y016964D01*
X004046Y017188D01*
X003789Y017188D01*
X003789Y017248D01*
X003729Y017248D01*
X003729Y017584D01*
X003584Y017584D01*
X003551Y017575D01*
X003521Y017558D01*
X003497Y017534D01*
X003480Y017504D01*
X003471Y017471D01*
X003471Y017248D01*
X003729Y017248D01*
X003729Y017188D01*
X003471Y017188D01*
X003471Y016964D01*
X003480Y016931D01*
X003497Y016902D01*
X003521Y016877D01*
X003551Y016860D01*
X003584Y016851D01*
X003729Y016851D01*
X003729Y017187D01*
X003789Y017187D01*
X003789Y016851D01*
X003933Y016851D01*
X003991Y016874D02*
X004511Y016874D01*
X004506Y016877D02*
X004535Y016860D01*
X004568Y016851D01*
X004713Y016851D01*
X004713Y017187D01*
X004773Y017187D01*
X004773Y016851D01*
X004918Y016851D01*
X004951Y016860D01*
X004980Y016877D01*
X005004Y016902D01*
X005022Y016931D01*
X005030Y016964D01*
X005030Y017188D01*
X004773Y017188D01*
X004773Y017248D01*
X004713Y017248D01*
X004713Y017584D01*
X004568Y017584D01*
X004535Y017575D01*
X004506Y017558D01*
X004481Y017534D01*
X004464Y017504D01*
X004456Y017471D01*
X004456Y017248D01*
X004713Y017248D01*
X004713Y017188D01*
X004456Y017188D01*
X004456Y016964D01*
X004464Y016931D01*
X004481Y016902D01*
X004506Y016877D01*
X004464Y016933D02*
X004038Y016933D01*
X004046Y016991D02*
X004456Y016991D01*
X004456Y017050D02*
X004046Y017050D01*
X004046Y017109D02*
X004456Y017109D01*
X004456Y017167D02*
X004046Y017167D01*
X004046Y017248D02*
X004046Y017471D01*
X004037Y017504D01*
X004020Y017534D01*
X003996Y017558D01*
X003966Y017575D01*
X003933Y017584D01*
X003789Y017584D01*
X003789Y017248D01*
X004046Y017248D01*
X004046Y017284D02*
X004456Y017284D01*
X004456Y017343D02*
X004046Y017343D01*
X004046Y017401D02*
X004456Y017401D01*
X004456Y017460D02*
X004046Y017460D01*
X004029Y017518D02*
X004473Y017518D01*
X004543Y017577D02*
X003959Y017577D01*
X003789Y017577D02*
X003729Y017577D01*
X003729Y017518D02*
X003789Y017518D01*
X003789Y017460D02*
X003729Y017460D01*
X003729Y017401D02*
X003789Y017401D01*
X003789Y017343D02*
X003729Y017343D01*
X003729Y017284D02*
X003789Y017284D01*
X003789Y017226D02*
X004713Y017226D01*
X004713Y017284D02*
X004773Y017284D01*
X004773Y017248D02*
X004773Y017584D01*
X004918Y017584D01*
X004951Y017575D01*
X004980Y017558D01*
X005004Y017534D01*
X005022Y017504D01*
X005030Y017471D01*
X005030Y017248D01*
X004773Y017248D01*
X004773Y017226D02*
X005204Y017226D01*
X005204Y017284D02*
X005030Y017284D01*
X005030Y017343D02*
X005204Y017343D01*
X005204Y017401D02*
X005030Y017401D01*
X005030Y017460D02*
X005204Y017460D01*
X005231Y017518D02*
X005013Y017518D01*
X004943Y017577D02*
X005464Y017577D01*
X005488Y017577D02*
X005548Y017577D01*
X005607Y017635D02*
X003180Y017635D01*
X003180Y017577D02*
X003558Y017577D01*
X003488Y017518D02*
X003270Y017518D01*
X003298Y017460D02*
X003471Y017460D01*
X003471Y017401D02*
X003298Y017401D01*
X003298Y017343D02*
X003471Y017343D01*
X003471Y017284D02*
X003298Y017284D01*
X003298Y017226D02*
X003729Y017226D01*
X003729Y017167D02*
X003789Y017167D01*
X003789Y017109D02*
X003729Y017109D01*
X003729Y017050D02*
X003789Y017050D01*
X003789Y016991D02*
X003729Y016991D01*
X003729Y016933D02*
X003789Y016933D01*
X003789Y016874D02*
X003729Y016874D01*
X003527Y016874D02*
X003160Y016874D01*
X003160Y016816D02*
X005322Y016816D01*
X005322Y016874D02*
X004975Y016874D01*
X005022Y016933D02*
X005215Y016933D01*
X005204Y016991D02*
X005030Y016991D01*
X005030Y017050D02*
X005204Y017050D01*
X005204Y017109D02*
X005030Y017109D01*
X005030Y017167D02*
X005204Y017167D01*
X005322Y016757D02*
X003160Y016757D01*
X003194Y016699D02*
X003615Y016699D01*
X003580Y016640D02*
X003229Y016640D01*
X003229Y016582D02*
X003580Y016582D01*
X003580Y016523D02*
X003229Y016523D01*
X003229Y016465D02*
X003580Y016465D01*
X003580Y016406D02*
X003229Y016406D01*
X003229Y016348D02*
X003580Y016348D01*
X003580Y016289D02*
X003229Y016289D01*
X003229Y016230D02*
X003580Y016230D01*
X003580Y016172D02*
X003229Y016172D01*
X003225Y016113D02*
X003584Y016113D01*
X003731Y015972D02*
X003889Y015815D01*
X003889Y015707D01*
X003889Y015693D01*
X003924Y015693D01*
X003977Y015641D01*
X003977Y015094D01*
X003924Y015041D01*
X003633Y015041D01*
X003619Y015055D01*
X003617Y015051D01*
X003592Y015027D01*
X003563Y015010D01*
X003530Y015001D01*
X003551Y014917D02*
X003584Y014926D01*
X003729Y014926D01*
X003729Y014590D01*
X003789Y014590D01*
X004046Y014590D01*
X004046Y014814D01*
X004037Y014847D01*
X004020Y014876D01*
X003996Y014900D01*
X003966Y014917D01*
X003933Y014926D01*
X003789Y014926D01*
X003789Y014590D01*
X003789Y014530D01*
X004046Y014530D01*
X004046Y014307D01*
X004037Y014274D01*
X004020Y014244D01*
X003996Y014220D01*
X003966Y014203D01*
X003933Y014194D01*
X003789Y014194D01*
X003789Y014530D01*
X003729Y014530D01*
X003729Y014194D01*
X003584Y014194D01*
X003551Y014203D01*
X003521Y014220D01*
X003497Y014244D01*
X003480Y014274D01*
X003471Y014307D01*
X003471Y014530D01*
X003729Y014530D01*
X003729Y014590D01*
X003471Y014590D01*
X003471Y014814D01*
X003480Y014847D01*
X003497Y014876D01*
X003521Y014900D01*
X003551Y014917D01*
X003505Y014884D02*
X003257Y014884D01*
X003260Y014942D02*
X005322Y014942D01*
X005254Y014884D02*
X004997Y014884D01*
X005004Y014876D02*
X004980Y014900D01*
X004951Y014917D01*
X004918Y014926D01*
X004773Y014926D01*
X004773Y014590D01*
X005030Y014590D01*
X005030Y014814D01*
X005022Y014847D01*
X005004Y014876D01*
X005027Y014825D02*
X005204Y014825D01*
X005204Y014767D02*
X005030Y014767D01*
X005030Y014708D02*
X005204Y014708D01*
X005204Y014650D02*
X005030Y014650D01*
X005030Y014591D02*
X005204Y014591D01*
X005204Y014533D02*
X004773Y014533D01*
X004773Y014530D02*
X004773Y014590D01*
X004713Y014590D01*
X004713Y014530D01*
X004773Y014530D01*
X004773Y014194D01*
X004918Y014194D01*
X004951Y014203D01*
X004980Y014220D01*
X005004Y014244D01*
X005022Y014274D01*
X005030Y014307D01*
X005030Y014530D01*
X004773Y014530D01*
X004773Y014474D02*
X004713Y014474D01*
X004713Y014530D02*
X004713Y014194D01*
X004568Y014194D01*
X004535Y014203D01*
X004506Y014220D01*
X004481Y014244D01*
X004464Y014274D01*
X004456Y014307D01*
X004456Y014530D01*
X004713Y014530D01*
X004713Y014533D02*
X003789Y014533D01*
X003789Y014591D02*
X003729Y014591D01*
X003729Y014533D02*
X003298Y014533D01*
X003298Y014591D02*
X003471Y014591D01*
X003471Y014650D02*
X003298Y014650D01*
X003298Y014708D02*
X003471Y014708D01*
X003471Y014767D02*
X003298Y014767D01*
X003298Y014825D02*
X003474Y014825D01*
X003429Y015001D02*
X003429Y015343D01*
X003380Y015343D01*
X003380Y015001D01*
X003380Y015060D02*
X003429Y015060D01*
X003429Y015118D02*
X003380Y015118D01*
X003380Y015177D02*
X003429Y015177D01*
X003429Y015235D02*
X003380Y015235D01*
X003380Y015294D02*
X003429Y015294D01*
X003429Y015411D02*
X003380Y015411D01*
X003380Y015469D02*
X003429Y015469D01*
X003429Y015528D02*
X003380Y015528D01*
X003380Y015586D02*
X003429Y015586D01*
X003429Y015645D02*
X003380Y015645D01*
X003380Y015704D02*
X003429Y015704D01*
X003574Y015762D02*
X000503Y015762D01*
X000503Y015704D02*
X003212Y015704D01*
X002836Y015645D02*
X000503Y015645D01*
X000503Y015586D02*
X002832Y015586D01*
X002832Y015528D02*
X000503Y015528D01*
X000503Y015469D02*
X002832Y015469D01*
X002832Y015411D02*
X000503Y015411D01*
X000503Y015352D02*
X002832Y015352D01*
X002832Y015294D02*
X000503Y015294D01*
X000503Y015235D02*
X002832Y015235D01*
X002832Y015177D02*
X000503Y015177D01*
X000503Y015118D02*
X002832Y015118D01*
X002840Y015060D02*
X000503Y015060D01*
X000503Y015001D02*
X000874Y015001D01*
X000897Y015024D02*
X000844Y014971D01*
X000844Y014188D01*
X000897Y014136D01*
X001365Y014136D01*
X001373Y014144D01*
X001739Y013778D01*
X001739Y012385D01*
X001659Y012305D01*
X001659Y012131D01*
X001782Y012008D01*
X001956Y012008D01*
X002079Y012131D01*
X002079Y012305D01*
X001999Y012385D01*
X001999Y013886D01*
X001923Y013962D01*
X001923Y013962D01*
X001418Y014467D01*
X001418Y014971D01*
X001365Y015024D01*
X000897Y015024D01*
X000844Y014942D02*
X000503Y014942D01*
X000503Y014884D02*
X000844Y014884D01*
X000844Y014825D02*
X000503Y014825D01*
X000503Y014767D02*
X000844Y014767D01*
X000844Y014708D02*
X000503Y014708D01*
X000503Y014650D02*
X000844Y014650D01*
X000844Y014591D02*
X000503Y014591D01*
X000503Y014533D02*
X000844Y014533D01*
X000844Y014474D02*
X000503Y014474D01*
X000503Y014416D02*
X000844Y014416D01*
X000844Y014357D02*
X000503Y014357D01*
X000503Y014299D02*
X000844Y014299D01*
X000844Y014240D02*
X000503Y014240D01*
X000503Y014181D02*
X000851Y014181D01*
X000503Y014123D02*
X001394Y014123D01*
X001453Y014064D02*
X000503Y014064D01*
X000503Y014006D02*
X001511Y014006D01*
X001570Y013947D02*
X000503Y013947D01*
X000503Y013889D02*
X001628Y013889D01*
X001687Y013830D02*
X000503Y013830D01*
X000503Y013772D02*
X001739Y013772D01*
X001739Y013713D02*
X000503Y013713D01*
X000503Y013655D02*
X001739Y013655D01*
X001739Y013596D02*
X000503Y013596D01*
X000503Y013537D02*
X001739Y013537D01*
X001739Y013479D02*
X000503Y013479D01*
X000503Y013420D02*
X001739Y013420D01*
X001739Y013362D02*
X000503Y013362D01*
X000503Y013303D02*
X001739Y013303D01*
X001739Y013245D02*
X000503Y013245D01*
X000503Y013186D02*
X001739Y013186D01*
X001739Y013128D02*
X000503Y013128D01*
X000503Y013069D02*
X001739Y013069D01*
X001739Y013011D02*
X000503Y013011D01*
X000503Y012952D02*
X001739Y012952D01*
X001739Y012893D02*
X000503Y012893D01*
X000503Y012835D02*
X001739Y012835D01*
X001739Y012776D02*
X000503Y012776D01*
X000503Y012718D02*
X001739Y012718D01*
X001739Y012659D02*
X000503Y012659D01*
X000503Y012601D02*
X001739Y012601D01*
X001739Y012542D02*
X000503Y012542D01*
X000503Y012484D02*
X001739Y012484D01*
X001739Y012425D02*
X000503Y012425D01*
X000503Y012367D02*
X001721Y012367D01*
X001662Y012308D02*
X000503Y012308D01*
X000503Y012249D02*
X001659Y012249D01*
X001659Y012191D02*
X000503Y012191D01*
X000503Y012132D02*
X001659Y012132D01*
X001716Y012074D02*
X000503Y012074D01*
X000503Y012015D02*
X001774Y012015D01*
X001964Y012015D02*
X005144Y012015D01*
X005086Y011957D02*
X000503Y011957D01*
X000503Y011898D02*
X005027Y011898D01*
X004969Y011840D02*
X000503Y011840D01*
X000503Y011781D02*
X004910Y011781D01*
X004852Y011723D02*
X000503Y011723D01*
X000503Y011664D02*
X004793Y011664D01*
X004734Y011606D02*
X000503Y011606D01*
X000503Y011547D02*
X004676Y011547D01*
X004617Y011488D02*
X000503Y011488D01*
X000503Y011430D02*
X004559Y011430D01*
X004500Y011371D02*
X000503Y011371D01*
X000503Y011313D02*
X004442Y011313D01*
X004383Y011254D02*
X000503Y011254D01*
X000503Y011196D02*
X004325Y011196D01*
X004266Y011137D02*
X000503Y011137D01*
X000503Y011079D02*
X004208Y011079D01*
X004149Y011020D02*
X000503Y011020D01*
X000503Y010962D02*
X004091Y010962D01*
X004032Y010903D02*
X000503Y010903D01*
X000503Y010844D02*
X003973Y010844D01*
X003915Y010786D02*
X000503Y010786D01*
X000503Y010727D02*
X003856Y010727D01*
X003798Y010669D02*
X000503Y010669D01*
X000503Y010610D02*
X003739Y010610D01*
X003681Y010552D02*
X000503Y010552D01*
X000503Y010493D02*
X003622Y010493D01*
X003564Y010435D02*
X000503Y010435D01*
X000503Y010376D02*
X003505Y010376D01*
X003447Y010318D02*
X000503Y010318D01*
X000503Y010259D02*
X003388Y010259D01*
X003329Y010200D02*
X000503Y010200D01*
X000503Y010142D02*
X003271Y010142D01*
X003212Y010083D02*
X000503Y010083D01*
X000503Y010025D02*
X003154Y010025D01*
X003095Y009966D02*
X000503Y009966D01*
X000503Y009908D02*
X003037Y009908D01*
X002978Y009849D02*
X000503Y009849D01*
X000503Y009791D02*
X002920Y009791D01*
X002861Y009732D02*
X000503Y009732D01*
X000503Y009674D02*
X002803Y009674D01*
X002744Y009615D02*
X000503Y009615D01*
X000503Y009556D02*
X002685Y009556D01*
X002627Y009498D02*
X000503Y009498D01*
X000503Y009439D02*
X002568Y009439D01*
X002510Y009381D02*
X000503Y009381D01*
X000503Y009322D02*
X002451Y009322D01*
X002393Y009264D02*
X000503Y009264D01*
X000503Y009205D02*
X002334Y009205D01*
X002276Y009147D02*
X000503Y009147D01*
X000503Y009088D02*
X002217Y009088D01*
X002045Y009030D02*
X000503Y009030D01*
X000503Y008971D02*
X001987Y008971D01*
X001935Y008913D02*
X000503Y008913D01*
X000503Y008854D02*
X001935Y008854D01*
X001935Y008795D02*
X000503Y008795D01*
X000503Y008737D02*
X001942Y008737D01*
X002001Y008678D02*
X000503Y008678D01*
X000503Y008620D02*
X007776Y008620D01*
X007776Y008678D02*
X002288Y008678D01*
X002347Y008737D02*
X007776Y008737D01*
X007776Y008795D02*
X002355Y008795D01*
X002355Y008854D02*
X007776Y008854D01*
X007776Y008913D02*
X002409Y008913D01*
X002468Y008971D02*
X007776Y008971D01*
X007776Y009030D02*
X002526Y009030D01*
X002585Y009088D02*
X007776Y009088D01*
X007776Y009147D02*
X002643Y009147D01*
X002702Y009205D02*
X007776Y009205D01*
X007776Y009264D02*
X002760Y009264D01*
X002819Y009322D02*
X007776Y009322D01*
X007776Y009381D02*
X002877Y009381D01*
X002936Y009439D02*
X007776Y009439D01*
X007776Y009498D02*
X002994Y009498D01*
X003053Y009556D02*
X007776Y009556D01*
X007776Y009615D02*
X003112Y009615D01*
X003170Y009674D02*
X007776Y009674D01*
X007776Y009732D02*
X003229Y009732D01*
X003287Y009791D02*
X007362Y009791D01*
X007330Y009849D02*
X003346Y009849D01*
X003404Y009908D02*
X007330Y009908D01*
X007330Y009966D02*
X003463Y009966D01*
X003521Y010025D02*
X007330Y010025D01*
X007330Y010083D02*
X003580Y010083D01*
X003638Y010142D02*
X005364Y010142D01*
X005362Y010200D02*
X003697Y010200D01*
X003756Y010259D02*
X005362Y010259D01*
X005362Y010318D02*
X003814Y010318D01*
X003873Y010376D02*
X005362Y010376D01*
X005362Y010435D02*
X003931Y010435D01*
X003990Y010493D02*
X005362Y010493D01*
X005370Y010552D02*
X004048Y010552D01*
X004107Y010610D02*
X005329Y010610D01*
X005322Y010669D02*
X004165Y010669D01*
X004224Y010727D02*
X005322Y010727D01*
X005322Y010844D02*
X004341Y010844D01*
X004282Y010786D02*
X005756Y010786D01*
X005816Y010786D02*
X006435Y010786D01*
X006493Y010844D02*
X006251Y010844D01*
X006251Y010822D02*
X006251Y010947D01*
X006242Y010980D01*
X006225Y011010D01*
X006201Y011034D01*
X006172Y011050D01*
X006211Y011089D01*
X006211Y011440D01*
X006158Y011492D01*
X005973Y011492D01*
X006348Y011867D01*
X006348Y011864D01*
X006358Y011854D01*
X006348Y011844D01*
X006348Y011549D01*
X006401Y011496D01*
X006542Y011496D01*
X006542Y010894D01*
X006227Y010579D01*
X006242Y010604D01*
X006251Y010637D01*
X006251Y010762D01*
X005816Y010762D01*
X005816Y010822D01*
X006251Y010822D01*
X006251Y010903D02*
X006542Y010903D01*
X006542Y010962D02*
X006247Y010962D01*
X006214Y011020D02*
X006542Y011020D01*
X006542Y011079D02*
X006200Y011079D01*
X006211Y011137D02*
X006542Y011137D01*
X006542Y011196D02*
X006211Y011196D01*
X006211Y011254D02*
X006542Y011254D01*
X006542Y011313D02*
X006211Y011313D01*
X006211Y011371D02*
X006542Y011371D01*
X006542Y011430D02*
X006211Y011430D01*
X006162Y011488D02*
X006542Y011488D01*
X006350Y011547D02*
X006028Y011547D01*
X006086Y011606D02*
X006348Y011606D01*
X006348Y011664D02*
X006145Y011664D01*
X006203Y011723D02*
X006348Y011723D01*
X006348Y011781D02*
X006262Y011781D01*
X006320Y011840D02*
X006348Y011840D01*
X006129Y012015D02*
X005512Y012015D01*
X005453Y011957D02*
X006070Y011957D01*
X006011Y011898D02*
X005395Y011898D01*
X005336Y011840D02*
X005953Y011840D01*
X005894Y011781D02*
X005278Y011781D01*
X005219Y011723D02*
X005836Y011723D01*
X005777Y011664D02*
X005161Y011664D01*
X005102Y011606D02*
X005719Y011606D01*
X005676Y011547D02*
X005044Y011547D01*
X004985Y011488D02*
X005411Y011488D01*
X005362Y011430D02*
X004926Y011430D01*
X004868Y011371D02*
X005362Y011371D01*
X005362Y011313D02*
X004809Y011313D01*
X004751Y011254D02*
X005362Y011254D01*
X005362Y011196D02*
X004692Y011196D01*
X004634Y011137D02*
X005362Y011137D01*
X005372Y011079D02*
X004575Y011079D01*
X004517Y011020D02*
X005358Y011020D01*
X005326Y010962D02*
X004458Y010962D01*
X004400Y010903D02*
X005322Y010903D01*
X006251Y010727D02*
X006376Y010727D01*
X006317Y010669D02*
X006251Y010669D01*
X006244Y010610D02*
X006259Y010610D01*
X006451Y010435D02*
X007448Y010435D01*
X007448Y010493D02*
X006509Y010493D01*
X006568Y010552D02*
X007448Y010552D01*
X007448Y010610D02*
X006627Y010610D01*
X006685Y010669D02*
X007448Y010669D01*
X007448Y010727D02*
X006744Y010727D01*
X006802Y010786D02*
X006802Y010894D01*
X006802Y010903D02*
X007076Y010903D01*
X007076Y010962D02*
X006802Y010962D01*
X006802Y011020D02*
X007076Y011020D01*
X007076Y011079D02*
X006802Y011079D01*
X006802Y011137D02*
X007076Y011137D01*
X007076Y011196D02*
X006802Y011196D01*
X006802Y011254D02*
X007076Y011254D01*
X007076Y011313D02*
X006802Y011313D01*
X006802Y011371D02*
X007076Y011371D01*
X007110Y011430D02*
X006802Y011430D01*
X006802Y011488D02*
X009967Y011488D01*
X009967Y011430D02*
X009646Y011430D01*
X009680Y011371D02*
X009967Y011371D01*
X009967Y011313D02*
X009680Y011313D01*
X009680Y011254D02*
X009967Y011254D01*
X009967Y011196D02*
X009680Y011196D01*
X009680Y011137D02*
X009967Y011137D01*
X009967Y011079D02*
X009680Y011079D01*
X009680Y011020D02*
X009967Y011020D01*
X009967Y010962D02*
X009680Y010962D01*
X009680Y010903D02*
X009967Y010903D01*
X009967Y010844D02*
X009680Y010844D01*
X009645Y010786D02*
X009967Y010786D01*
X009967Y010727D02*
X009637Y010727D01*
X009637Y010669D02*
X009967Y010669D01*
X009967Y010610D02*
X009637Y010610D01*
X009637Y010552D02*
X009967Y010552D01*
X009967Y010493D02*
X009637Y010493D01*
X009637Y010435D02*
X009967Y010435D01*
X009967Y010376D02*
X009637Y010376D01*
X009637Y010318D02*
X009967Y010318D01*
X009967Y010259D02*
X009637Y010259D01*
X009637Y010200D02*
X009967Y010200D01*
X009967Y010142D02*
X009637Y010142D01*
X009637Y010083D02*
X009967Y010083D01*
X009967Y010025D02*
X009637Y010025D01*
X009637Y009966D02*
X009967Y009966D01*
X009967Y009908D02*
X009637Y009908D01*
X009637Y009849D02*
X009967Y009849D01*
X009978Y009791D02*
X009637Y009791D01*
X009637Y009732D02*
X010037Y009732D01*
X010095Y009674D02*
X009637Y009674D01*
X009695Y009615D02*
X010154Y009615D01*
X010212Y009556D02*
X009753Y009556D01*
X009812Y009498D02*
X010271Y009498D01*
X010329Y009439D02*
X009870Y009439D01*
X009929Y009381D02*
X010388Y009381D01*
X010447Y009322D02*
X009987Y009322D01*
X010046Y009264D02*
X010505Y009264D01*
X010564Y009205D02*
X010105Y009205D01*
X010163Y009147D02*
X010195Y009147D01*
X009971Y008971D02*
X009766Y008971D01*
X009825Y008913D02*
X009961Y008913D01*
X009933Y008854D02*
X009853Y008854D01*
X009853Y008795D02*
X009933Y008795D01*
X009933Y008737D02*
X009853Y008737D01*
X009853Y008678D02*
X009933Y008678D01*
X009933Y008620D02*
X009853Y008620D01*
X009793Y008444D02*
X009992Y008444D01*
X010050Y008386D02*
X009735Y008386D01*
X009676Y008327D02*
X010109Y008327D01*
X010168Y008269D02*
X009618Y008269D01*
X009586Y008151D02*
X010200Y008151D01*
X010141Y008093D02*
X009644Y008093D01*
X009703Y008034D02*
X010082Y008034D01*
X010024Y007976D02*
X009761Y007976D01*
X009820Y007917D02*
X009965Y007917D01*
X009933Y007859D02*
X009853Y007859D01*
X009853Y007800D02*
X009933Y007800D01*
X009933Y007742D02*
X009853Y007742D01*
X009853Y007683D02*
X009933Y007683D01*
X009933Y007625D02*
X009853Y007625D01*
X009853Y007566D02*
X009933Y007566D01*
X009933Y007507D02*
X009853Y007507D01*
X009798Y007449D02*
X009987Y007449D01*
X010046Y007390D02*
X009739Y007390D01*
X009681Y007332D02*
X010104Y007332D01*
X010163Y007273D02*
X009622Y007273D01*
X009600Y007194D02*
X009423Y007194D01*
X009423Y006724D01*
X009893Y006724D01*
X009893Y006901D01*
X009600Y007194D01*
X009637Y007156D02*
X010723Y007156D01*
X010781Y007098D02*
X010639Y007098D01*
X010583Y007154D02*
X010202Y007154D01*
X009933Y006885D01*
X009933Y006503D01*
X010202Y006234D01*
X010583Y006234D01*
X010853Y006503D01*
X010853Y006885D01*
X010583Y007154D01*
X010664Y007215D02*
X008456Y007215D01*
X008456Y007273D02*
X009163Y007273D01*
X009185Y007194D02*
X008893Y006901D01*
X008893Y006724D01*
X009362Y006724D01*
X009362Y006664D01*
X008893Y006664D01*
X008893Y006487D01*
X009185Y006194D01*
X009363Y006194D01*
X009363Y006664D01*
X009423Y006664D01*
X009423Y006724D01*
X009363Y006724D01*
X009363Y007194D01*
X009185Y007194D01*
X009148Y007156D02*
X008456Y007156D01*
X008456Y007098D02*
X009089Y007098D01*
X009031Y007039D02*
X008456Y007039D01*
X008456Y007034D02*
X008456Y009769D01*
X008481Y009769D01*
X008534Y009822D01*
X008534Y010369D01*
X008481Y010422D01*
X008092Y010422D01*
X008039Y010369D01*
X008039Y009822D01*
X008092Y009769D01*
X008196Y009769D01*
X008196Y006996D01*
X008196Y006888D01*
X008234Y006850D01*
X008234Y006737D01*
X008357Y006614D01*
X008531Y006614D01*
X008654Y006737D01*
X008654Y006911D01*
X008531Y007034D01*
X008456Y007034D01*
X008584Y006981D02*
X008972Y006981D01*
X008914Y006922D02*
X008643Y006922D01*
X008654Y006864D02*
X008893Y006864D01*
X008893Y006805D02*
X008654Y006805D01*
X008654Y006746D02*
X008893Y006746D01*
X008893Y006629D02*
X008546Y006629D01*
X008605Y006688D02*
X009362Y006688D01*
X009363Y006746D02*
X009423Y006746D01*
X009423Y006688D02*
X009933Y006688D01*
X009893Y006664D02*
X009423Y006664D01*
X009423Y006194D01*
X009600Y006194D01*
X009893Y006487D01*
X009893Y006664D01*
X009893Y006629D02*
X009933Y006629D01*
X009933Y006571D02*
X009893Y006571D01*
X009893Y006512D02*
X009933Y006512D01*
X009982Y006454D02*
X009859Y006454D01*
X009801Y006395D02*
X010041Y006395D01*
X010099Y006337D02*
X009742Y006337D01*
X009684Y006278D02*
X010158Y006278D01*
X010393Y006044D02*
X008036Y006044D01*
X008036Y006102D02*
X010452Y006102D01*
X010510Y006161D02*
X008036Y006161D01*
X008036Y006220D02*
X009160Y006220D01*
X009101Y006278D02*
X008036Y006278D01*
X008036Y006337D02*
X009043Y006337D01*
X008984Y006395D02*
X008036Y006395D01*
X008036Y006454D02*
X008926Y006454D01*
X008893Y006512D02*
X008036Y006512D01*
X008036Y006571D02*
X008893Y006571D01*
X009363Y006571D02*
X009423Y006571D01*
X009423Y006629D02*
X009363Y006629D01*
X009363Y006512D02*
X009423Y006512D01*
X009423Y006454D02*
X009363Y006454D01*
X009363Y006395D02*
X009423Y006395D01*
X009423Y006337D02*
X009363Y006337D01*
X009363Y006278D02*
X009423Y006278D01*
X009423Y006220D02*
X009363Y006220D01*
X009625Y006220D02*
X010569Y006220D01*
X010627Y006278D02*
X010627Y006278D01*
X010686Y006337D02*
X010686Y006337D01*
X010744Y006395D02*
X010745Y006395D01*
X010803Y006454D02*
X010803Y006454D01*
X010853Y006512D02*
X010862Y006512D01*
X010853Y006571D02*
X010873Y006571D01*
X010873Y006629D02*
X010853Y006629D01*
X010853Y006688D02*
X010873Y006688D01*
X010873Y006746D02*
X010853Y006746D01*
X010853Y006805D02*
X010873Y006805D01*
X010873Y006864D02*
X010853Y006864D01*
X010873Y006922D02*
X010815Y006922D01*
X010873Y006981D02*
X010756Y006981D01*
X010698Y007039D02*
X010840Y007039D01*
X011032Y007215D02*
X011857Y007215D01*
X011857Y007273D02*
X010973Y007273D01*
X010915Y007332D02*
X011857Y007332D01*
X011857Y007390D02*
X010856Y007390D01*
X010798Y007449D02*
X010853Y007503D01*
X010853Y007566D02*
X011857Y007566D01*
X011857Y007625D02*
X010853Y007625D01*
X010853Y007683D02*
X011857Y007683D01*
X011857Y007742D02*
X010853Y007742D01*
X010853Y007800D02*
X011857Y007800D01*
X011857Y007859D02*
X010853Y007859D01*
X010820Y007917D02*
X011857Y007917D01*
X011857Y007976D02*
X010842Y007976D01*
X010901Y008034D02*
X011857Y008034D01*
X011857Y008093D02*
X010960Y008093D01*
X011018Y008151D02*
X011857Y008151D01*
X011857Y008210D02*
X011077Y008210D01*
X011057Y008190D02*
X011057Y008190D01*
X011133Y008269D02*
X011857Y008269D01*
X011857Y008327D02*
X011133Y008327D01*
X011133Y008386D02*
X011857Y008386D01*
X011857Y008444D02*
X011133Y008444D01*
X011133Y008503D02*
X011857Y008503D01*
X011857Y008561D02*
X011133Y008561D01*
X011133Y008620D02*
X011857Y008620D01*
X011857Y008678D02*
X011133Y008678D01*
X011133Y008737D02*
X011857Y008737D01*
X011857Y008795D02*
X011133Y008795D01*
X011133Y008854D02*
X011857Y008854D01*
X011857Y008913D02*
X011133Y008913D01*
X011133Y008971D02*
X011857Y008971D01*
X011857Y009030D02*
X011107Y009030D01*
X011048Y009088D02*
X011857Y009088D01*
X011857Y009147D02*
X010990Y009147D01*
X010931Y009205D02*
X011857Y009205D01*
X011857Y009264D02*
X010873Y009264D01*
X010814Y009322D02*
X011857Y009322D01*
X011857Y009381D02*
X010756Y009381D01*
X010697Y009439D02*
X011857Y009439D01*
X011857Y009498D02*
X010639Y009498D01*
X010580Y009556D02*
X011857Y009556D01*
X011857Y009615D02*
X010521Y009615D01*
X010463Y009674D02*
X011857Y009674D01*
X011857Y009732D02*
X010404Y009732D01*
X010346Y009791D02*
X011857Y009791D01*
X011857Y009849D02*
X010287Y009849D01*
X010229Y009908D02*
X011857Y009908D01*
X011857Y009966D02*
X010227Y009966D01*
X010227Y010025D02*
X011857Y010025D01*
X011857Y010083D02*
X010227Y010083D01*
X010227Y010142D02*
X011857Y010142D01*
X011857Y010200D02*
X010227Y010200D01*
X010227Y010259D02*
X011857Y010259D01*
X011857Y010318D02*
X010227Y010318D01*
X010227Y010376D02*
X011857Y010376D01*
X011857Y010435D02*
X010227Y010435D01*
X010227Y010493D02*
X011857Y010493D01*
X011857Y010552D02*
X010227Y010552D01*
X010227Y010610D02*
X011857Y010610D01*
X011857Y010669D02*
X010227Y010669D01*
X010227Y010727D02*
X011857Y010727D01*
X011857Y010786D02*
X010227Y010786D01*
X010227Y010844D02*
X011857Y010844D01*
X011857Y010903D02*
X010227Y010903D01*
X010227Y010962D02*
X011857Y010962D01*
X011857Y011020D02*
X010227Y011020D01*
X010227Y011079D02*
X011857Y011079D01*
X011857Y011137D02*
X010227Y011137D01*
X010227Y011196D02*
X011857Y011196D01*
X011857Y011254D02*
X010227Y011254D01*
X010227Y011313D02*
X011857Y011313D01*
X011857Y011371D02*
X010227Y011371D01*
X010227Y011430D02*
X011857Y011430D01*
X011857Y011488D02*
X010227Y011488D01*
X010406Y011547D02*
X011857Y011547D01*
X011857Y011606D02*
X011716Y011606D01*
X011713Y011602D02*
X011737Y011626D01*
X011754Y011656D01*
X011763Y011689D01*
X011763Y011912D01*
X011505Y011912D01*
X011505Y011576D01*
X011650Y011576D01*
X011683Y011585D01*
X011713Y011602D01*
X011756Y011664D02*
X011857Y011664D01*
X011857Y011723D02*
X011763Y011723D01*
X011763Y011781D02*
X011857Y011781D01*
X011857Y011840D02*
X011763Y011840D01*
X011763Y011898D02*
X011857Y011898D01*
X011857Y011957D02*
X011505Y011957D01*
X011505Y011972D02*
X011763Y011972D01*
X011763Y012195D01*
X011754Y012228D01*
X011737Y012258D01*
X011713Y012282D01*
X011683Y012299D01*
X011657Y012306D01*
X011683Y012313D01*
X011713Y012330D01*
X011737Y012354D01*
X011754Y012384D01*
X011763Y012417D01*
X011763Y012640D01*
X011505Y012640D01*
X011505Y012308D01*
X011445Y012308D01*
X011445Y011972D01*
X011445Y011912D01*
X011188Y011912D01*
X011188Y011689D01*
X011197Y011656D01*
X011214Y011626D01*
X011238Y011602D01*
X011268Y011585D01*
X011301Y011576D01*
X011445Y011576D01*
X011445Y011912D01*
X011505Y011912D01*
X011505Y011972D01*
X011445Y011972D01*
X011188Y011972D01*
X011188Y012195D01*
X011197Y012228D01*
X011214Y012258D01*
X011238Y012282D01*
X011268Y012299D01*
X011293Y012306D01*
X011268Y012313D01*
X011238Y012330D01*
X011214Y012354D01*
X011197Y012384D01*
X011188Y012417D01*
X011188Y012640D01*
X011445Y012640D01*
X011505Y012640D01*
X011505Y012700D01*
X011763Y012700D01*
X011763Y012924D01*
X011754Y012957D01*
X011737Y012986D01*
X011713Y013011D01*
X011857Y013011D01*
X011857Y013069D02*
X010448Y013069D01*
X010448Y013011D02*
X011238Y013011D01*
X011214Y012986D01*
X011197Y012957D01*
X011188Y012924D01*
X011188Y012700D01*
X011445Y012700D01*
X011445Y012640D01*
X011445Y012308D01*
X011445Y012249D02*
X011505Y012249D01*
X011505Y012191D02*
X011445Y012191D01*
X011445Y012132D02*
X011505Y012132D01*
X011505Y012074D02*
X011445Y012074D01*
X011445Y012015D02*
X011505Y012015D01*
X011505Y011972D02*
X011505Y012308D01*
X011505Y012367D02*
X011445Y012367D01*
X011445Y012425D02*
X011505Y012425D01*
X011505Y012484D02*
X011445Y012484D01*
X011445Y012542D02*
X011505Y012542D01*
X011505Y012601D02*
X011445Y012601D01*
X011445Y012659D02*
X011014Y012659D01*
X011014Y012601D02*
X011188Y012601D01*
X011188Y012542D02*
X011014Y012542D01*
X011014Y012484D02*
X011188Y012484D01*
X011188Y012425D02*
X011014Y012425D01*
X010984Y012367D02*
X011207Y012367D01*
X011286Y012308D02*
X010408Y012308D01*
X010408Y012249D02*
X010553Y012249D01*
X010519Y012191D02*
X010408Y012191D01*
X010408Y012132D02*
X010519Y012132D01*
X010519Y012074D02*
X010408Y012074D01*
X010408Y012367D02*
X010549Y012367D01*
X010519Y012425D02*
X010408Y012425D01*
X010398Y012484D02*
X010408Y012494D01*
X010408Y012521D01*
X010519Y012521D01*
X010519Y012835D02*
X010448Y012835D01*
X010448Y012893D02*
X010519Y012893D01*
X010527Y012952D02*
X010093Y012952D01*
X010043Y012952D02*
X007303Y012952D01*
X007361Y012893D02*
X009688Y012893D01*
X009688Y012835D02*
X007420Y012835D01*
X007478Y012776D02*
X009708Y012776D01*
X009728Y012718D02*
X007537Y012718D01*
X007595Y012659D02*
X009728Y012659D01*
X009728Y012601D02*
X007654Y012601D01*
X007712Y012542D02*
X009728Y012542D01*
X009738Y012484D02*
X007771Y012484D01*
X007830Y012425D02*
X009728Y012425D01*
X009728Y012367D02*
X007888Y012367D01*
X007947Y012308D02*
X008946Y012308D01*
X008887Y012249D02*
X008005Y012249D01*
X008064Y012191D02*
X008864Y012191D01*
X009201Y012308D02*
X009728Y012308D01*
X009728Y012249D02*
X009260Y012249D01*
X009284Y012191D02*
X009728Y012191D01*
X009728Y011840D02*
X007028Y011840D01*
X007028Y011898D02*
X007285Y011898D01*
X007103Y011957D02*
X007028Y011957D01*
X007054Y012006D02*
X007054Y012006D01*
X007045Y012015D02*
X007028Y012015D01*
X007028Y011781D02*
X009728Y011781D01*
X009728Y011723D02*
X007028Y011723D01*
X007028Y011664D02*
X009728Y011664D01*
X009728Y011606D02*
X007028Y011606D01*
X007026Y011547D02*
X009730Y011547D01*
X009091Y011898D02*
X007555Y011898D01*
X007587Y012190D02*
X007697Y012190D01*
X007091Y012796D01*
X007060Y012796D01*
X007068Y012768D01*
X007068Y012666D01*
X006713Y012666D01*
X006713Y012616D01*
X007068Y012616D01*
X007068Y012514D01*
X007059Y012481D01*
X007042Y012451D01*
X007028Y012437D01*
X007028Y012400D01*
X007078Y012350D01*
X007238Y012190D01*
X007253Y012190D01*
X007333Y012270D01*
X007507Y012270D01*
X007587Y012190D01*
X007586Y012191D02*
X007696Y012191D01*
X007638Y012249D02*
X007528Y012249D01*
X007579Y012308D02*
X007120Y012308D01*
X007178Y012249D02*
X007313Y012249D01*
X007254Y012191D02*
X007237Y012191D01*
X007061Y012367D02*
X007520Y012367D01*
X007462Y012425D02*
X007028Y012425D01*
X007060Y012484D02*
X007403Y012484D01*
X007345Y012542D02*
X007068Y012542D01*
X007068Y012601D02*
X007286Y012601D01*
X007228Y012659D02*
X006713Y012659D01*
X006663Y012659D02*
X005621Y012659D01*
X005621Y012601D02*
X006308Y012601D01*
X006308Y012542D02*
X005621Y012542D01*
X005621Y012484D02*
X006316Y012484D01*
X006308Y012718D02*
X005621Y012718D01*
X005621Y012776D02*
X006310Y012776D01*
X006338Y012835D02*
X005621Y012835D01*
X005621Y012893D02*
X006348Y012893D01*
X006348Y012952D02*
X005621Y012952D01*
X005621Y013011D02*
X006348Y013011D01*
X006346Y013069D02*
X005621Y013069D01*
X005621Y013128D02*
X006312Y013128D01*
X006308Y013186D02*
X005621Y013186D01*
X005621Y013245D02*
X006308Y013245D01*
X006308Y013303D02*
X005621Y013303D01*
X005621Y013362D02*
X006308Y013362D01*
X006314Y013420D02*
X005621Y013420D01*
X005621Y013479D02*
X006348Y013479D01*
X006348Y013537D02*
X005621Y013537D01*
X005621Y013596D02*
X006348Y013596D01*
X006348Y013655D02*
X005621Y013655D01*
X005621Y013713D02*
X006348Y013713D01*
X006348Y013772D02*
X005621Y013772D01*
X005621Y013830D02*
X006348Y013830D01*
X006348Y013889D02*
X005621Y013889D01*
X005621Y013947D02*
X006348Y013947D01*
X006348Y014006D02*
X005621Y014006D01*
X005621Y014064D02*
X006364Y014064D01*
X007012Y014064D02*
X007487Y014064D01*
X007487Y014006D02*
X007028Y014006D01*
X007028Y013947D02*
X007487Y013947D01*
X007487Y013889D02*
X007028Y013889D01*
X007028Y013830D02*
X007487Y013830D01*
X007487Y013772D02*
X007028Y013772D01*
X007028Y013713D02*
X007433Y013713D01*
X007261Y013655D02*
X007028Y013655D01*
X007028Y013596D02*
X007202Y013596D01*
X007171Y013537D02*
X007028Y013537D01*
X007028Y013479D02*
X007171Y013479D01*
X007171Y013420D02*
X007062Y013420D01*
X007068Y013362D02*
X007199Y013362D01*
X007258Y013303D02*
X007068Y013303D01*
X007068Y013245D02*
X007683Y013245D01*
X007683Y013303D02*
X007504Y013303D01*
X007562Y013362D02*
X007683Y013362D01*
X007696Y013420D02*
X007591Y013420D01*
X007591Y013479D02*
X007723Y013479D01*
X007723Y013537D02*
X007625Y013537D01*
X007683Y013596D02*
X007723Y013596D01*
X007729Y013186D02*
X007068Y013186D01*
X007064Y013128D02*
X007788Y013128D01*
X007997Y013128D02*
X009703Y013128D01*
X009688Y013069D02*
X007030Y013069D01*
X007244Y013011D02*
X009688Y013011D01*
X009728Y013186D02*
X008056Y013186D01*
X008103Y013245D02*
X009728Y013245D01*
X009728Y013303D02*
X008103Y013303D01*
X008103Y013362D02*
X009728Y013362D01*
X009730Y013420D02*
X008329Y013420D01*
X008388Y013479D02*
X009728Y013479D01*
X009728Y013537D02*
X008418Y013537D01*
X008418Y013596D02*
X009728Y013596D01*
X009728Y013655D02*
X008418Y013655D01*
X008387Y013713D02*
X009728Y013713D01*
X009728Y013772D02*
X008338Y013772D01*
X008338Y013830D02*
X009728Y013830D01*
X009728Y013889D02*
X008338Y013889D01*
X008338Y013947D02*
X009728Y013947D01*
X009728Y014006D02*
X008338Y014006D01*
X008338Y014064D02*
X009744Y014064D01*
X009660Y014181D02*
X011857Y014181D01*
X011857Y014123D02*
X008338Y014123D01*
X009007Y014825D02*
X009015Y014825D01*
X009007Y014884D02*
X011857Y014884D01*
X011857Y014942D02*
X009030Y014942D01*
X009088Y015001D02*
X011857Y015001D01*
X011857Y015060D02*
X009147Y015060D01*
X009205Y015118D02*
X011857Y015118D01*
X011857Y015177D02*
X009264Y015177D01*
X009322Y015235D02*
X011857Y015235D01*
X011857Y015294D02*
X009381Y015294D01*
X009401Y015352D02*
X011857Y015352D01*
X011857Y015411D02*
X009401Y015411D01*
X009401Y015469D02*
X011857Y015469D01*
X011857Y015528D02*
X009401Y015528D01*
X009401Y015586D02*
X011857Y015586D01*
X011857Y015645D02*
X009401Y015645D01*
X009401Y015704D02*
X011857Y015704D01*
X011857Y015762D02*
X009401Y015762D01*
X009401Y015821D02*
X011857Y015821D01*
X011857Y015879D02*
X009401Y015879D01*
X009401Y015938D02*
X011857Y015938D01*
X011857Y015996D02*
X009401Y015996D01*
X009401Y016055D02*
X011857Y016055D01*
X011857Y016113D02*
X009401Y016113D01*
X009401Y016172D02*
X011857Y016172D01*
X011857Y016230D02*
X009401Y016230D01*
X009401Y016289D02*
X011857Y016289D01*
X011857Y016348D02*
X009401Y016348D01*
X009401Y016406D02*
X011857Y016406D01*
X011857Y016465D02*
X009401Y016465D01*
X009401Y016523D02*
X011857Y016523D01*
X011857Y016582D02*
X009401Y016582D01*
X009401Y016640D02*
X011857Y016640D01*
X011857Y016699D02*
X009401Y016699D01*
X009401Y016757D02*
X011857Y016757D01*
X011857Y016816D02*
X009401Y016816D01*
X009401Y016874D02*
X011857Y016874D01*
X011857Y016933D02*
X009408Y016933D01*
X009459Y016991D02*
X011857Y016991D01*
X011857Y017050D02*
X009459Y017050D01*
X009459Y017109D02*
X011857Y017109D01*
X011857Y017167D02*
X009758Y017167D01*
X009817Y017226D02*
X011857Y017226D01*
X011857Y017284D02*
X009875Y017284D01*
X009934Y017343D02*
X011857Y017343D01*
X011857Y017401D02*
X009992Y017401D01*
X010051Y017460D02*
X011857Y017460D01*
X011857Y017518D02*
X010109Y017518D01*
X010168Y017577D02*
X011857Y017577D01*
X011857Y017635D02*
X010227Y017635D01*
X010285Y017694D02*
X011857Y017694D01*
X011857Y017753D02*
X010344Y017753D01*
X010402Y017811D02*
X011857Y017811D01*
X011857Y017870D02*
X010461Y017870D01*
X010519Y017928D02*
X011857Y017928D01*
X011857Y017987D02*
X010578Y017987D01*
X010636Y018045D02*
X011857Y018045D01*
X011857Y018104D02*
X010695Y018104D01*
X010753Y018162D02*
X011857Y018162D01*
X011857Y018221D02*
X010812Y018221D01*
X010857Y018279D02*
X011857Y018279D01*
X011857Y018338D02*
X010857Y018338D01*
X010857Y018397D02*
X011857Y018397D01*
X011857Y018455D02*
X010857Y018455D01*
X010857Y018514D02*
X011857Y018514D01*
X011857Y018572D02*
X010857Y018572D01*
X010857Y018631D02*
X011857Y018631D01*
X011857Y018689D02*
X010857Y018689D01*
X010857Y018748D02*
X011857Y018748D01*
X011857Y018806D02*
X010857Y018806D01*
X010857Y018865D02*
X011857Y018865D01*
X011857Y018923D02*
X010857Y018923D01*
X010857Y018982D02*
X011857Y018982D01*
X011857Y019041D02*
X010857Y019041D01*
X010857Y019099D02*
X011857Y019099D01*
X011857Y019158D02*
X010857Y019158D01*
X010857Y019216D02*
X011857Y019216D01*
X011857Y019275D02*
X010967Y019275D01*
X010986Y019333D02*
X011857Y019333D01*
X011857Y019392D02*
X010986Y019392D01*
X010986Y019450D02*
X011857Y019450D01*
X011857Y019509D02*
X010986Y019509D01*
X010986Y019567D02*
X011857Y019567D01*
X011857Y019626D02*
X010986Y019626D01*
X010986Y019684D02*
X011857Y019684D01*
X011857Y019743D02*
X010986Y019743D01*
X010986Y019802D02*
X011857Y019802D01*
X011857Y019860D02*
X010986Y019860D01*
X010986Y019919D02*
X011857Y019919D01*
X011857Y019977D02*
X010986Y019977D01*
X010986Y020036D02*
X011857Y020036D01*
X011857Y020094D02*
X010986Y020094D01*
X010986Y020153D02*
X011857Y020153D01*
X011857Y020211D02*
X010396Y020211D01*
X010396Y020153D02*
X010531Y020153D01*
X010531Y020094D02*
X010396Y020094D01*
X010396Y020036D02*
X010531Y020036D01*
X010531Y019977D02*
X010396Y019977D01*
X010396Y019919D02*
X010531Y019919D01*
X010531Y019860D02*
X010396Y019860D01*
X010396Y019802D02*
X010531Y019802D01*
X010531Y019743D02*
X010396Y019743D01*
X010396Y019684D02*
X010531Y019684D01*
X010531Y019626D02*
X010396Y019626D01*
X010396Y019567D02*
X010531Y019567D01*
X010531Y019509D02*
X010396Y019509D01*
X010396Y019450D02*
X010531Y019450D01*
X010531Y019392D02*
X010396Y019392D01*
X010396Y019333D02*
X010531Y019333D01*
X010551Y019275D02*
X010376Y019275D01*
X010597Y019216D02*
X009775Y019216D01*
X009766Y019211D02*
X009795Y019228D01*
X009819Y019252D01*
X009837Y019282D01*
X009845Y019315D01*
X009845Y019696D01*
X009608Y019696D01*
X009608Y019755D01*
X009845Y019755D01*
X009845Y020136D01*
X009837Y020169D01*
X009819Y020199D01*
X009795Y020223D01*
X009766Y020240D01*
X009733Y020249D01*
X009608Y020249D01*
X009608Y019756D01*
X009548Y019756D01*
X009548Y020249D01*
X009423Y020249D01*
X009390Y020240D01*
X009360Y020223D01*
X009336Y020199D01*
X009319Y020169D01*
X009310Y020136D01*
X009310Y019755D01*
X009547Y019755D01*
X009547Y019696D01*
X009310Y019696D01*
X009310Y019315D01*
X009319Y019282D01*
X009336Y019252D01*
X009360Y019228D01*
X009390Y019211D01*
X009423Y019202D01*
X009548Y019202D01*
X009548Y019695D01*
X009608Y019695D01*
X009608Y019202D01*
X009733Y019202D01*
X009766Y019211D01*
X009833Y019275D02*
X009960Y019275D01*
X009940Y019333D02*
X009845Y019333D01*
X009845Y019392D02*
X009940Y019392D01*
X009940Y019450D02*
X009845Y019450D01*
X009845Y019509D02*
X009940Y019509D01*
X009940Y019567D02*
X009845Y019567D01*
X009845Y019626D02*
X009940Y019626D01*
X009940Y019684D02*
X009845Y019684D01*
X009940Y019743D02*
X009608Y019743D01*
X009608Y019684D02*
X009548Y019684D01*
X009548Y019626D02*
X009608Y019626D01*
X009608Y019567D02*
X009548Y019567D01*
X009548Y019509D02*
X009608Y019509D01*
X009608Y019450D02*
X009548Y019450D01*
X009548Y019392D02*
X009608Y019392D01*
X009608Y019333D02*
X009548Y019333D01*
X009548Y019275D02*
X009608Y019275D01*
X009608Y019216D02*
X009548Y019216D01*
X009380Y019216D02*
X009007Y019216D01*
X009007Y019158D02*
X010597Y019158D01*
X010597Y019099D02*
X009007Y019099D01*
X009007Y019041D02*
X010597Y019041D01*
X010597Y018982D02*
X010270Y018982D01*
X010263Y018990D02*
X010225Y019015D01*
X010184Y019032D01*
X010139Y019041D01*
X009852Y019041D01*
X009852Y018547D01*
X010345Y018547D01*
X010345Y018835D01*
X010337Y018879D01*
X010319Y018920D01*
X010294Y018958D01*
X010263Y018990D01*
X010317Y018923D02*
X010597Y018923D01*
X010597Y018865D02*
X010339Y018865D01*
X010345Y018806D02*
X010597Y018806D01*
X010597Y018748D02*
X010345Y018748D01*
X010345Y018689D02*
X010597Y018689D01*
X010597Y018631D02*
X010345Y018631D01*
X010345Y018572D02*
X010597Y018572D01*
X010597Y018514D02*
X009852Y018514D01*
X009852Y018487D02*
X009852Y018547D01*
X009792Y018547D01*
X009792Y019041D01*
X009504Y019041D01*
X009460Y019032D01*
X009418Y019015D01*
X009381Y018990D01*
X009349Y018958D01*
X009324Y018920D01*
X009307Y018879D01*
X009298Y018835D01*
X009298Y018547D01*
X009792Y018547D01*
X009792Y018487D01*
X009852Y018487D01*
X010345Y018487D01*
X010345Y018199D01*
X010337Y018155D01*
X010319Y018113D01*
X010294Y018076D01*
X010263Y018044D01*
X010225Y018019D01*
X010184Y018002D01*
X010139Y017993D01*
X009852Y017993D01*
X009852Y018487D01*
X009852Y018455D02*
X009792Y018455D01*
X009792Y018487D02*
X009792Y017993D01*
X009504Y017993D01*
X009460Y018002D01*
X009418Y018019D01*
X009381Y018044D01*
X009349Y018076D01*
X009324Y018113D01*
X009307Y018155D01*
X009298Y018199D01*
X009298Y018487D01*
X009792Y018487D01*
X009792Y018514D02*
X009007Y018514D01*
X009007Y018572D02*
X009298Y018572D01*
X009298Y018631D02*
X009007Y018631D01*
X009007Y018689D02*
X009298Y018689D01*
X009298Y018748D02*
X009007Y018748D01*
X009007Y018806D02*
X009298Y018806D01*
X009304Y018865D02*
X009007Y018865D01*
X009007Y018923D02*
X009326Y018923D01*
X009373Y018982D02*
X009007Y018982D01*
X008747Y018982D02*
X006424Y018982D01*
X006424Y019041D02*
X008747Y019041D01*
X008747Y019099D02*
X006424Y019099D01*
X006424Y019158D02*
X008747Y019158D01*
X008747Y019216D02*
X006424Y019216D01*
X006424Y019275D02*
X008747Y019275D01*
X008747Y019333D02*
X006424Y019333D01*
X006424Y019392D02*
X008747Y019392D01*
X008747Y019450D02*
X006424Y019450D01*
X006424Y019509D02*
X008747Y019509D01*
X008747Y019567D02*
X006424Y019567D01*
X006424Y019626D02*
X008747Y019626D01*
X008759Y019684D02*
X006424Y019684D01*
X006424Y019743D02*
X008759Y019743D01*
X008759Y019802D02*
X006424Y019802D01*
X006424Y019860D02*
X008759Y019860D01*
X008759Y019919D02*
X006424Y019919D01*
X006424Y019977D02*
X008759Y019977D01*
X008759Y020036D02*
X006424Y020036D01*
X006164Y020036D02*
X005167Y020036D01*
X005108Y019977D02*
X006164Y019977D01*
X006164Y019919D02*
X005050Y019919D01*
X004991Y019860D02*
X006164Y019860D01*
X006164Y019802D02*
X004933Y019802D01*
X004874Y019743D02*
X006164Y019743D01*
X006164Y019684D02*
X004816Y019684D01*
X004757Y019626D02*
X006164Y019626D01*
X006164Y019567D02*
X004699Y019567D01*
X004640Y019509D02*
X006164Y019509D01*
X006164Y019450D02*
X004617Y019450D01*
X004617Y019392D02*
X006164Y019392D01*
X006164Y019333D02*
X004617Y019333D01*
X004617Y019275D02*
X006164Y019275D01*
X006164Y019216D02*
X004617Y019216D01*
X004617Y019158D02*
X006164Y019158D01*
X006164Y019099D02*
X004617Y019099D01*
X004617Y019041D02*
X006164Y019041D01*
X006164Y018982D02*
X004702Y018982D01*
X004760Y018923D02*
X006164Y018923D01*
X006164Y018865D02*
X004794Y018865D01*
X004794Y018806D02*
X006164Y018806D01*
X006164Y018748D02*
X004794Y018748D01*
X004794Y018689D02*
X006164Y018689D01*
X006164Y018631D02*
X004794Y018631D01*
X004794Y018572D02*
X006164Y018572D01*
X006164Y018514D02*
X004794Y018514D01*
X004794Y018455D02*
X006164Y018455D01*
X006164Y018397D02*
X004794Y018397D01*
X004794Y018338D02*
X006164Y018338D01*
X006164Y018279D02*
X004794Y018279D01*
X004794Y018221D02*
X006164Y018221D01*
X006134Y018162D02*
X004794Y018162D01*
X004754Y018104D02*
X006075Y018104D01*
X006017Y018045D02*
X004695Y018045D01*
X004713Y017577D02*
X004773Y017577D01*
X004773Y017518D02*
X004713Y017518D01*
X004713Y017460D02*
X004773Y017460D01*
X004773Y017401D02*
X004713Y017401D01*
X004713Y017343D02*
X004773Y017343D01*
X004773Y017167D02*
X004713Y017167D01*
X004713Y017109D02*
X004773Y017109D01*
X004773Y017050D02*
X004713Y017050D01*
X004713Y016991D02*
X004773Y016991D01*
X004773Y016933D02*
X004713Y016933D01*
X004713Y016874D02*
X004773Y016874D01*
X005073Y016699D02*
X005121Y016699D01*
X005121Y016640D02*
X005073Y016640D01*
X005073Y016582D02*
X005121Y016582D01*
X005121Y016523D02*
X005073Y016523D01*
X005073Y016465D02*
X005121Y016465D01*
X005582Y016757D02*
X007935Y016757D01*
X007921Y016699D02*
X005635Y016699D01*
X005670Y016640D02*
X007921Y016640D01*
X007921Y016289D02*
X006715Y016289D01*
X006656Y016230D02*
X007921Y016230D01*
X007945Y016172D02*
X006598Y016172D01*
X006539Y016113D02*
X007958Y016113D01*
X007958Y016055D02*
X006481Y016055D01*
X006422Y015996D02*
X007944Y015996D01*
X007886Y015938D02*
X006363Y015938D01*
X006305Y015879D02*
X007827Y015879D01*
X007768Y015821D02*
X006246Y015821D01*
X006188Y015762D02*
X007710Y015762D01*
X007651Y015704D02*
X006129Y015704D01*
X006071Y015645D02*
X007593Y015645D01*
X007534Y015586D02*
X006012Y015586D01*
X005954Y015528D02*
X007487Y015528D01*
X007487Y015469D02*
X005895Y015469D01*
X005837Y015411D02*
X007487Y015411D01*
X007487Y015352D02*
X005778Y015352D01*
X005719Y015294D02*
X007487Y015294D01*
X007487Y015235D02*
X005670Y015235D01*
X005670Y015177D02*
X007487Y015177D01*
X007487Y015118D02*
X005670Y015118D01*
X005635Y015060D02*
X007487Y015060D01*
X007487Y015001D02*
X005582Y015001D01*
X005582Y014942D02*
X007487Y014942D01*
X007487Y014884D02*
X005649Y014884D01*
X005699Y014825D02*
X007125Y014825D01*
X007076Y014767D02*
X005699Y014767D01*
X005699Y014708D02*
X007076Y014708D01*
X007076Y014650D02*
X005699Y014650D01*
X005699Y014591D02*
X007076Y014591D01*
X007076Y014533D02*
X005699Y014533D01*
X005699Y014474D02*
X007076Y014474D01*
X007076Y014416D02*
X005699Y014416D01*
X005699Y014357D02*
X007076Y014357D01*
X007076Y014299D02*
X005699Y014299D01*
X005652Y014240D02*
X007076Y014240D01*
X007096Y014181D02*
X005621Y014181D01*
X005621Y014123D02*
X007487Y014123D01*
X007440Y014825D02*
X007426Y014825D01*
X006289Y016230D02*
X005670Y016230D01*
X005670Y016172D02*
X006230Y016172D01*
X006171Y016113D02*
X005666Y016113D01*
X005601Y016055D02*
X006113Y016055D01*
X006054Y015996D02*
X005601Y015996D01*
X005576Y015938D02*
X005996Y015938D01*
X005937Y015879D02*
X005517Y015879D01*
X005665Y015645D02*
X005703Y015645D01*
X005762Y015704D02*
X003889Y015704D01*
X003889Y015762D02*
X005820Y015762D01*
X005879Y015821D02*
X003883Y015821D01*
X003972Y015645D02*
X004529Y015645D01*
X004525Y015586D02*
X003977Y015586D01*
X003977Y015528D02*
X004525Y015528D01*
X004525Y015469D02*
X003977Y015469D01*
X003977Y015411D02*
X004525Y015411D01*
X004525Y015352D02*
X003977Y015352D01*
X003977Y015294D02*
X004525Y015294D01*
X004525Y015235D02*
X003977Y015235D01*
X003977Y015177D02*
X004525Y015177D01*
X004525Y015118D02*
X003977Y015118D01*
X003943Y015060D02*
X004559Y015060D01*
X004568Y014926D02*
X004535Y014917D01*
X004506Y014900D01*
X004481Y014876D01*
X004464Y014847D01*
X004456Y014814D01*
X004456Y014590D01*
X004713Y014590D01*
X004713Y014926D01*
X004568Y014926D01*
X004489Y014884D02*
X004012Y014884D01*
X004043Y014825D02*
X004459Y014825D01*
X004456Y014767D02*
X004046Y014767D01*
X004046Y014708D02*
X004456Y014708D01*
X004456Y014650D02*
X004046Y014650D01*
X004046Y014591D02*
X004456Y014591D01*
X004456Y014474D02*
X004046Y014474D01*
X004046Y014416D02*
X004456Y014416D01*
X004456Y014357D02*
X004046Y014357D01*
X004044Y014299D02*
X004458Y014299D01*
X004486Y014240D02*
X004016Y014240D01*
X003789Y014240D02*
X003729Y014240D01*
X003729Y014299D02*
X003789Y014299D01*
X003789Y014357D02*
X003729Y014357D01*
X003729Y014416D02*
X003789Y014416D01*
X003789Y014474D02*
X003729Y014474D01*
X003729Y014650D02*
X003789Y014650D01*
X003789Y014708D02*
X003729Y014708D01*
X003729Y014767D02*
X003789Y014767D01*
X003789Y014825D02*
X003729Y014825D01*
X003729Y014884D02*
X003789Y014884D01*
X003471Y014474D02*
X003298Y014474D01*
X003298Y014416D02*
X003471Y014416D01*
X003471Y014357D02*
X003298Y014357D01*
X003298Y014299D02*
X003473Y014299D01*
X003501Y014240D02*
X003251Y014240D01*
X002849Y014240D02*
X002520Y014240D01*
X002520Y014299D02*
X002803Y014299D01*
X002803Y014357D02*
X002520Y014357D01*
X002513Y014181D02*
X005361Y014181D01*
X005361Y014123D02*
X001762Y014123D01*
X001820Y014064D02*
X005361Y014064D01*
X005361Y014006D02*
X001879Y014006D01*
X001937Y013947D02*
X005361Y013947D01*
X005361Y013889D02*
X001996Y013889D01*
X001999Y013830D02*
X005361Y013830D01*
X005361Y013772D02*
X001999Y013772D01*
X001999Y013713D02*
X005361Y013713D01*
X005361Y013655D02*
X001999Y013655D01*
X001999Y013596D02*
X005361Y013596D01*
X005361Y013537D02*
X001999Y013537D01*
X001999Y013479D02*
X005361Y013479D01*
X005361Y013420D02*
X001999Y013420D01*
X001999Y013362D02*
X005361Y013362D01*
X005361Y013303D02*
X001999Y013303D01*
X001999Y013245D02*
X005361Y013245D01*
X005361Y013186D02*
X001999Y013186D01*
X001999Y013128D02*
X005361Y013128D01*
X005361Y013069D02*
X001999Y013069D01*
X001999Y013011D02*
X005361Y013011D01*
X005361Y012952D02*
X001999Y012952D01*
X001999Y012893D02*
X005361Y012893D01*
X005361Y012835D02*
X001999Y012835D01*
X001999Y012776D02*
X005361Y012776D01*
X005361Y012718D02*
X001999Y012718D01*
X001999Y012659D02*
X005361Y012659D01*
X005361Y012601D02*
X001999Y012601D01*
X001999Y012542D02*
X005361Y012542D01*
X005361Y012484D02*
X001999Y012484D01*
X001999Y012425D02*
X005361Y012425D01*
X005361Y012367D02*
X002017Y012367D01*
X002076Y012308D02*
X005361Y012308D01*
X005361Y012249D02*
X002079Y012249D01*
X002079Y012191D02*
X005320Y012191D01*
X005261Y012132D02*
X002079Y012132D01*
X002022Y012074D02*
X005203Y012074D01*
X005570Y012074D02*
X006187Y012074D01*
X006246Y012132D02*
X005629Y012132D01*
X005688Y012191D02*
X006348Y012191D01*
X007068Y012718D02*
X007169Y012718D01*
X007111Y012776D02*
X007066Y012776D01*
X008036Y010727D02*
X009022Y010727D01*
X009022Y010669D02*
X008036Y010669D01*
X008036Y010610D02*
X009022Y010610D01*
X009022Y010552D02*
X008036Y010552D01*
X008036Y010493D02*
X009022Y010493D01*
X009022Y010435D02*
X008036Y010435D01*
X008036Y010376D02*
X008046Y010376D01*
X008036Y010318D02*
X008039Y010318D01*
X008036Y010259D02*
X008039Y010259D01*
X008036Y010200D02*
X008039Y010200D01*
X008036Y010142D02*
X008039Y010142D01*
X008036Y010083D02*
X008039Y010083D01*
X008036Y010025D02*
X008039Y010025D01*
X008036Y009966D02*
X008039Y009966D01*
X008036Y009908D02*
X008039Y009908D01*
X008036Y009849D02*
X008039Y009849D01*
X008036Y009791D02*
X008070Y009791D01*
X008036Y009732D02*
X008196Y009732D01*
X008196Y009674D02*
X008036Y009674D01*
X008036Y009615D02*
X008196Y009615D01*
X008196Y009556D02*
X008036Y009556D01*
X008036Y009498D02*
X008196Y009498D01*
X008196Y009439D02*
X008036Y009439D01*
X008036Y009381D02*
X008196Y009381D01*
X008196Y009322D02*
X008036Y009322D01*
X008036Y009264D02*
X008196Y009264D01*
X008196Y009205D02*
X008036Y009205D01*
X008036Y009147D02*
X008196Y009147D01*
X008196Y009088D02*
X008036Y009088D01*
X008036Y009030D02*
X008196Y009030D01*
X008196Y008971D02*
X008036Y008971D01*
X008036Y008913D02*
X008196Y008913D01*
X008196Y008854D02*
X008036Y008854D01*
X008036Y008795D02*
X008196Y008795D01*
X008196Y008737D02*
X008036Y008737D01*
X008036Y008678D02*
X008196Y008678D01*
X008196Y008620D02*
X008036Y008620D01*
X008036Y008561D02*
X008196Y008561D01*
X008196Y008503D02*
X008036Y008503D01*
X008036Y008444D02*
X008196Y008444D01*
X008196Y008386D02*
X008036Y008386D01*
X008036Y008327D02*
X008196Y008327D01*
X008196Y008269D02*
X008036Y008269D01*
X008036Y008210D02*
X008196Y008210D01*
X008196Y008151D02*
X008036Y008151D01*
X008036Y008093D02*
X008196Y008093D01*
X008196Y008034D02*
X008036Y008034D01*
X008036Y007976D02*
X008196Y007976D01*
X008196Y007917D02*
X008036Y007917D01*
X008036Y007859D02*
X008196Y007859D01*
X008196Y007800D02*
X008036Y007800D01*
X008036Y007742D02*
X008196Y007742D01*
X008196Y007683D02*
X008036Y007683D01*
X008036Y007625D02*
X008196Y007625D01*
X008196Y007566D02*
X008036Y007566D01*
X008036Y007507D02*
X008196Y007507D01*
X008196Y007449D02*
X008036Y007449D01*
X008036Y007390D02*
X008196Y007390D01*
X008196Y007332D02*
X008036Y007332D01*
X008036Y007273D02*
X008196Y007273D01*
X008196Y007215D02*
X008036Y007215D01*
X008036Y007156D02*
X008196Y007156D01*
X008196Y007098D02*
X008036Y007098D01*
X008036Y007039D02*
X008196Y007039D01*
X008196Y006981D02*
X008036Y006981D01*
X008036Y006922D02*
X008196Y006922D01*
X008220Y006864D02*
X008036Y006864D01*
X008036Y006805D02*
X008234Y006805D01*
X008234Y006746D02*
X008036Y006746D01*
X008036Y006688D02*
X008283Y006688D01*
X008341Y006629D02*
X008036Y006629D01*
X007776Y006629D02*
X000503Y006629D01*
X000503Y006571D02*
X007776Y006571D01*
X007776Y006512D02*
X000503Y006512D01*
X000503Y006454D02*
X007776Y006454D01*
X007776Y006395D02*
X000503Y006395D01*
X000503Y006337D02*
X007776Y006337D01*
X007776Y006278D02*
X000503Y006278D01*
X000503Y006220D02*
X007776Y006220D01*
X007776Y006161D02*
X000503Y006161D01*
X000503Y006102D02*
X007776Y006102D01*
X007776Y006044D02*
X000503Y006044D01*
X000503Y005985D02*
X007776Y005985D01*
X007776Y005927D02*
X000503Y005927D01*
X000503Y005868D02*
X007776Y005868D01*
X007776Y005810D02*
X000503Y005810D01*
X000503Y005751D02*
X007776Y005751D01*
X007776Y005693D02*
X000503Y005693D01*
X000503Y005634D02*
X007776Y005634D01*
X007776Y005576D02*
X000503Y005576D01*
X000503Y005517D02*
X007776Y005517D01*
X007776Y005458D02*
X000503Y005458D01*
X000503Y005400D02*
X007776Y005400D01*
X007776Y005341D02*
X000503Y005341D01*
X000503Y005283D02*
X007776Y005283D01*
X007776Y005224D02*
X000503Y005224D01*
X000503Y005166D02*
X007776Y005166D01*
X007776Y005107D02*
X000503Y005107D01*
X000503Y005049D02*
X007776Y005049D01*
X007776Y004990D02*
X000503Y004990D01*
X000503Y004932D02*
X007776Y004932D01*
X007776Y004873D02*
X000503Y004873D01*
X000503Y004814D02*
X007776Y004814D01*
X007776Y004756D02*
X000503Y004756D01*
X000503Y004697D02*
X007776Y004697D01*
X007776Y004639D02*
X000503Y004639D01*
X000503Y004580D02*
X007776Y004580D01*
X007776Y004522D02*
X000503Y004522D01*
X000503Y004463D02*
X007776Y004463D01*
X007776Y004405D02*
X000503Y004405D01*
X000503Y004346D02*
X007776Y004346D01*
X007776Y004288D02*
X000503Y004288D01*
X000503Y004229D02*
X007776Y004229D01*
X007776Y004171D02*
X000503Y004171D01*
X000503Y004112D02*
X007827Y004112D01*
X007893Y004053D02*
X000503Y004053D01*
X000503Y003995D02*
X007921Y003995D01*
X007946Y003756D02*
X007893Y003704D01*
X007893Y003314D01*
X007916Y003291D01*
X007760Y003135D01*
X007684Y003059D01*
X007684Y001327D01*
X007684Y001219D01*
X007992Y000911D01*
X007992Y000487D01*
X008044Y000435D01*
X008552Y000435D01*
X008566Y000449D01*
X008568Y000445D01*
X008592Y000421D01*
X008622Y000404D01*
X008655Y000395D01*
X008859Y000395D01*
X008859Y000790D01*
X008919Y000790D01*
X008919Y000850D01*
X009235Y000850D01*
X009235Y001132D01*
X009226Y001165D01*
X009209Y001195D01*
X009185Y001219D01*
X009155Y001236D01*
X009122Y001245D01*
X008919Y001245D01*
X008919Y000850D01*
X008859Y000850D01*
X008859Y001245D01*
X008655Y001245D01*
X008622Y001236D01*
X008592Y001219D01*
X008568Y001195D01*
X008566Y001191D01*
X008552Y001205D01*
X008065Y001205D01*
X007944Y001327D01*
X007944Y002951D01*
X008254Y003261D01*
X008493Y003261D01*
X008546Y003314D01*
X008546Y003704D01*
X008493Y003756D01*
X007946Y003756D01*
X007893Y003702D02*
X000503Y003702D01*
X000503Y003644D02*
X007893Y003644D01*
X007893Y003585D02*
X000503Y003585D01*
X000503Y003527D02*
X007893Y003527D01*
X007893Y003468D02*
X000503Y003468D01*
X000503Y003409D02*
X007893Y003409D01*
X007893Y003351D02*
X000503Y003351D01*
X000503Y003292D02*
X007915Y003292D01*
X007859Y003234D02*
X000503Y003234D01*
X000503Y003175D02*
X007800Y003175D01*
X007742Y003117D02*
X000503Y003117D01*
X000503Y003058D02*
X007684Y003058D01*
X007684Y003000D02*
X000503Y003000D01*
X000503Y002941D02*
X007684Y002941D01*
X007684Y002883D02*
X000503Y002883D01*
X000503Y002824D02*
X007684Y002824D01*
X007684Y002765D02*
X000503Y002765D01*
X000503Y002707D02*
X007684Y002707D01*
X007684Y002648D02*
X000503Y002648D01*
X000503Y002590D02*
X007684Y002590D01*
X007684Y002531D02*
X000503Y002531D01*
X000503Y002473D02*
X007684Y002473D01*
X007684Y002414D02*
X000503Y002414D01*
X000503Y002356D02*
X007684Y002356D01*
X007684Y002297D02*
X000503Y002297D01*
X000503Y002239D02*
X007684Y002239D01*
X007684Y002180D02*
X000503Y002180D01*
X000503Y002121D02*
X007684Y002121D01*
X007684Y002063D02*
X000503Y002063D01*
X000503Y002004D02*
X007684Y002004D01*
X007684Y001946D02*
X000503Y001946D01*
X000503Y001887D02*
X007684Y001887D01*
X007684Y001829D02*
X000503Y001829D01*
X000503Y001770D02*
X007684Y001770D01*
X007684Y001712D02*
X000503Y001712D01*
X000503Y001653D02*
X007684Y001653D01*
X007684Y001595D02*
X000503Y001595D01*
X000503Y001536D02*
X007684Y001536D01*
X007684Y001478D02*
X000503Y001478D01*
X000503Y001419D02*
X007684Y001419D01*
X007684Y001360D02*
X000503Y001360D01*
X000503Y001302D02*
X007684Y001302D01*
X007684Y001243D02*
X000503Y001243D01*
X000503Y001185D02*
X007718Y001185D01*
X007776Y001126D02*
X000503Y001126D01*
X000503Y001068D02*
X007835Y001068D01*
X007894Y001009D02*
X000503Y001009D01*
X000503Y000951D02*
X007952Y000951D01*
X007992Y000892D02*
X000503Y000892D01*
X000503Y000834D02*
X007992Y000834D01*
X007992Y000775D02*
X000503Y000775D01*
X000503Y000716D02*
X007992Y000716D01*
X007992Y000658D02*
X000503Y000658D01*
X000503Y000599D02*
X007992Y000599D01*
X007992Y000541D02*
X000503Y000541D01*
X000503Y000482D02*
X007997Y000482D01*
X008027Y001243D02*
X008648Y001243D01*
X008678Y001281D02*
X008834Y001345D01*
X008954Y001465D01*
X009019Y001621D01*
X009019Y001790D01*
X008954Y001947D01*
X008834Y002066D01*
X008678Y002131D01*
X008509Y002131D01*
X008352Y002066D01*
X008233Y001947D01*
X008168Y001790D01*
X008168Y001621D01*
X008233Y001465D01*
X008352Y001345D01*
X008509Y001281D01*
X008678Y001281D01*
X008729Y001302D02*
X009298Y001302D01*
X009298Y001360D02*
X008849Y001360D01*
X008908Y001419D02*
X009298Y001419D01*
X009298Y001478D02*
X008959Y001478D01*
X008983Y001536D02*
X009298Y001536D01*
X009298Y001595D02*
X009008Y001595D01*
X009019Y001653D02*
X009298Y001653D01*
X009298Y001618D02*
X009298Y001618D01*
X009298Y001712D02*
X009019Y001712D01*
X009019Y001770D02*
X009300Y001770D01*
X009298Y001763D02*
X009298Y001763D01*
X009319Y001829D02*
X009003Y001829D01*
X008979Y001887D02*
X009338Y001887D01*
X009357Y001946D02*
X008954Y001946D01*
X008896Y002004D02*
X009376Y002004D01*
X009396Y002063D02*
X008838Y002063D01*
X008701Y002121D02*
X009415Y002121D01*
X009421Y002141D02*
X009421Y002141D01*
X009449Y002180D02*
X008573Y002180D01*
X008565Y002175D02*
X008594Y002192D01*
X008619Y002217D01*
X008621Y002220D01*
X008635Y002206D01*
X009142Y002206D01*
X009195Y002259D01*
X009195Y002746D01*
X009204Y002754D01*
X009204Y002862D01*
X009204Y003273D01*
X009355Y003273D01*
X009408Y003326D01*
X009408Y003716D01*
X009355Y003768D01*
X008808Y003768D01*
X008755Y003716D01*
X008755Y003326D01*
X008808Y003273D01*
X008944Y003273D01*
X008944Y002977D01*
X008635Y002977D01*
X008621Y002963D01*
X008619Y002967D01*
X008594Y002991D01*
X008565Y003008D01*
X008532Y003017D01*
X008328Y003017D01*
X008328Y002622D01*
X008268Y002622D01*
X008268Y003017D01*
X008064Y003017D01*
X008031Y003008D01*
X008002Y002991D01*
X007978Y002967D01*
X007960Y002937D01*
X007952Y002904D01*
X007952Y002622D01*
X008268Y002622D01*
X008268Y002562D01*
X007952Y002562D01*
X007952Y002279D01*
X007960Y002246D01*
X007978Y002217D01*
X008002Y002192D01*
X008031Y002175D01*
X008064Y002166D01*
X008268Y002166D01*
X008268Y002561D01*
X008328Y002561D01*
X008328Y002166D01*
X008532Y002166D01*
X008565Y002175D01*
X008486Y002121D02*
X007944Y002121D01*
X007944Y002063D02*
X008349Y002063D01*
X008291Y002004D02*
X007944Y002004D01*
X007944Y001946D02*
X008233Y001946D01*
X008208Y001887D02*
X007944Y001887D01*
X007944Y001829D02*
X008184Y001829D01*
X008168Y001770D02*
X007944Y001770D01*
X007944Y001712D02*
X008168Y001712D01*
X008168Y001653D02*
X007944Y001653D01*
X007944Y001595D02*
X008179Y001595D01*
X008203Y001536D02*
X007944Y001536D01*
X007944Y001478D02*
X008228Y001478D01*
X008279Y001419D02*
X007944Y001419D01*
X007944Y001360D02*
X008337Y001360D01*
X008457Y001302D02*
X007969Y001302D01*
X007944Y002180D02*
X008023Y002180D01*
X007965Y002239D02*
X007944Y002239D01*
X007944Y002297D02*
X007952Y002297D01*
X007944Y002356D02*
X007952Y002356D01*
X007944Y002414D02*
X007952Y002414D01*
X007944Y002473D02*
X007952Y002473D01*
X007944Y002531D02*
X007952Y002531D01*
X007944Y002590D02*
X008268Y002590D01*
X008268Y002648D02*
X008328Y002648D01*
X008328Y002707D02*
X008268Y002707D01*
X008268Y002765D02*
X008328Y002765D01*
X008328Y002824D02*
X008268Y002824D01*
X008268Y002883D02*
X008328Y002883D01*
X008328Y002941D02*
X008268Y002941D01*
X008268Y003000D02*
X008328Y003000D01*
X008168Y003175D02*
X008944Y003175D01*
X008944Y003117D02*
X008109Y003117D01*
X008051Y003058D02*
X008944Y003058D01*
X008944Y003000D02*
X008579Y003000D01*
X008524Y003292D02*
X008789Y003292D01*
X008755Y003351D02*
X008546Y003351D01*
X008546Y003409D02*
X008755Y003409D01*
X008755Y003468D02*
X008546Y003468D01*
X008546Y003527D02*
X008755Y003527D01*
X008755Y003585D02*
X008546Y003585D01*
X008546Y003644D02*
X008755Y003644D01*
X008755Y003702D02*
X008546Y003702D01*
X008801Y003761D02*
X000503Y003761D01*
X000503Y003819D02*
X011857Y003819D01*
X011857Y003761D02*
X009363Y003761D01*
X009408Y003702D02*
X011857Y003702D01*
X011857Y003644D02*
X009408Y003644D01*
X009408Y003585D02*
X011857Y003585D01*
X011857Y003527D02*
X009408Y003527D01*
X009408Y003468D02*
X011857Y003468D01*
X011857Y003409D02*
X009408Y003409D01*
X009408Y003351D02*
X011857Y003351D01*
X011857Y003292D02*
X009374Y003292D01*
X009204Y003234D02*
X011857Y003234D01*
X011857Y003175D02*
X009204Y003175D01*
X009204Y003117D02*
X011857Y003117D01*
X011857Y003058D02*
X009204Y003058D01*
X009204Y003000D02*
X011857Y003000D01*
X011857Y002941D02*
X009204Y002941D01*
X009204Y002883D02*
X011857Y002883D01*
X011857Y002824D02*
X009204Y002824D01*
X009204Y002765D02*
X010187Y002765D01*
X010355Y002820D02*
X010355Y002820D01*
X010500Y002820D02*
X010500Y002820D01*
X010007Y002707D02*
X009195Y002707D01*
X009195Y002648D02*
X009910Y002648D01*
X009829Y002590D02*
X009195Y002590D01*
X009195Y002531D02*
X009749Y002531D01*
X009668Y002473D02*
X009195Y002473D01*
X009195Y002414D02*
X009619Y002414D01*
X009655Y002463D02*
X009655Y002463D01*
X009655Y002463D01*
X009577Y002356D02*
X009195Y002356D01*
X009195Y002297D02*
X009534Y002297D01*
X009492Y002239D02*
X009175Y002239D01*
X008944Y003234D02*
X008226Y003234D01*
X008017Y003000D02*
X007992Y003000D01*
X007963Y002941D02*
X007944Y002941D01*
X007944Y002883D02*
X007952Y002883D01*
X007944Y002824D02*
X007952Y002824D01*
X007944Y002765D02*
X007952Y002765D01*
X007944Y002707D02*
X007952Y002707D01*
X007944Y002648D02*
X007952Y002648D01*
X008268Y002531D02*
X008328Y002531D01*
X008328Y002473D02*
X008268Y002473D01*
X008268Y002414D02*
X008328Y002414D01*
X008328Y002356D02*
X008268Y002356D01*
X008268Y002297D02*
X008328Y002297D01*
X008328Y002239D02*
X008268Y002239D01*
X008268Y002180D02*
X008328Y002180D01*
X008859Y001243D02*
X008919Y001243D01*
X008919Y001185D02*
X008859Y001185D01*
X008859Y001126D02*
X008919Y001126D01*
X008919Y001068D02*
X008859Y001068D01*
X008859Y001009D02*
X008919Y001009D01*
X008919Y000951D02*
X008859Y000951D01*
X008859Y000892D02*
X008919Y000892D01*
X008919Y000834D02*
X009298Y000834D01*
X009298Y000892D02*
X009235Y000892D01*
X009235Y000951D02*
X009298Y000951D01*
X009298Y001009D02*
X009235Y001009D01*
X009235Y001068D02*
X009298Y001068D01*
X009298Y001126D02*
X009235Y001126D01*
X009215Y001185D02*
X009298Y001185D01*
X009298Y001243D02*
X009129Y001243D01*
X009235Y000790D02*
X008919Y000790D01*
X008919Y000395D01*
X009122Y000395D01*
X009155Y000404D01*
X009185Y000421D01*
X009209Y000445D01*
X009226Y000475D01*
X009235Y000508D01*
X009235Y000790D01*
X009235Y000775D02*
X009298Y000775D01*
X009298Y000716D02*
X009235Y000716D01*
X009235Y000658D02*
X009298Y000658D01*
X009298Y000599D02*
X009235Y000599D01*
X009235Y000541D02*
X009298Y000541D01*
X009298Y000482D02*
X009228Y000482D01*
X009188Y000424D02*
X009298Y000424D01*
X009298Y000365D02*
X000503Y000365D01*
X000503Y000307D02*
X009298Y000307D01*
X008919Y000424D02*
X008859Y000424D01*
X008859Y000482D02*
X008919Y000482D01*
X008919Y000541D02*
X008859Y000541D01*
X008859Y000599D02*
X008919Y000599D01*
X008919Y000658D02*
X008859Y000658D01*
X008859Y000716D02*
X008919Y000716D01*
X008919Y000775D02*
X008859Y000775D01*
X008589Y000424D02*
X000503Y000424D01*
X000503Y003878D02*
X011857Y003878D01*
X011857Y003936D02*
X000503Y003936D01*
X000503Y006688D02*
X007776Y006688D01*
X007776Y006746D02*
X000503Y006746D01*
X000503Y006805D02*
X007776Y006805D01*
X007776Y006864D02*
X000503Y006864D01*
X000503Y006922D02*
X007776Y006922D01*
X007776Y006981D02*
X000503Y006981D01*
X000503Y007039D02*
X007776Y007039D01*
X007776Y007098D02*
X000503Y007098D01*
X000503Y007156D02*
X007776Y007156D01*
X007776Y007215D02*
X000503Y007215D01*
X000503Y007273D02*
X007776Y007273D01*
X007776Y007332D02*
X000503Y007332D01*
X000503Y007390D02*
X007776Y007390D01*
X007776Y007449D02*
X000503Y007449D01*
X000503Y007507D02*
X007776Y007507D01*
X007776Y007566D02*
X000503Y007566D01*
X000503Y007625D02*
X007776Y007625D01*
X007776Y007683D02*
X000503Y007683D01*
X000503Y007742D02*
X007776Y007742D01*
X007776Y007800D02*
X000503Y007800D01*
X000503Y007859D02*
X007776Y007859D01*
X007776Y007917D02*
X000503Y007917D01*
X000503Y007976D02*
X007776Y007976D01*
X007776Y008034D02*
X000503Y008034D01*
X000503Y008093D02*
X007776Y008093D01*
X007776Y008151D02*
X000503Y008151D01*
X000503Y008210D02*
X007776Y008210D01*
X007776Y008269D02*
X000503Y008269D01*
X000503Y008327D02*
X007776Y008327D01*
X007776Y008386D02*
X000503Y008386D01*
X000503Y008444D02*
X007776Y008444D01*
X007776Y008503D02*
X000503Y008503D01*
X000503Y008561D02*
X007776Y008561D01*
X008456Y008561D02*
X008668Y008561D01*
X008668Y008503D02*
X008456Y008503D01*
X008456Y008444D02*
X008668Y008444D01*
X008668Y008386D02*
X008456Y008386D01*
X008456Y008327D02*
X008668Y008327D01*
X008705Y008269D02*
X008456Y008269D01*
X008456Y008210D02*
X008764Y008210D01*
X008822Y008151D02*
X008456Y008151D01*
X008456Y008093D02*
X008881Y008093D01*
X008939Y008034D02*
X008456Y008034D01*
X008456Y007976D02*
X008998Y007976D01*
X008965Y007917D02*
X008456Y007917D01*
X008456Y007859D02*
X008933Y007859D01*
X008933Y007800D02*
X008456Y007800D01*
X008456Y007742D02*
X008933Y007742D01*
X008933Y007683D02*
X008456Y007683D01*
X008456Y007625D02*
X008933Y007625D01*
X008933Y007566D02*
X008456Y007566D01*
X008456Y007507D02*
X008933Y007507D01*
X008987Y007449D02*
X008456Y007449D01*
X008456Y007390D02*
X009046Y007390D01*
X009104Y007332D02*
X008456Y007332D01*
X009190Y008151D02*
X009200Y008151D01*
X009131Y008210D02*
X010709Y008210D01*
X010651Y008151D02*
X010586Y008151D01*
X010618Y008269D02*
X010768Y008269D01*
X010826Y008327D02*
X010676Y008327D01*
X010735Y008386D02*
X010873Y008386D01*
X010873Y008444D02*
X010793Y008444D01*
X010852Y008503D02*
X010873Y008503D01*
X010873Y008561D02*
X010853Y008561D01*
X010853Y008620D02*
X010873Y008620D01*
X010873Y008678D02*
X010853Y008678D01*
X010853Y008737D02*
X010873Y008737D01*
X010873Y008795D02*
X010853Y008795D01*
X010853Y008854D02*
X010873Y008854D01*
X010856Y008913D02*
X010825Y008913D01*
X010798Y008971D02*
X010766Y008971D01*
X010739Y009030D02*
X010707Y009030D01*
X010681Y009088D02*
X010649Y009088D01*
X010622Y009147D02*
X010590Y009147D01*
X009913Y009030D02*
X009707Y009030D01*
X009649Y009088D02*
X009854Y009088D01*
X009795Y009147D02*
X009590Y009147D01*
X009678Y009264D02*
X009282Y009264D01*
X009282Y009322D02*
X009620Y009322D01*
X009561Y009381D02*
X009282Y009381D01*
X009282Y009439D02*
X009503Y009439D01*
X009444Y009498D02*
X009282Y009498D01*
X009282Y009556D02*
X009386Y009556D01*
X009377Y009615D02*
X009282Y009615D01*
X009282Y009674D02*
X009377Y009674D01*
X009377Y009732D02*
X009282Y009732D01*
X009282Y009791D02*
X009377Y009791D01*
X009377Y009849D02*
X009282Y009849D01*
X009282Y009908D02*
X009377Y009908D01*
X009377Y009966D02*
X009282Y009966D01*
X009282Y010025D02*
X009377Y010025D01*
X009377Y010083D02*
X009282Y010083D01*
X009282Y010142D02*
X009377Y010142D01*
X009377Y010200D02*
X009282Y010200D01*
X009282Y010259D02*
X009377Y010259D01*
X009377Y010318D02*
X009282Y010318D01*
X009282Y010376D02*
X009377Y010376D01*
X009377Y010435D02*
X009282Y010435D01*
X009282Y010493D02*
X009377Y010493D01*
X009377Y010552D02*
X009282Y010552D01*
X009282Y010610D02*
X009377Y010610D01*
X009377Y010669D02*
X009282Y010669D01*
X009282Y010727D02*
X009377Y010727D01*
X009022Y010376D02*
X008527Y010376D01*
X008534Y010318D02*
X009022Y010318D01*
X009022Y010259D02*
X008534Y010259D01*
X008534Y010200D02*
X009022Y010200D01*
X009022Y010142D02*
X008534Y010142D01*
X008534Y010083D02*
X009022Y010083D01*
X009022Y010025D02*
X008534Y010025D01*
X008534Y009966D02*
X009022Y009966D01*
X009022Y009908D02*
X008534Y009908D01*
X008534Y009849D02*
X009022Y009849D01*
X009022Y009791D02*
X008502Y009791D01*
X008456Y009732D02*
X009022Y009732D01*
X009022Y009674D02*
X008456Y009674D01*
X008456Y009615D02*
X009022Y009615D01*
X009022Y009556D02*
X008456Y009556D01*
X008456Y009498D02*
X009022Y009498D01*
X009022Y009439D02*
X008456Y009439D01*
X008456Y009381D02*
X009022Y009381D01*
X008987Y009322D02*
X008456Y009322D01*
X008456Y009264D02*
X008928Y009264D01*
X008870Y009205D02*
X008456Y009205D01*
X008456Y009147D02*
X008811Y009147D01*
X008753Y009088D02*
X008456Y009088D01*
X008456Y009030D02*
X008694Y009030D01*
X008668Y008971D02*
X008456Y008971D01*
X008456Y008913D02*
X008668Y008913D01*
X008668Y008854D02*
X008456Y008854D01*
X008456Y008795D02*
X008668Y008795D01*
X008668Y008737D02*
X008456Y008737D01*
X008456Y008678D02*
X008668Y008678D01*
X008668Y008620D02*
X008456Y008620D01*
X008928Y008620D02*
X008933Y008620D01*
X008928Y008678D02*
X008933Y008678D01*
X008928Y008737D02*
X008933Y008737D01*
X008928Y008795D02*
X008933Y008795D01*
X008928Y008854D02*
X008933Y008854D01*
X008945Y008913D02*
X008961Y008913D01*
X009003Y008971D02*
X009019Y008971D01*
X009062Y009030D02*
X009078Y009030D01*
X009120Y009088D02*
X009136Y009088D01*
X009179Y009147D02*
X009195Y009147D01*
X009237Y009205D02*
X009737Y009205D01*
X008933Y008561D02*
X008928Y008561D01*
X008928Y008444D02*
X008992Y008444D01*
X008956Y008386D02*
X009050Y008386D01*
X009014Y008327D02*
X009109Y008327D01*
X009073Y008269D02*
X009168Y008269D01*
X009363Y007156D02*
X009423Y007156D01*
X009423Y007098D02*
X009363Y007098D01*
X009363Y007039D02*
X009423Y007039D01*
X009423Y006981D02*
X009363Y006981D01*
X009363Y006922D02*
X009423Y006922D01*
X009423Y006864D02*
X009363Y006864D01*
X009363Y006805D02*
X009423Y006805D01*
X009696Y007098D02*
X010146Y007098D01*
X010087Y007039D02*
X009755Y007039D01*
X009813Y006981D02*
X010029Y006981D01*
X009970Y006922D02*
X009872Y006922D01*
X009893Y006864D02*
X009933Y006864D01*
X009933Y006805D02*
X009893Y006805D01*
X009893Y006746D02*
X009933Y006746D01*
X010335Y005985D02*
X008036Y005985D01*
X008036Y005927D02*
X010276Y005927D01*
X010218Y005868D02*
X008036Y005868D01*
X008036Y005810D02*
X010159Y005810D01*
X010101Y005751D02*
X008036Y005751D01*
X008036Y005693D02*
X010042Y005693D01*
X009984Y005634D02*
X008036Y005634D01*
X008036Y005576D02*
X009925Y005576D01*
X009866Y005517D02*
X008036Y005517D01*
X008036Y005458D02*
X009808Y005458D01*
X009749Y005400D02*
X008036Y005400D01*
X008036Y005341D02*
X009691Y005341D01*
X009632Y005283D02*
X008036Y005283D01*
X008036Y005224D02*
X009574Y005224D01*
X009515Y005166D02*
X008036Y005166D01*
X008036Y005107D02*
X009457Y005107D01*
X009398Y005049D02*
X008036Y005049D01*
X008036Y004990D02*
X009340Y004990D01*
X009281Y004932D02*
X008036Y004932D01*
X008036Y004873D02*
X009222Y004873D01*
X009164Y004814D02*
X008036Y004814D01*
X008036Y004756D02*
X009105Y004756D01*
X009047Y004697D02*
X008036Y004697D01*
X008036Y004639D02*
X008988Y004639D01*
X008983Y004580D02*
X008036Y004580D01*
X008036Y004522D02*
X008983Y004522D01*
X008794Y004463D02*
X008495Y004463D01*
X008546Y004405D02*
X008755Y004405D01*
X008755Y004346D02*
X008546Y004346D01*
X008546Y004288D02*
X008755Y004288D01*
X008755Y004229D02*
X008546Y004229D01*
X008546Y004171D02*
X008755Y004171D01*
X008755Y004112D02*
X008546Y004112D01*
X008546Y004053D02*
X008755Y004053D01*
X008795Y003995D02*
X008518Y003995D01*
X009243Y004522D02*
X011857Y004522D01*
X011857Y004580D02*
X009297Y004580D01*
X009356Y004639D02*
X011857Y004639D01*
X011857Y004697D02*
X009414Y004697D01*
X009473Y004756D02*
X011857Y004756D01*
X011857Y004814D02*
X009532Y004814D01*
X009590Y004873D02*
X011857Y004873D01*
X011857Y004932D02*
X009649Y004932D01*
X009707Y004990D02*
X011857Y004990D01*
X011857Y005049D02*
X009766Y005049D01*
X009824Y005107D02*
X011857Y005107D01*
X011857Y005166D02*
X009883Y005166D01*
X009941Y005224D02*
X011857Y005224D01*
X011857Y005283D02*
X010000Y005283D01*
X010058Y005341D02*
X011857Y005341D01*
X011857Y005400D02*
X010117Y005400D01*
X010176Y005458D02*
X011857Y005458D01*
X011857Y005517D02*
X010234Y005517D01*
X010293Y005576D02*
X011857Y005576D01*
X011857Y005634D02*
X010351Y005634D01*
X010410Y005693D02*
X011857Y005693D01*
X011857Y005751D02*
X010468Y005751D01*
X010527Y005810D02*
X011857Y005810D01*
X011857Y005868D02*
X010585Y005868D01*
X010644Y005927D02*
X011857Y005927D01*
X011857Y005985D02*
X010702Y005985D01*
X010761Y006044D02*
X011857Y006044D01*
X011857Y006102D02*
X010819Y006102D01*
X010878Y006161D02*
X011857Y006161D01*
X011857Y006220D02*
X010937Y006220D01*
X010995Y006278D02*
X011857Y006278D01*
X011857Y006337D02*
X011054Y006337D01*
X011112Y006395D02*
X011857Y006395D01*
X011857Y006454D02*
X011133Y006454D01*
X011133Y006512D02*
X011857Y006512D01*
X011857Y006571D02*
X011133Y006571D01*
X011133Y006629D02*
X011857Y006629D01*
X011857Y006688D02*
X011133Y006688D01*
X011133Y006746D02*
X011857Y006746D01*
X011857Y006805D02*
X011133Y006805D01*
X011133Y006864D02*
X011857Y006864D01*
X011857Y006922D02*
X011133Y006922D01*
X011133Y006981D02*
X011857Y006981D01*
X011857Y007039D02*
X011133Y007039D01*
X011133Y007098D02*
X011857Y007098D01*
X011857Y007156D02*
X011091Y007156D01*
X011857Y004463D02*
X009369Y004463D01*
X009408Y004405D02*
X011857Y004405D01*
X011857Y004346D02*
X009408Y004346D01*
X009408Y004288D02*
X011857Y004288D01*
X011857Y004229D02*
X009408Y004229D01*
X009408Y004171D02*
X011857Y004171D01*
X011857Y004112D02*
X009408Y004112D01*
X009408Y004053D02*
X011857Y004053D01*
X011857Y003995D02*
X009368Y003995D01*
X007330Y010142D02*
X006208Y010142D01*
X006217Y010200D02*
X007330Y010200D01*
X007330Y010259D02*
X006275Y010259D01*
X006334Y010318D02*
X007330Y010318D01*
X007337Y010376D02*
X006392Y010376D01*
X005251Y014240D02*
X005000Y014240D01*
X005028Y014299D02*
X005204Y014299D01*
X005204Y014357D02*
X005030Y014357D01*
X005030Y014416D02*
X005204Y014416D01*
X005204Y014474D02*
X005030Y014474D01*
X004773Y014416D02*
X004713Y014416D01*
X004713Y014357D02*
X004773Y014357D01*
X004773Y014299D02*
X004713Y014299D01*
X004713Y014240D02*
X004773Y014240D01*
X004773Y014591D02*
X004713Y014591D01*
X004713Y014650D02*
X004773Y014650D01*
X004773Y014708D02*
X004713Y014708D01*
X004713Y014767D02*
X004773Y014767D01*
X004773Y014825D02*
X004713Y014825D01*
X004713Y014884D02*
X004773Y014884D01*
X003629Y015704D02*
X003596Y015704D01*
X003279Y015001D02*
X003260Y015001D01*
X002840Y015001D02*
X002490Y015001D01*
X002520Y014942D02*
X002840Y014942D01*
X002843Y014884D02*
X002520Y014884D01*
X002520Y014825D02*
X002803Y014825D01*
X002803Y014767D02*
X002520Y014767D01*
X002520Y014708D02*
X002803Y014708D01*
X002803Y014650D02*
X002520Y014650D01*
X001946Y014650D02*
X001418Y014650D01*
X001418Y014708D02*
X001946Y014708D01*
X001946Y014767D02*
X001418Y014767D01*
X001418Y014825D02*
X001946Y014825D01*
X001946Y014884D02*
X001418Y014884D01*
X001418Y014942D02*
X001946Y014942D01*
X001976Y015001D02*
X001388Y015001D01*
X001418Y014591D02*
X001946Y014591D01*
X001946Y014533D02*
X001418Y014533D01*
X001418Y014474D02*
X001946Y014474D01*
X001946Y014416D02*
X001469Y014416D01*
X001527Y014357D02*
X001946Y014357D01*
X001946Y014299D02*
X001586Y014299D01*
X001645Y014240D02*
X001946Y014240D01*
X001953Y014181D02*
X001703Y014181D01*
X002252Y016113D02*
X002836Y016113D01*
X002832Y016172D02*
X002193Y016172D01*
X002134Y016230D02*
X002832Y016230D01*
X002832Y016289D02*
X002076Y016289D01*
X002017Y016348D02*
X002832Y016348D01*
X002832Y016406D02*
X001959Y016406D01*
X001900Y016465D02*
X002832Y016465D01*
X002832Y016523D02*
X001842Y016523D01*
X001801Y016582D02*
X002832Y016582D01*
X002832Y016640D02*
X001801Y016640D01*
X001801Y016699D02*
X002867Y016699D01*
X002900Y016757D02*
X001801Y016757D01*
X001801Y016816D02*
X002900Y016816D01*
X002900Y016874D02*
X001801Y016874D01*
X001801Y016933D02*
X002814Y016933D01*
X002803Y016991D02*
X001801Y016991D01*
X001770Y017050D02*
X002803Y017050D01*
X003298Y017050D02*
X003471Y017050D01*
X003471Y016991D02*
X003298Y016991D01*
X003286Y016933D02*
X003480Y016933D01*
X003471Y017109D02*
X003298Y017109D01*
X003298Y017167D02*
X003471Y017167D01*
X003180Y017694D02*
X005666Y017694D01*
X005724Y017753D02*
X003180Y017753D01*
X003180Y017811D02*
X005783Y017811D01*
X005841Y017870D02*
X003180Y017870D01*
X003180Y017928D02*
X005900Y017928D01*
X005958Y017987D02*
X003180Y017987D01*
X003180Y018045D02*
X003924Y018045D01*
X003866Y018104D02*
X003180Y018104D01*
X003220Y018162D02*
X003826Y018162D01*
X003826Y018221D02*
X003223Y018221D01*
X003223Y018279D02*
X003826Y018279D01*
X003826Y018572D02*
X003223Y018572D01*
X003223Y018631D02*
X003826Y018631D01*
X003826Y018689D02*
X003223Y018689D01*
X003186Y018748D02*
X003826Y018748D01*
X004405Y019919D02*
X003027Y019919D01*
X003046Y019977D02*
X004464Y019977D01*
X004522Y020036D02*
X003062Y020036D01*
X002764Y018748D02*
X002478Y018748D01*
X002514Y018689D02*
X002728Y018689D01*
X002728Y018631D02*
X002514Y018631D01*
X002514Y018572D02*
X002728Y018572D01*
X002728Y018514D02*
X002514Y018514D01*
X002514Y018455D02*
X002728Y018455D01*
X002728Y018397D02*
X002514Y018397D01*
X002514Y018338D02*
X002728Y018338D01*
X002728Y018279D02*
X002514Y018279D01*
X002514Y018221D02*
X002728Y018221D01*
X002730Y018162D02*
X002512Y018162D01*
X004495Y020094D02*
X004581Y020094D01*
X004589Y020153D02*
X004639Y020153D01*
X004647Y020211D02*
X004698Y020211D01*
X004693Y020270D02*
X004756Y020270D01*
X004717Y020328D02*
X004815Y020328D01*
X004847Y020387D02*
X004741Y020387D01*
X004754Y020446D02*
X004834Y020446D01*
X004834Y020504D02*
X004754Y020504D01*
X004754Y020563D02*
X004834Y020563D01*
X004843Y020621D02*
X004746Y020621D01*
X004721Y020680D02*
X004867Y020680D01*
X004891Y020738D02*
X004697Y020738D01*
X004657Y020797D02*
X004931Y020797D01*
X004990Y020855D02*
X004598Y020855D01*
X004519Y020914D02*
X005070Y020914D01*
X005519Y020914D02*
X006070Y020914D01*
X005990Y020855D02*
X005598Y020855D01*
X005657Y020797D02*
X005931Y020797D01*
X005891Y020738D02*
X005697Y020738D01*
X005721Y020680D02*
X005867Y020680D01*
X005843Y020621D02*
X005746Y020621D01*
X005754Y020563D02*
X005834Y020563D01*
X005834Y020504D02*
X005754Y020504D01*
X005754Y020446D02*
X005834Y020446D01*
X005847Y020387D02*
X005741Y020387D01*
X005717Y020328D02*
X005871Y020328D01*
X005895Y020270D02*
X005693Y020270D01*
X005647Y020211D02*
X005941Y020211D01*
X006000Y020153D02*
X005589Y020153D01*
X005495Y020094D02*
X006093Y020094D01*
X006754Y020563D02*
X007929Y020563D01*
X007881Y020621D02*
X006746Y020621D01*
X006721Y020680D02*
X007873Y020680D01*
X007873Y020738D02*
X006697Y020738D01*
X006657Y020797D02*
X007873Y020797D01*
X007873Y020855D02*
X006598Y020855D01*
X006519Y020914D02*
X007873Y020914D01*
X008189Y020914D02*
X008249Y020914D01*
X008249Y020972D02*
X008189Y020972D01*
X008249Y021031D02*
X011496Y021031D01*
X011496Y020972D02*
X011556Y020972D01*
X011556Y020914D02*
X011496Y020914D01*
X011496Y020855D02*
X011556Y020855D01*
X011556Y020797D02*
X011496Y020797D01*
X011496Y020738D02*
X011556Y020738D01*
X011556Y020680D02*
X011496Y020680D01*
X011496Y020621D02*
X011556Y020621D01*
X011556Y020563D02*
X011496Y020563D01*
X011237Y020563D02*
X010146Y020563D01*
X010128Y020580D02*
X010128Y020580D01*
X010087Y020621D02*
X011189Y020621D01*
X011180Y020680D02*
X010028Y020680D01*
X010204Y020504D02*
X011857Y020504D01*
X011857Y020446D02*
X010263Y020446D01*
X010321Y020387D02*
X011857Y020387D01*
X011857Y020328D02*
X010380Y020328D01*
X010396Y020270D02*
X011857Y020270D01*
X011857Y020563D02*
X011816Y020563D01*
X011180Y020738D02*
X008566Y020738D01*
X008566Y020680D02*
X008631Y020680D01*
X008572Y020621D02*
X008557Y020621D01*
X008514Y020563D02*
X008509Y020563D01*
X008566Y020797D02*
X011180Y020797D01*
X011180Y020855D02*
X008566Y020855D01*
X008566Y020914D02*
X011180Y020914D01*
X011180Y020972D02*
X008566Y020972D01*
X008566Y021090D02*
X011180Y021090D01*
X011180Y021148D02*
X008566Y021148D01*
X008566Y021207D02*
X011180Y021207D01*
X011180Y021265D02*
X008566Y021265D01*
X008566Y021324D02*
X011180Y021324D01*
X011180Y021382D02*
X008566Y021382D01*
X008564Y021441D02*
X011181Y021441D01*
X009911Y020153D02*
X009841Y020153D01*
X009845Y020094D02*
X009940Y020094D01*
X009940Y020036D02*
X009845Y020036D01*
X009845Y019977D02*
X009940Y019977D01*
X009940Y019919D02*
X009845Y019919D01*
X009845Y019860D02*
X009940Y019860D01*
X009940Y019802D02*
X009845Y019802D01*
X009608Y019802D02*
X009548Y019802D01*
X009548Y019860D02*
X009608Y019860D01*
X009608Y019919D02*
X009548Y019919D01*
X009548Y019977D02*
X009608Y019977D01*
X009608Y020036D02*
X009548Y020036D01*
X009548Y020094D02*
X009608Y020094D01*
X009608Y020153D02*
X009548Y020153D01*
X009548Y020211D02*
X009608Y020211D01*
X009807Y020211D02*
X009852Y020211D01*
X009348Y020211D02*
X008807Y020211D01*
X008759Y020153D02*
X008749Y020153D01*
X008759Y020094D02*
X008690Y020094D01*
X008249Y020563D02*
X008189Y020563D01*
X008189Y020621D02*
X008249Y020621D01*
X008249Y020680D02*
X008189Y020680D01*
X008189Y020738D02*
X008249Y020738D01*
X008249Y020797D02*
X008189Y020797D01*
X008189Y020855D02*
X008249Y020855D01*
X009215Y020153D02*
X009314Y020153D01*
X009310Y020094D02*
X009215Y020094D01*
X009215Y020036D02*
X009310Y020036D01*
X009310Y019977D02*
X009215Y019977D01*
X009215Y019919D02*
X009310Y019919D01*
X009310Y019860D02*
X009215Y019860D01*
X009215Y019802D02*
X009310Y019802D01*
X009215Y019743D02*
X009547Y019743D01*
X009310Y019684D02*
X009215Y019684D01*
X009215Y019626D02*
X009310Y019626D01*
X009310Y019567D02*
X009215Y019567D01*
X009215Y019509D02*
X009310Y019509D01*
X009310Y019450D02*
X009215Y019450D01*
X009215Y019392D02*
X009310Y019392D01*
X009310Y019333D02*
X009215Y019333D01*
X009195Y019275D02*
X009323Y019275D01*
X009792Y018982D02*
X009852Y018982D01*
X009852Y018923D02*
X009792Y018923D01*
X009792Y018865D02*
X009852Y018865D01*
X009852Y018806D02*
X009792Y018806D01*
X009792Y018748D02*
X009852Y018748D01*
X009852Y018689D02*
X009792Y018689D01*
X009792Y018631D02*
X009852Y018631D01*
X009852Y018572D02*
X009792Y018572D01*
X009792Y018397D02*
X009852Y018397D01*
X009852Y018338D02*
X009792Y018338D01*
X009792Y018279D02*
X009852Y018279D01*
X009852Y018221D02*
X009792Y018221D01*
X009792Y018162D02*
X009852Y018162D01*
X009852Y018104D02*
X009792Y018104D01*
X009792Y018045D02*
X009852Y018045D01*
X010035Y017811D02*
X009007Y017811D01*
X009007Y017753D02*
X009976Y017753D01*
X009917Y017694D02*
X009007Y017694D01*
X009007Y017635D02*
X009859Y017635D01*
X009800Y017577D02*
X009412Y017577D01*
X009459Y017518D02*
X009742Y017518D01*
X009683Y017460D02*
X009459Y017460D01*
X009459Y017401D02*
X009625Y017401D01*
X010093Y017870D02*
X009007Y017870D01*
X009007Y017928D02*
X010152Y017928D01*
X010210Y017987D02*
X009007Y017987D01*
X009007Y018045D02*
X009380Y018045D01*
X009330Y018104D02*
X009007Y018104D01*
X009007Y018162D02*
X009305Y018162D01*
X009298Y018221D02*
X009007Y018221D01*
X009007Y018279D02*
X009298Y018279D01*
X009298Y018338D02*
X009007Y018338D01*
X009007Y018397D02*
X009298Y018397D01*
X009298Y018455D02*
X009007Y018455D01*
X008747Y018455D02*
X006424Y018455D01*
X006424Y018397D02*
X008747Y018397D01*
X008747Y018338D02*
X006424Y018338D01*
X006424Y018279D02*
X008747Y018279D01*
X008747Y018221D02*
X006424Y018221D01*
X006424Y018162D02*
X008747Y018162D01*
X008747Y018104D02*
X006424Y018104D01*
X006384Y018045D02*
X008747Y018045D01*
X008747Y017987D02*
X006326Y017987D01*
X006267Y017928D02*
X008747Y017928D01*
X008747Y017870D02*
X006209Y017870D01*
X006150Y017811D02*
X008747Y017811D01*
X008747Y017753D02*
X006092Y017753D01*
X006033Y017694D02*
X008747Y017694D01*
X008747Y017635D02*
X005975Y017635D01*
X005916Y017577D02*
X008302Y017577D01*
X008255Y017518D02*
X005857Y017518D01*
X005799Y017460D02*
X008255Y017460D01*
X008255Y017401D02*
X005740Y017401D01*
X005734Y017343D02*
X008255Y017343D01*
X008255Y017284D02*
X005714Y017284D01*
X005699Y017226D02*
X008255Y017226D01*
X008255Y017167D02*
X005699Y017167D01*
X005699Y017109D02*
X008255Y017109D01*
X008255Y017050D02*
X005699Y017050D01*
X005699Y016991D02*
X008255Y016991D01*
X008306Y016933D02*
X005688Y016933D01*
X005582Y016874D02*
X008389Y016874D01*
X008331Y016816D02*
X005582Y016816D01*
X005670Y016582D02*
X006640Y016582D01*
X006464Y016406D02*
X005670Y016406D01*
X005670Y016348D02*
X006406Y016348D01*
X006347Y016289D02*
X005670Y016289D01*
X006424Y018514D02*
X008747Y018514D01*
X008747Y018572D02*
X006424Y018572D01*
X006424Y018631D02*
X008747Y018631D01*
X008747Y018689D02*
X006424Y018689D01*
X006424Y018748D02*
X008747Y018748D01*
X008747Y018806D02*
X006424Y018806D01*
X006424Y018865D02*
X008747Y018865D01*
X008747Y018923D02*
X006424Y018923D01*
X008704Y017577D02*
X008747Y017577D01*
X009007Y017577D02*
X009011Y017577D01*
X010264Y018045D02*
X010269Y018045D01*
X010313Y018104D02*
X010327Y018104D01*
X010338Y018162D02*
X010386Y018162D01*
X010345Y018221D02*
X010444Y018221D01*
X010503Y018279D02*
X010345Y018279D01*
X010345Y018338D02*
X010561Y018338D01*
X010597Y018397D02*
X010345Y018397D01*
X010345Y018455D02*
X010597Y018455D01*
X009631Y014825D02*
X011857Y014825D01*
X011857Y014767D02*
X009680Y014767D01*
X009680Y014708D02*
X011857Y014708D01*
X011857Y014650D02*
X009680Y014650D01*
X009680Y014591D02*
X011857Y014591D01*
X011857Y014533D02*
X009680Y014533D01*
X009680Y014474D02*
X011857Y014474D01*
X011857Y014416D02*
X009680Y014416D01*
X009680Y014357D02*
X011857Y014357D01*
X011857Y014299D02*
X009680Y014299D01*
X009680Y014240D02*
X011857Y014240D01*
X011857Y014064D02*
X010392Y014064D01*
X010408Y014006D02*
X011857Y014006D01*
X011857Y013947D02*
X010408Y013947D01*
X010408Y013889D02*
X011857Y013889D01*
X011857Y013830D02*
X010408Y013830D01*
X010408Y013772D02*
X011857Y013772D01*
X011857Y013713D02*
X010408Y013713D01*
X010408Y013655D02*
X011857Y013655D01*
X011857Y013596D02*
X010408Y013596D01*
X010408Y013537D02*
X011857Y013537D01*
X011857Y013479D02*
X010408Y013479D01*
X010406Y013420D02*
X011857Y013420D01*
X011857Y013362D02*
X010408Y013362D01*
X010408Y013303D02*
X011857Y013303D01*
X011857Y013245D02*
X010408Y013245D01*
X010408Y013186D02*
X011857Y013186D01*
X011857Y013128D02*
X010433Y013128D01*
X011006Y012952D02*
X011195Y012952D01*
X011188Y012893D02*
X011014Y012893D01*
X011014Y012835D02*
X011188Y012835D01*
X011188Y012776D02*
X011014Y012776D01*
X011014Y012718D02*
X011188Y012718D01*
X011445Y012718D02*
X011505Y012718D01*
X011505Y012701D02*
X011445Y012701D01*
X011445Y013037D01*
X011301Y013037D01*
X011268Y013028D01*
X011238Y013011D01*
X011445Y013011D02*
X011505Y013011D01*
X011505Y013037D02*
X011505Y012701D01*
X011505Y012659D02*
X011857Y012659D01*
X011857Y012601D02*
X011763Y012601D01*
X011763Y012542D02*
X011857Y012542D01*
X011857Y012484D02*
X011763Y012484D01*
X011763Y012425D02*
X011857Y012425D01*
X011857Y012367D02*
X011744Y012367D01*
X011664Y012308D02*
X011857Y012308D01*
X011857Y012249D02*
X011742Y012249D01*
X011763Y012191D02*
X011857Y012191D01*
X011857Y012132D02*
X011763Y012132D01*
X011763Y012074D02*
X011857Y012074D01*
X011857Y012015D02*
X011763Y012015D01*
X011505Y011898D02*
X011445Y011898D01*
X011445Y011840D02*
X011505Y011840D01*
X011505Y011781D02*
X011445Y011781D01*
X011445Y011723D02*
X011505Y011723D01*
X011505Y011664D02*
X011445Y011664D01*
X011445Y011606D02*
X011505Y011606D01*
X011234Y011606D02*
X010408Y011606D01*
X010408Y011664D02*
X010524Y011664D01*
X010519Y011723D02*
X010408Y011723D01*
X010408Y011781D02*
X010519Y011781D01*
X010980Y012249D02*
X011209Y012249D01*
X011188Y012191D02*
X011014Y012191D01*
X011014Y012132D02*
X011188Y012132D01*
X011188Y012074D02*
X011014Y012074D01*
X011014Y012015D02*
X011188Y012015D01*
X011188Y011898D02*
X011014Y011898D01*
X011014Y011840D02*
X011188Y011840D01*
X011188Y011781D02*
X011014Y011781D01*
X011014Y011723D02*
X011188Y011723D01*
X011194Y011664D02*
X011010Y011664D01*
X011014Y011957D02*
X011445Y011957D01*
X011763Y012718D02*
X011857Y012718D01*
X011857Y012776D02*
X011763Y012776D01*
X011763Y012835D02*
X011857Y012835D01*
X011857Y012893D02*
X011763Y012893D01*
X011755Y012952D02*
X011857Y012952D01*
X011713Y013011D02*
X011683Y013028D01*
X011650Y013037D01*
X011505Y013037D01*
X011505Y012952D02*
X011445Y012952D01*
X011445Y012893D02*
X011505Y012893D01*
X011505Y012835D02*
X011445Y012835D01*
X011445Y012776D02*
X011505Y012776D01*
X009330Y014825D02*
X009316Y014825D01*
D25*
X008877Y014974D02*
X009271Y015367D01*
X009271Y017218D01*
X009211Y017257D01*
X009664Y017257D01*
X010727Y018320D01*
X010727Y019698D01*
X010759Y019726D01*
X008987Y019726D02*
X008877Y019615D01*
X008877Y016470D01*
X008877Y015210D01*
X008523Y014855D01*
X008523Y014501D01*
X008536Y014489D01*
X008221Y014489D02*
X008208Y014462D01*
X008208Y013596D01*
X007853Y013399D02*
X007893Y013320D01*
X007853Y013359D01*
X007853Y013399D02*
X007853Y014462D01*
X007906Y014489D01*
X007853Y014501D01*
X007893Y014501D02*
X007906Y014489D01*
X007932Y014462D01*
X007971Y014422D01*
X007893Y014501D02*
X007893Y015446D01*
X007617Y015485D02*
X008168Y016037D01*
X008168Y016470D02*
X006711Y016470D01*
X005491Y015249D01*
X005471Y015367D01*
X005452Y015328D01*
X005452Y014560D01*
X005491Y014540D01*
X005491Y012218D01*
X005511Y012198D01*
X002145Y008832D01*
X001869Y012218D02*
X001869Y013832D01*
X001121Y014580D01*
X001131Y014580D01*
X002233Y014580D02*
X002263Y014580D01*
X002341Y014501D01*
X002971Y014501D01*
X003050Y014560D01*
X003050Y014974D01*
X003050Y015328D01*
X003030Y015367D01*
X003011Y015367D01*
X003601Y015918D02*
X002263Y015918D01*
X001495Y016686D01*
X001515Y018438D02*
X001495Y018458D01*
X001515Y018438D02*
X002267Y018438D01*
X002975Y018438D02*
X003050Y018363D01*
X003050Y017218D01*
X003030Y017198D01*
X003030Y016391D01*
X003601Y015918D02*
X003759Y015761D01*
X003759Y015367D01*
X003778Y015367D01*
X003050Y014560D02*
X003050Y014540D01*
X003011Y014501D01*
X004704Y015997D02*
X005452Y015997D01*
X005471Y016017D01*
X005471Y016391D01*
X005452Y016411D01*
X005452Y017218D01*
X005491Y017336D02*
X006294Y018139D01*
X006294Y020509D01*
X004231Y018438D02*
X002975Y018438D01*
X004723Y016391D02*
X004704Y016371D01*
X004704Y015997D01*
X006688Y012956D02*
X006711Y012926D01*
X007145Y012926D01*
X007971Y012100D01*
X007971Y012060D01*
X007420Y012060D01*
X007184Y012060D01*
X006948Y012296D01*
X006711Y012296D01*
X006688Y012326D01*
X006672Y012336D01*
X005649Y012336D01*
X005511Y012198D01*
X005806Y011509D02*
X005806Y011273D01*
X005786Y011264D01*
X005806Y011509D02*
X006318Y012021D01*
X006672Y012021D01*
X006688Y012011D01*
X006688Y011696D02*
X006672Y011666D01*
X006672Y010840D01*
X006160Y010328D01*
X005806Y010328D01*
X005786Y010320D01*
X007578Y010096D02*
X007578Y011076D01*
X007591Y011109D01*
X007906Y011109D02*
X007906Y004218D01*
X008219Y004218D01*
X008219Y003509D02*
X008208Y003477D01*
X008208Y003399D01*
X007814Y003005D01*
X007814Y001273D01*
X008286Y000800D01*
X008298Y000820D01*
X008889Y002592D02*
X008877Y002611D01*
X009074Y002808D01*
X009074Y003517D01*
X009082Y003521D01*
X009082Y004229D02*
X009113Y004265D01*
X009113Y004580D01*
X011003Y006470D01*
X011003Y007060D01*
X010373Y007690D01*
X010393Y007694D01*
X010412Y007729D01*
X011003Y008320D01*
X011003Y008950D01*
X010097Y009855D01*
X010097Y011666D01*
X010068Y011696D01*
X010137Y011942D02*
X010097Y011981D01*
X010068Y012011D01*
X010058Y012021D01*
X009152Y012021D01*
X009113Y012060D01*
X009074Y012060D01*
X009074Y012139D01*
X009074Y012060D02*
X007971Y012060D01*
X009165Y011109D02*
X009152Y011076D01*
X009152Y009304D01*
X008798Y008950D01*
X008798Y008359D01*
X009428Y007729D01*
X009393Y007694D01*
X008444Y006824D02*
X008326Y006942D01*
X008326Y010092D01*
X008286Y010096D01*
X009507Y009619D02*
X010412Y008714D01*
X010393Y008694D01*
X009507Y009619D02*
X009507Y011076D01*
X009480Y011109D01*
X010137Y011942D02*
X010767Y011942D01*
X010767Y012651D02*
X010767Y012670D01*
X010767Y012651D02*
X010097Y012651D01*
X010068Y012641D01*
X008877Y014501D02*
X008850Y014489D01*
X008877Y014501D02*
X008877Y014974D01*
X007617Y014501D02*
X007591Y014489D01*
X007617Y014462D01*
X007617Y013714D01*
X007381Y013477D01*
X007578Y014462D02*
X007591Y014489D01*
X007617Y014501D02*
X007617Y015485D01*
X008168Y016470D02*
X008523Y016824D01*
X008523Y017257D01*
X008503Y017257D01*
D26*
X008168Y016037D03*
X007893Y015446D03*
X008208Y013596D03*
X007893Y013320D03*
X007381Y013477D03*
X007420Y012060D03*
X009074Y012139D03*
X008444Y006824D03*
X002145Y008832D03*
X001869Y012218D03*
X003050Y014974D03*
D27*
X005452Y017218D02*
X005491Y017336D01*
X004310Y018517D02*
X004389Y018596D01*
X004389Y019580D01*
X005294Y020485D01*
X005294Y020509D01*
X006294Y020509D02*
X006515Y020289D01*
X008562Y020289D01*
X008759Y020485D01*
X009900Y020485D01*
X010168Y020218D01*
X010168Y019726D01*
X004310Y018517D02*
X004231Y018438D01*
M02*
