G75*
G70*
%OFA0B0*%
%FSLAX24Y24*%
%IPPOS*%
%LPD*%
%AMOC8*
5,1,8,0,0,1.08239X$1,22.5*
%
%ADD10C,0.0000*%
%ADD11C,0.0110*%
%ADD12C,0.0020*%
%ADD13C,0.0040*%
%ADD14C,0.0050*%
%ADD15C,0.0080*%
%ADD16C,0.0060*%
%ADD17C,0.0010*%
D10*
X000373Y000131D02*
X000373Y019127D01*
X001840Y019127D01*
X001903Y019129D01*
X001967Y019134D01*
X002030Y019144D01*
X002092Y019156D01*
X002153Y019173D01*
X002213Y019193D01*
X002273Y019216D01*
X002330Y019243D01*
X002386Y019273D01*
X002440Y019307D01*
X002492Y019343D01*
X002542Y019382D01*
X002589Y019425D01*
X002634Y019470D01*
X002677Y019517D01*
X002716Y019567D01*
X002752Y019619D01*
X002786Y019673D01*
X002816Y019729D01*
X002843Y019786D01*
X002866Y019846D01*
X002886Y019906D01*
X002903Y019967D01*
X002915Y020029D01*
X002925Y020092D01*
X002930Y020156D01*
X002932Y020219D01*
X002932Y021588D01*
X011987Y021588D01*
X011987Y002690D01*
X010554Y002690D01*
X010489Y002688D01*
X010423Y002682D01*
X010358Y002673D01*
X010294Y002660D01*
X010231Y002643D01*
X010169Y002622D01*
X010108Y002598D01*
X010049Y002570D01*
X009991Y002539D01*
X009935Y002505D01*
X009882Y002467D01*
X009830Y002427D01*
X009781Y002383D01*
X009735Y002337D01*
X009691Y002288D01*
X009651Y002236D01*
X009613Y002183D01*
X009579Y002127D01*
X009548Y002069D01*
X009520Y002010D01*
X009496Y001949D01*
X009475Y001887D01*
X009458Y001824D01*
X009445Y001760D01*
X009436Y001695D01*
X009430Y001629D01*
X009428Y001564D01*
X009428Y000131D01*
X000373Y000131D01*
X008298Y001706D02*
X008300Y001740D01*
X008306Y001774D01*
X008316Y001807D01*
X008329Y001838D01*
X008347Y001868D01*
X008367Y001896D01*
X008391Y001921D01*
X008417Y001943D01*
X008445Y001961D01*
X008476Y001977D01*
X008508Y001989D01*
X008542Y001997D01*
X008576Y002001D01*
X008610Y002001D01*
X008644Y001997D01*
X008678Y001989D01*
X008710Y001977D01*
X008740Y001961D01*
X008769Y001943D01*
X008795Y001921D01*
X008819Y001896D01*
X008839Y001868D01*
X008857Y001838D01*
X008870Y001807D01*
X008880Y001774D01*
X008886Y001740D01*
X008888Y001706D01*
X008886Y001672D01*
X008880Y001638D01*
X008870Y001605D01*
X008857Y001574D01*
X008839Y001544D01*
X008819Y001516D01*
X008795Y001491D01*
X008769Y001469D01*
X008741Y001451D01*
X008710Y001435D01*
X008678Y001423D01*
X008644Y001415D01*
X008610Y001411D01*
X008576Y001411D01*
X008542Y001415D01*
X008508Y001423D01*
X008476Y001435D01*
X008445Y001451D01*
X008417Y001469D01*
X008391Y001491D01*
X008367Y001516D01*
X008347Y001544D01*
X008329Y001574D01*
X008316Y001605D01*
X008306Y001638D01*
X008300Y001672D01*
X008298Y001706D01*
X009428Y000131D02*
X011987Y000131D01*
X011987Y002690D01*
X000905Y017572D02*
X000907Y017606D01*
X000913Y017640D01*
X000923Y017673D01*
X000936Y017704D01*
X000954Y017734D01*
X000974Y017762D01*
X000998Y017787D01*
X001024Y017809D01*
X001052Y017827D01*
X001083Y017843D01*
X001115Y017855D01*
X001149Y017863D01*
X001183Y017867D01*
X001217Y017867D01*
X001251Y017863D01*
X001285Y017855D01*
X001317Y017843D01*
X001347Y017827D01*
X001376Y017809D01*
X001402Y017787D01*
X001426Y017762D01*
X001446Y017734D01*
X001464Y017704D01*
X001477Y017673D01*
X001487Y017640D01*
X001493Y017606D01*
X001495Y017572D01*
X001493Y017538D01*
X001487Y017504D01*
X001477Y017471D01*
X001464Y017440D01*
X001446Y017410D01*
X001426Y017382D01*
X001402Y017357D01*
X001376Y017335D01*
X001348Y017317D01*
X001317Y017301D01*
X001285Y017289D01*
X001251Y017281D01*
X001217Y017277D01*
X001183Y017277D01*
X001149Y017281D01*
X001115Y017289D01*
X001083Y017301D01*
X001052Y017317D01*
X001024Y017335D01*
X000998Y017357D01*
X000974Y017382D01*
X000954Y017410D01*
X000936Y017440D01*
X000923Y017471D01*
X000913Y017504D01*
X000907Y017538D01*
X000905Y017572D01*
X000373Y019127D02*
X000373Y021588D01*
X002932Y021588D01*
D11*
X004247Y017922D02*
X004247Y017529D01*
X004050Y017725D02*
X004444Y017725D01*
X009562Y017725D02*
X009955Y017725D01*
D12*
X010571Y018195D02*
X010571Y018288D01*
X010618Y018335D01*
X010571Y018424D02*
X010571Y018564D01*
X010618Y018611D01*
X010804Y018611D01*
X010851Y018564D01*
X010851Y018424D01*
X010571Y018424D01*
X010711Y018288D02*
X010711Y018195D01*
X010664Y018148D01*
X010618Y018148D01*
X010571Y018195D01*
X010711Y018288D02*
X010758Y018335D01*
X010804Y018335D01*
X010851Y018288D01*
X010851Y018195D01*
X010804Y018148D01*
X010851Y018701D02*
X010664Y018701D01*
X010571Y018794D01*
X010664Y018887D01*
X010851Y018887D01*
X010711Y018887D02*
X010711Y018701D01*
X009183Y018613D02*
X009183Y018800D01*
X009183Y018613D02*
X008903Y018613D01*
X008950Y018523D02*
X008903Y018477D01*
X008903Y018383D01*
X008950Y018337D01*
X009137Y018337D01*
X009183Y018383D01*
X009183Y018477D01*
X009137Y018523D01*
X009137Y018247D02*
X009183Y018200D01*
X009183Y018107D01*
X009137Y018060D01*
X009043Y018107D02*
X009043Y018200D01*
X009090Y018247D01*
X009137Y018247D01*
X009043Y018107D02*
X008997Y018060D01*
X008950Y018060D01*
X008903Y018107D01*
X008903Y018200D01*
X008950Y018247D01*
X005529Y019350D02*
X005436Y019350D01*
X005529Y019443D01*
X005529Y019466D01*
X005506Y019490D01*
X005459Y019490D01*
X005436Y019466D01*
X005382Y019466D02*
X005358Y019490D01*
X005312Y019490D01*
X005288Y019466D01*
X005288Y019443D01*
X005312Y019420D01*
X005358Y019420D01*
X005382Y019396D01*
X005382Y019373D01*
X005358Y019350D01*
X005312Y019350D01*
X005288Y019373D01*
X004280Y004360D02*
X004160Y004360D01*
X004160Y004270D01*
X004220Y004300D01*
X004250Y004300D01*
X004280Y004270D01*
X004280Y004210D01*
X004250Y004180D01*
X004190Y004180D01*
X004160Y004210D01*
X004096Y004210D02*
X004066Y004180D01*
X004006Y004180D01*
X003976Y004210D01*
X004096Y004330D01*
X004096Y004210D01*
X004096Y004330D02*
X004066Y004360D01*
X004006Y004360D01*
X003976Y004330D01*
X003976Y004210D01*
X003914Y004210D02*
X003914Y004180D01*
X003884Y004180D01*
X003884Y004210D01*
X003914Y004210D01*
X003820Y004210D02*
X003790Y004180D01*
X003730Y004180D01*
X003700Y004210D01*
X003820Y004330D01*
X003820Y004210D01*
X003820Y004330D02*
X003790Y004360D01*
X003730Y004360D01*
X003700Y004330D01*
X003700Y004210D01*
X003452Y004300D02*
X003392Y004180D01*
X003331Y004300D01*
X003267Y004270D02*
X003267Y004240D01*
X003147Y004240D01*
X003147Y004270D02*
X003177Y004300D01*
X003237Y004300D01*
X003267Y004270D01*
X003237Y004180D02*
X003177Y004180D01*
X003147Y004210D01*
X003147Y004270D01*
X003084Y004300D02*
X003054Y004300D01*
X002994Y004240D01*
X002994Y004180D02*
X002994Y004300D01*
X003170Y003867D02*
X003200Y003867D01*
X003200Y003687D01*
X003170Y003687D02*
X003230Y003687D01*
X003106Y003687D02*
X003106Y003777D01*
X003075Y003807D01*
X003015Y003807D01*
X003015Y003747D02*
X003106Y003747D01*
X003106Y003687D02*
X003015Y003687D01*
X002985Y003717D01*
X003015Y003747D01*
X002921Y003777D02*
X002921Y003687D01*
X002921Y003777D02*
X002891Y003807D01*
X002801Y003807D01*
X002801Y003687D01*
X002739Y003687D02*
X002679Y003687D01*
X002709Y003687D02*
X002709Y003807D01*
X002679Y003807D01*
X002614Y003807D02*
X002614Y003657D01*
X002584Y003627D01*
X002554Y003627D01*
X002524Y003687D02*
X002614Y003687D01*
X002524Y003687D02*
X002494Y003717D01*
X002494Y003777D01*
X002524Y003807D01*
X002614Y003807D01*
X002709Y003867D02*
X002709Y003897D01*
X002402Y003897D02*
X002402Y003867D01*
X002402Y003807D02*
X002402Y003687D01*
X002372Y003687D02*
X002432Y003687D01*
X002402Y003807D02*
X002372Y003807D01*
X002308Y003807D02*
X002278Y003807D01*
X002218Y003747D01*
X002218Y003687D02*
X002218Y003807D01*
X002154Y003837D02*
X002124Y003867D01*
X002064Y003867D01*
X002034Y003837D01*
X002034Y003717D01*
X002064Y003687D01*
X002124Y003687D01*
X002154Y003717D01*
X002154Y003837D01*
X002481Y003509D02*
X002481Y003329D01*
X002601Y003329D01*
X002665Y003329D02*
X002695Y003329D01*
X002695Y003359D01*
X002665Y003359D01*
X002665Y003329D01*
X002562Y003146D02*
X002562Y002965D01*
X002442Y003146D01*
X002442Y002965D01*
X002472Y002761D02*
X002442Y002731D01*
X002442Y002700D01*
X002472Y002670D01*
X002532Y002670D01*
X002562Y002640D01*
X002562Y002610D01*
X002532Y002580D01*
X002472Y002580D01*
X002442Y002610D01*
X002472Y002761D02*
X002532Y002761D01*
X002562Y002731D01*
X002626Y002610D02*
X002656Y002610D01*
X002656Y002580D01*
X002626Y002580D01*
X002626Y002610D01*
X002902Y002580D02*
X002902Y002761D01*
X002932Y002670D02*
X003022Y002580D01*
X003086Y002610D02*
X003116Y002580D01*
X003176Y002580D01*
X003206Y002610D01*
X003206Y002670D01*
X003176Y002700D01*
X003116Y002700D01*
X003086Y002670D01*
X003086Y002610D01*
X003022Y002761D02*
X002902Y002640D01*
X002932Y002965D02*
X002902Y002995D01*
X002932Y002965D02*
X002992Y002965D01*
X003022Y002995D01*
X003022Y003025D01*
X002992Y003055D01*
X002932Y003055D01*
X002902Y003086D01*
X002902Y003116D01*
X002932Y003146D01*
X002992Y003146D01*
X003022Y003116D01*
X003086Y003055D02*
X003116Y003086D01*
X003176Y003086D01*
X003206Y003055D01*
X003206Y003025D01*
X003086Y003025D01*
X003086Y002995D02*
X003086Y003055D01*
X003086Y002995D02*
X003116Y002965D01*
X003176Y002965D01*
X003271Y002965D02*
X003331Y002965D01*
X003301Y002965D02*
X003301Y003086D01*
X003271Y003086D01*
X003301Y003146D02*
X003301Y003176D01*
X003423Y003086D02*
X003393Y003055D01*
X003393Y002995D01*
X003423Y002965D01*
X003513Y002965D01*
X003513Y003146D01*
X003513Y003086D02*
X003423Y003086D01*
X003577Y003146D02*
X003607Y003146D01*
X003607Y002965D01*
X003577Y002965D02*
X003637Y002965D01*
X003700Y002995D02*
X003700Y003055D01*
X003730Y003086D01*
X003790Y003086D01*
X003820Y003055D01*
X003820Y003025D01*
X003700Y003025D01*
X003700Y002995D02*
X003730Y002965D01*
X003790Y002965D01*
X003759Y002700D02*
X003759Y002550D01*
X003729Y002520D01*
X003699Y002520D01*
X003669Y002580D02*
X003759Y002580D01*
X003823Y002610D02*
X003853Y002640D01*
X003943Y002640D01*
X003943Y002670D02*
X003943Y002580D01*
X003853Y002580D01*
X003823Y002610D01*
X003853Y002700D02*
X003913Y002700D01*
X003943Y002670D01*
X004007Y002670D02*
X004037Y002700D01*
X004127Y002700D01*
X004097Y002640D02*
X004037Y002640D01*
X004007Y002670D01*
X004007Y002580D02*
X004097Y002580D01*
X004127Y002610D01*
X004097Y002640D01*
X004191Y002670D02*
X004221Y002700D01*
X004281Y002700D01*
X004311Y002670D01*
X004311Y002580D01*
X004375Y002580D02*
X004435Y002580D01*
X004405Y002580D02*
X004405Y002700D01*
X004375Y002700D01*
X004405Y002761D02*
X004405Y002791D01*
X004191Y002761D02*
X004191Y002580D01*
X003669Y002580D02*
X003639Y002610D01*
X003639Y002700D01*
X003575Y002670D02*
X003575Y002580D01*
X003485Y002580D01*
X003455Y002610D01*
X003485Y002640D01*
X003575Y002640D01*
X003575Y002670D02*
X003545Y002700D01*
X003485Y002700D01*
X003391Y002670D02*
X003361Y002700D01*
X003271Y002700D01*
X003271Y002761D02*
X003271Y002580D01*
X003361Y002580D01*
X003391Y002610D01*
X003391Y002670D01*
X003108Y002139D02*
X003108Y002109D01*
X003078Y002109D01*
X003078Y002139D01*
X003108Y002139D01*
X003108Y002049D02*
X003108Y002019D01*
X003078Y002019D01*
X003078Y002049D01*
X003108Y002049D01*
X003013Y002019D02*
X003013Y002109D01*
X002983Y002139D01*
X002893Y002139D01*
X002893Y002019D01*
X002829Y002019D02*
X002739Y002019D01*
X002709Y002049D01*
X002709Y002109D01*
X002739Y002139D01*
X002829Y002139D01*
X002829Y001989D01*
X002799Y001959D01*
X002769Y001959D01*
X002647Y002019D02*
X002586Y002019D01*
X002616Y002019D02*
X002616Y002139D01*
X002586Y002139D01*
X002522Y002139D02*
X002432Y002139D01*
X002402Y002109D01*
X002432Y002079D01*
X002492Y002079D01*
X002522Y002049D01*
X002492Y002019D01*
X002402Y002019D01*
X002338Y002079D02*
X002218Y002079D01*
X002218Y002049D02*
X002218Y002109D01*
X002248Y002139D01*
X002308Y002139D01*
X002338Y002109D01*
X002338Y002079D01*
X002308Y002019D02*
X002248Y002019D01*
X002218Y002049D01*
X002154Y002049D02*
X002154Y002169D01*
X002124Y002199D01*
X002034Y002199D01*
X002034Y002019D01*
X002124Y002019D01*
X002154Y002049D01*
X002502Y001806D02*
X002562Y001806D01*
X002532Y001806D02*
X002532Y001655D01*
X002502Y001625D01*
X002472Y001625D01*
X002442Y001655D01*
X002626Y001655D02*
X002656Y001686D01*
X002746Y001686D01*
X002746Y001716D02*
X002746Y001625D01*
X002656Y001625D01*
X002626Y001655D01*
X002656Y001746D02*
X002716Y001746D01*
X002746Y001716D01*
X002810Y001716D02*
X002810Y001655D01*
X002840Y001625D01*
X002930Y001625D01*
X002994Y001655D02*
X003024Y001625D01*
X003084Y001625D01*
X003114Y001655D01*
X003114Y001716D01*
X003084Y001746D01*
X003024Y001746D01*
X002994Y001716D01*
X002994Y001655D01*
X002930Y001746D02*
X002840Y001746D01*
X002810Y001716D01*
X003179Y001746D02*
X003269Y001746D01*
X003299Y001716D01*
X003299Y001655D01*
X003269Y001625D01*
X003179Y001625D01*
X003179Y001806D01*
X003547Y001806D02*
X003547Y001625D01*
X003547Y001686D02*
X003637Y001686D01*
X003667Y001716D01*
X003667Y001776D01*
X003637Y001806D01*
X003547Y001806D01*
X003607Y001686D02*
X003667Y001625D01*
X003731Y001655D02*
X003761Y001625D01*
X003821Y001625D01*
X003851Y001655D01*
X003851Y001716D01*
X003821Y001746D01*
X003761Y001746D01*
X003731Y001716D01*
X003731Y001655D01*
X003915Y001625D02*
X004005Y001625D01*
X004035Y001655D01*
X004005Y001686D01*
X003945Y001686D01*
X003915Y001716D01*
X003945Y001746D01*
X004035Y001746D01*
X004099Y001716D02*
X004129Y001746D01*
X004189Y001746D01*
X004219Y001716D01*
X004219Y001686D01*
X004099Y001686D01*
X004099Y001716D02*
X004099Y001655D01*
X004129Y001625D01*
X004189Y001625D01*
X004283Y001625D02*
X004283Y001746D01*
X004373Y001746D01*
X004403Y001716D01*
X004403Y001625D01*
X004497Y001655D02*
X004527Y001625D01*
X004497Y001655D02*
X004497Y001776D01*
X004467Y001746D02*
X004527Y001746D01*
X004590Y001716D02*
X004620Y001746D01*
X004680Y001746D01*
X004710Y001716D01*
X004710Y001625D01*
X004774Y001655D02*
X004804Y001686D01*
X004894Y001686D01*
X004894Y001716D02*
X004894Y001625D01*
X004804Y001625D01*
X004774Y001655D01*
X004804Y001746D02*
X004864Y001746D01*
X004894Y001716D01*
X004958Y001806D02*
X004988Y001806D01*
X004988Y001625D01*
X004958Y001625D02*
X005019Y001625D01*
X004590Y001625D02*
X004590Y001806D01*
X004259Y003269D02*
X004229Y003269D01*
X004259Y003269D02*
X004289Y003299D01*
X004289Y003449D01*
X004289Y003329D02*
X004199Y003329D01*
X004169Y003359D01*
X004169Y003449D01*
X004105Y003419D02*
X004105Y003389D01*
X003985Y003389D01*
X003985Y003359D02*
X003985Y003419D01*
X004015Y003449D01*
X004075Y003449D01*
X004105Y003419D01*
X004075Y003329D02*
X004015Y003329D01*
X003985Y003359D01*
X003922Y003329D02*
X003862Y003329D01*
X003892Y003329D02*
X003892Y003509D01*
X003862Y003509D01*
X003798Y003419D02*
X003798Y003329D01*
X003798Y003419D02*
X003768Y003449D01*
X003708Y003449D01*
X003678Y003419D01*
X003614Y003449D02*
X003524Y003449D01*
X003494Y003419D01*
X003494Y003359D01*
X003524Y003329D01*
X003614Y003329D01*
X003678Y003329D02*
X003678Y003509D01*
X003691Y003687D02*
X003661Y003717D01*
X003661Y003777D01*
X003691Y003807D01*
X003751Y003807D01*
X003781Y003777D01*
X003781Y003747D01*
X003661Y003747D01*
X003691Y003687D02*
X003751Y003687D01*
X003845Y003687D02*
X003935Y003687D01*
X003965Y003717D01*
X003935Y003747D01*
X003875Y003747D01*
X003845Y003777D01*
X003875Y003807D01*
X003965Y003807D01*
X004029Y003807D02*
X004059Y003807D01*
X004059Y003687D01*
X004029Y003687D02*
X004089Y003687D01*
X004152Y003717D02*
X004182Y003687D01*
X004272Y003687D01*
X004272Y003657D02*
X004272Y003807D01*
X004182Y003807D01*
X004152Y003777D01*
X004152Y003717D01*
X004212Y003627D02*
X004242Y003627D01*
X004272Y003657D01*
X004336Y003687D02*
X004336Y003807D01*
X004426Y003807D01*
X004456Y003777D01*
X004456Y003687D01*
X004520Y003687D02*
X004520Y003717D01*
X004550Y003717D01*
X004550Y003687D01*
X004520Y003687D01*
X004520Y003777D02*
X004520Y003807D01*
X004550Y003807D01*
X004550Y003777D01*
X004520Y003777D01*
X004059Y003867D02*
X004059Y003897D01*
X003597Y003867D02*
X003597Y003687D01*
X003506Y003687D01*
X003476Y003717D01*
X003476Y003777D01*
X003506Y003807D01*
X003597Y003807D01*
X003400Y003449D02*
X003430Y003419D01*
X003430Y003389D01*
X003310Y003389D01*
X003310Y003359D02*
X003310Y003419D01*
X003340Y003449D01*
X003400Y003449D01*
X003400Y003329D02*
X003340Y003329D01*
X003310Y003359D01*
X003246Y003329D02*
X003246Y003449D01*
X003246Y003329D02*
X003156Y003329D01*
X003126Y003359D01*
X003126Y003449D01*
X003062Y003449D02*
X003032Y003419D01*
X002942Y003419D01*
X003032Y003419D02*
X003062Y003389D01*
X003062Y003359D01*
X003032Y003329D01*
X002942Y003329D01*
X002942Y003509D01*
X003032Y003509D01*
X003062Y003479D01*
X003062Y003449D01*
X002656Y002995D02*
X002656Y002965D01*
X002626Y002965D01*
X002626Y002995D01*
X002656Y002995D01*
X002616Y002229D02*
X002616Y002199D01*
D13*
X002619Y001183D02*
X002573Y001136D01*
X002573Y000949D01*
X002619Y000902D01*
X002713Y000902D01*
X002759Y000949D01*
X002867Y000949D02*
X002867Y000902D01*
X002914Y000902D01*
X002914Y000949D01*
X002867Y000949D01*
X002867Y001043D02*
X002867Y001089D01*
X002914Y001089D01*
X002914Y001043D01*
X002867Y001043D01*
X002759Y001136D02*
X002713Y001183D01*
X002619Y001183D01*
X002465Y001136D02*
X002418Y001183D01*
X002325Y001183D01*
X002278Y001136D01*
X002278Y000949D01*
X002325Y000902D01*
X002418Y000902D01*
X002465Y000949D01*
X003309Y000902D02*
X003449Y000902D01*
X003496Y000949D01*
X003496Y000996D01*
X003449Y001043D01*
X003309Y001043D01*
X003309Y001183D02*
X003309Y000902D01*
X003449Y001043D02*
X003496Y001089D01*
X003496Y001136D01*
X003449Y001183D01*
X003309Y001183D01*
X003604Y001183D02*
X003604Y001136D01*
X003697Y001043D01*
X003697Y000902D01*
X003697Y001043D02*
X003791Y001136D01*
X003791Y001183D01*
X003899Y001043D02*
X004085Y001043D01*
X004193Y001089D02*
X004193Y001136D01*
X004240Y001183D01*
X004333Y001183D01*
X004380Y001136D01*
X004333Y001043D02*
X004380Y000996D01*
X004380Y000949D01*
X004333Y000902D01*
X004240Y000902D01*
X004193Y000949D01*
X004240Y001043D02*
X004333Y001043D01*
X004240Y001043D02*
X004193Y001089D01*
X004488Y001089D02*
X004581Y001183D01*
X004675Y001089D01*
X004675Y000902D01*
X004675Y001043D02*
X004488Y001043D01*
X004488Y001089D02*
X004488Y000902D01*
X005077Y000949D02*
X005124Y000902D01*
X005217Y000902D01*
X005264Y000949D01*
X005264Y000996D01*
X005217Y001043D01*
X005170Y001043D01*
X005217Y001043D02*
X005264Y001089D01*
X005264Y001136D01*
X005217Y001183D01*
X005124Y001183D01*
X005077Y001136D01*
X005372Y000949D02*
X005418Y000949D01*
X005418Y000902D01*
X005372Y000902D01*
X005372Y000949D01*
X005519Y000949D02*
X005519Y001136D01*
X005566Y001183D01*
X005659Y001183D01*
X005706Y001136D01*
X005519Y000949D01*
X005566Y000902D01*
X005659Y000902D01*
X005706Y000949D01*
X005706Y001136D01*
X005773Y004681D02*
X005727Y004728D01*
X005727Y004821D01*
X005773Y004868D01*
X005867Y004868D01*
X005913Y004821D01*
X005913Y004774D01*
X005727Y004774D01*
X005773Y004681D02*
X005867Y004681D01*
X006021Y004681D02*
X006021Y004868D01*
X006021Y004774D02*
X006115Y004868D01*
X006161Y004868D01*
X005624Y004681D02*
X005530Y004681D01*
X005577Y004681D02*
X005577Y004961D01*
X005530Y004961D01*
X005381Y004961D02*
X005381Y004681D01*
X005427Y004681D02*
X005334Y004681D01*
X005226Y004728D02*
X005226Y004821D01*
X005179Y004868D01*
X005086Y004868D01*
X005039Y004821D01*
X005039Y004728D01*
X005086Y004681D01*
X005179Y004681D01*
X005226Y004728D01*
X005334Y004961D02*
X005381Y004961D01*
X004934Y004868D02*
X004887Y004868D01*
X004794Y004774D01*
X004794Y004681D02*
X004794Y004868D01*
X004691Y004868D02*
X004597Y004868D01*
X004644Y004914D02*
X004644Y004728D01*
X004691Y004681D01*
X004489Y004681D02*
X004489Y004821D01*
X004443Y004868D01*
X004303Y004868D01*
X004303Y004681D01*
X004195Y004728D02*
X004195Y004821D01*
X004148Y004868D01*
X004055Y004868D01*
X004008Y004821D01*
X004008Y004728D01*
X004055Y004681D01*
X004148Y004681D01*
X004195Y004728D01*
X003900Y004728D02*
X003853Y004681D01*
X003760Y004681D01*
X003713Y004728D01*
X003713Y004914D01*
X003760Y004961D01*
X003853Y004961D01*
X003900Y004914D01*
X003311Y004868D02*
X003171Y004868D01*
X003124Y004821D01*
X003124Y004728D01*
X003171Y004681D01*
X003311Y004681D01*
X003021Y004681D02*
X002928Y004681D01*
X002974Y004681D02*
X002974Y004868D01*
X002928Y004868D01*
X002825Y004868D02*
X002731Y004868D01*
X002778Y004914D02*
X002778Y004728D01*
X002825Y004681D01*
X002623Y004728D02*
X002577Y004681D01*
X002437Y004681D01*
X002437Y004588D02*
X002437Y004868D01*
X002577Y004868D01*
X002623Y004821D01*
X002623Y004728D01*
X002329Y004774D02*
X002189Y004774D01*
X002142Y004728D01*
X002189Y004681D01*
X002329Y004681D01*
X002329Y004821D01*
X002282Y004868D01*
X002189Y004868D01*
X002034Y004821D02*
X001847Y004821D01*
X001847Y004681D02*
X001847Y004961D01*
X002034Y004961D02*
X002034Y004681D01*
X002974Y004961D02*
X002974Y005008D01*
D14*
X007026Y002540D02*
X007026Y002360D01*
X007071Y002315D01*
X007161Y002315D01*
X007206Y002360D01*
X007206Y002540D01*
X007161Y002585D01*
X007071Y002585D01*
X007026Y002540D01*
X007320Y002495D02*
X007320Y002315D01*
X007320Y002495D02*
X007455Y002495D01*
X007501Y002450D01*
X007501Y002315D01*
X008093Y002206D02*
X008093Y001956D01*
X008343Y002206D01*
X008093Y002206D01*
X007540Y000827D02*
X007360Y000827D01*
X007450Y000827D02*
X007450Y000557D01*
X007245Y000602D02*
X007200Y000557D01*
X007065Y000557D01*
X007065Y000827D01*
X007200Y000827D01*
X007245Y000782D01*
X007245Y000737D01*
X007200Y000692D01*
X007065Y000692D01*
X007200Y000692D02*
X007245Y000647D01*
X007245Y000602D01*
X001454Y015829D02*
X001363Y015829D01*
X001318Y015874D01*
X001318Y016054D01*
X001363Y016099D01*
X001454Y016099D01*
X001499Y016054D01*
X001499Y015964D02*
X001408Y015964D01*
X001499Y015964D02*
X001499Y015874D01*
X001454Y015829D01*
X001204Y015829D02*
X001204Y016099D01*
X001204Y015964D02*
X001024Y015964D01*
X001024Y015829D02*
X001024Y016099D01*
X000909Y016054D02*
X000864Y016099D01*
X000774Y016099D01*
X000729Y016054D01*
X000729Y015874D01*
X000774Y015829D01*
X000864Y015829D01*
X000909Y015874D01*
X001450Y017072D02*
X001700Y017322D01*
X001700Y017072D01*
X001450Y017072D01*
X008101Y019450D02*
X008416Y019450D01*
X008101Y019450D02*
X008101Y020198D01*
X011330Y019450D02*
X011645Y019450D01*
X011645Y020198D01*
D15*
X007584Y019653D02*
X003005Y019653D01*
X003005Y021365D01*
X007584Y021365D01*
X007584Y019653D01*
X005657Y016048D02*
X005657Y015710D01*
X005203Y015560D02*
X004992Y015560D01*
X004537Y015710D02*
X004537Y016048D01*
X003964Y016048D02*
X003964Y015710D01*
X003510Y016198D02*
X003299Y016198D01*
X002844Y016048D02*
X002844Y015710D01*
X001932Y014880D02*
X001432Y014880D01*
X001432Y014280D02*
X001932Y014280D01*
X005530Y011501D02*
X006042Y011501D01*
X006042Y010083D02*
X005530Y010083D01*
X005003Y006256D02*
X005003Y006103D01*
X005003Y005796D02*
X004850Y005796D01*
X005003Y005796D02*
X005003Y005182D01*
X004850Y005182D02*
X005157Y005182D01*
X005464Y005335D02*
X005617Y005182D01*
X005924Y005182D01*
X006078Y005335D01*
X005464Y005335D02*
X005464Y005949D01*
X005617Y006103D01*
X005924Y006103D01*
X006078Y005949D01*
X004543Y005642D02*
X004543Y005335D01*
X004390Y005182D01*
X003929Y005182D01*
X003929Y006103D01*
X003929Y005796D02*
X004390Y005796D01*
X004543Y005642D01*
X003622Y005335D02*
X003622Y006103D01*
X003008Y006103D02*
X003008Y005335D01*
X003162Y005182D01*
X003469Y005182D01*
X003622Y005335D01*
X002702Y005335D02*
X002548Y005182D01*
X002241Y005182D01*
X002088Y005335D01*
X002088Y005949D01*
X002241Y006103D01*
X002548Y006103D01*
X002702Y005949D01*
D16*
X006998Y011419D02*
X006998Y014039D01*
X007138Y014179D01*
X009758Y014179D01*
X009758Y011419D01*
X006998Y011419D01*
X007814Y010332D02*
X008050Y010332D01*
X008050Y009859D02*
X007814Y009859D01*
X011003Y011706D02*
X011239Y011706D01*
X011239Y012178D02*
X011003Y012178D01*
X011003Y012434D02*
X011239Y012434D01*
X011239Y012907D02*
X011003Y012907D01*
X008641Y016233D02*
X008404Y016233D01*
X008404Y016706D02*
X008641Y016706D01*
X008739Y017021D02*
X008975Y017021D01*
X008975Y017493D02*
X008739Y017493D01*
X007157Y013879D02*
X007159Y013902D01*
X007165Y013925D01*
X007174Y013946D01*
X007187Y013966D01*
X007203Y013983D01*
X007221Y013997D01*
X007241Y014008D01*
X007263Y014016D01*
X007286Y014020D01*
X007310Y014020D01*
X007333Y014016D01*
X007355Y014008D01*
X007375Y013997D01*
X007393Y013983D01*
X007409Y013966D01*
X007422Y013946D01*
X007431Y013925D01*
X007437Y013902D01*
X007439Y013879D01*
X007437Y013856D01*
X007431Y013833D01*
X007422Y013812D01*
X007409Y013792D01*
X007393Y013775D01*
X007375Y013761D01*
X007355Y013750D01*
X007333Y013742D01*
X007310Y013738D01*
X007286Y013738D01*
X007263Y013742D01*
X007241Y013750D01*
X007221Y013761D01*
X007203Y013775D01*
X007187Y013792D01*
X007174Y013812D01*
X007165Y013833D01*
X007159Y013856D01*
X007157Y013879D01*
X005215Y014324D02*
X004979Y014324D01*
X004979Y014796D02*
X005215Y014796D01*
X003523Y014796D02*
X003286Y014796D01*
X003286Y014324D02*
X003523Y014324D01*
X003523Y016981D02*
X003286Y016981D01*
X003286Y017454D02*
X003523Y017454D01*
X002739Y018202D02*
X002503Y018202D01*
X002503Y018674D02*
X002739Y018674D01*
X004979Y017454D02*
X005215Y017454D01*
X005215Y016981D02*
X004979Y016981D01*
X007983Y003981D02*
X007983Y003745D01*
X008456Y003745D02*
X008456Y003981D01*
X008845Y003993D02*
X008845Y003757D01*
X009318Y003757D02*
X009318Y003993D01*
D17*
X009105Y003232D02*
X009055Y003232D01*
X009030Y003207D01*
X008982Y003207D02*
X008982Y003157D01*
X008957Y003132D01*
X008882Y003132D01*
X008932Y003132D02*
X008982Y003082D01*
X009030Y003082D02*
X009130Y003182D01*
X009130Y003207D01*
X009105Y003232D01*
X008982Y003207D02*
X008957Y003232D01*
X008882Y003232D01*
X008882Y003082D01*
X009030Y003082D02*
X009130Y003082D01*
X008433Y003082D02*
X008333Y003082D01*
X008285Y003082D02*
X008235Y003132D01*
X008260Y003132D02*
X008185Y003132D01*
X008185Y003082D02*
X008185Y003232D01*
X008260Y003232D01*
X008285Y003207D01*
X008285Y003157D01*
X008260Y003132D01*
X008333Y003182D02*
X008383Y003232D01*
X008383Y003082D01*
X008361Y009554D02*
X008336Y009579D01*
X008336Y009604D01*
X008361Y009629D01*
X008412Y009629D01*
X008437Y009604D01*
X008437Y009579D01*
X008412Y009554D01*
X008361Y009554D01*
X008289Y009554D02*
X008239Y009604D01*
X008264Y009604D02*
X008189Y009604D01*
X008189Y009554D02*
X008189Y009704D01*
X008264Y009704D01*
X008289Y009679D01*
X008289Y009629D01*
X008264Y009604D01*
X008336Y009654D02*
X008361Y009629D01*
X008336Y009654D02*
X008336Y009679D01*
X008361Y009704D01*
X008412Y009704D01*
X008437Y009679D01*
X008437Y009654D01*
X008412Y009629D01*
X011131Y011487D02*
X011156Y011462D01*
X011206Y011462D01*
X011231Y011487D01*
X011279Y011487D02*
X011304Y011462D01*
X011354Y011462D01*
X011379Y011487D01*
X011379Y011512D01*
X011354Y011537D01*
X011329Y011537D01*
X011354Y011537D02*
X011379Y011562D01*
X011379Y011587D01*
X011354Y011612D01*
X011304Y011612D01*
X011279Y011587D01*
X011231Y011587D02*
X011206Y011612D01*
X011156Y011612D01*
X011131Y011587D01*
X011131Y011487D01*
X011317Y013080D02*
X011367Y013080D01*
X011392Y013105D01*
X011440Y013105D02*
X011465Y013080D01*
X011515Y013080D01*
X011540Y013105D01*
X011540Y013130D01*
X011515Y013155D01*
X011440Y013155D01*
X011440Y013105D01*
X011440Y013155D02*
X011490Y013205D01*
X011540Y013230D01*
X011392Y013205D02*
X011367Y013230D01*
X011317Y013230D01*
X011292Y013205D01*
X011292Y013105D01*
X011317Y013080D01*
X008915Y015908D02*
X008915Y015933D01*
X009015Y016034D01*
X009015Y016059D01*
X008915Y016059D01*
X008868Y016034D02*
X008868Y015984D01*
X008843Y015959D01*
X008768Y015959D01*
X008818Y015959D02*
X008868Y015908D01*
X008768Y015908D02*
X008768Y016059D01*
X008843Y016059D01*
X008868Y016034D01*
X008996Y016802D02*
X008996Y016952D01*
X009071Y016952D01*
X009096Y016927D01*
X009096Y016877D01*
X009071Y016852D01*
X008996Y016852D01*
X009046Y016852D02*
X009096Y016802D01*
X009144Y016827D02*
X009169Y016802D01*
X009219Y016802D01*
X009244Y016827D01*
X009244Y016852D01*
X009219Y016877D01*
X009144Y016877D01*
X009144Y016827D01*
X009144Y016877D02*
X009194Y016927D01*
X009244Y016952D01*
X005602Y014177D02*
X005602Y014151D01*
X005502Y014051D01*
X005502Y014026D01*
X005455Y014051D02*
X005430Y014026D01*
X005380Y014026D01*
X005355Y014051D01*
X005355Y014151D01*
X005380Y014177D01*
X005430Y014177D01*
X005455Y014151D01*
X005502Y014177D02*
X005602Y014177D01*
X003937Y014163D02*
X003912Y014189D01*
X003862Y014189D01*
X003837Y014163D01*
X003837Y014138D01*
X003862Y014113D01*
X003937Y014113D01*
X003937Y014063D02*
X003937Y014163D01*
X003937Y014063D02*
X003912Y014038D01*
X003862Y014038D01*
X003837Y014063D01*
X003789Y014063D02*
X003764Y014038D01*
X003714Y014038D01*
X003689Y014063D01*
X003689Y014163D01*
X003714Y014189D01*
X003764Y014189D01*
X003789Y014163D01*
X002170Y013895D02*
X002070Y013895D01*
X002120Y013895D02*
X002120Y014045D01*
X002070Y013995D01*
X002023Y014045D02*
X001923Y014045D01*
X001923Y013895D01*
X001923Y013970D02*
X001973Y013970D01*
X003242Y016696D02*
X003292Y016696D01*
X003317Y016721D01*
X003364Y016696D02*
X003464Y016696D01*
X003414Y016696D02*
X003414Y016846D01*
X003364Y016796D01*
X003317Y016821D02*
X003292Y016846D01*
X003242Y016846D01*
X003217Y016821D01*
X003217Y016721D01*
X003242Y016696D01*
X003512Y016721D02*
X003612Y016821D01*
X003612Y016721D01*
X003587Y016696D01*
X003537Y016696D01*
X003512Y016721D01*
X003512Y016821D01*
X003537Y016846D01*
X003587Y016846D01*
X003612Y016821D01*
X002667Y017904D02*
X002692Y017929D01*
X002692Y018029D01*
X002667Y018054D01*
X002617Y018054D01*
X002592Y018029D01*
X002592Y018004D01*
X002617Y017979D01*
X002692Y017979D01*
X002667Y017904D02*
X002617Y017904D01*
X002592Y017929D01*
X002545Y017904D02*
X002495Y017954D01*
X002520Y017954D02*
X002445Y017954D01*
X002445Y017904D02*
X002445Y018054D01*
X002520Y018054D01*
X002545Y018029D01*
X002545Y017979D01*
X002520Y017954D01*
X004921Y016888D02*
X004921Y016788D01*
X004946Y016763D01*
X004996Y016763D01*
X005022Y016788D01*
X005069Y016763D02*
X005169Y016863D01*
X005169Y016888D01*
X005144Y016913D01*
X005094Y016913D01*
X005069Y016888D01*
X005022Y016888D02*
X004996Y016913D01*
X004946Y016913D01*
X004921Y016888D01*
X005069Y016763D02*
X005169Y016763D01*
M02*
