%
M48
M72
T01C0.0120
T02C0.0400
T03C0.0591
%
T01
X2145Y8832
X1869Y12218
X3050Y14974
X7381Y13477
X7893Y13320
X8208Y13596
X9074Y12139
X7420Y12060
X7893Y15446
X8168Y16037
X8444Y6824
T02
X9393Y6694
X9393Y7694
X9393Y8694
X10393Y8694
X10393Y7694
X10393Y6694
X6294Y20509
X5294Y20509
X4294Y20509
T03
X1200Y17572
X8593Y1706
M30
