G75*
G70*
%OFA0B0*%
%FSLAX24Y24*%
%IPPOS*%
%LPD*%
%AMOC8*
5,1,8,0,0,1.08239X$1,22.5*
%
%ADD10C,0.0000*%
%ADD11R,0.0315X0.0472*%
%ADD12R,0.0551X0.0630*%
%ADD13R,0.0531X0.0157*%
%ADD14R,0.0630X0.0827*%
%ADD15R,0.0748X0.0748*%
%ADD16R,0.0630X0.0315*%
%ADD17R,0.0315X0.0630*%
%ADD18OC8,0.0740*%
%ADD19R,0.0550X0.0137*%
%ADD20R,0.0472X0.0472*%
%ADD21C,0.0740*%
%ADD22R,0.0500X0.0250*%
%ADD23C,0.0080*%
%ADD24R,0.0157X0.0276*%
%ADD25C,0.0060*%
%ADD26C,0.0240*%
D10*
X000373Y000131D02*
X000373Y019127D01*
X001840Y019127D01*
X001903Y019129D01*
X001967Y019134D01*
X002030Y019144D01*
X002092Y019156D01*
X002153Y019173D01*
X002213Y019193D01*
X002273Y019216D01*
X002330Y019243D01*
X002386Y019273D01*
X002440Y019307D01*
X002492Y019343D01*
X002542Y019382D01*
X002589Y019425D01*
X002634Y019470D01*
X002677Y019517D01*
X002716Y019567D01*
X002752Y019619D01*
X002786Y019673D01*
X002816Y019729D01*
X002843Y019786D01*
X002866Y019846D01*
X002886Y019906D01*
X002903Y019967D01*
X002915Y020029D01*
X002925Y020092D01*
X002930Y020156D01*
X002932Y020219D01*
X002932Y021588D01*
X011987Y021588D01*
X011987Y002690D01*
X010554Y002690D01*
X010489Y002688D01*
X010423Y002682D01*
X010358Y002673D01*
X010294Y002660D01*
X010231Y002643D01*
X010169Y002622D01*
X010108Y002598D01*
X010049Y002570D01*
X009991Y002539D01*
X009935Y002505D01*
X009882Y002467D01*
X009830Y002427D01*
X009781Y002383D01*
X009735Y002337D01*
X009691Y002288D01*
X009651Y002236D01*
X009613Y002183D01*
X009579Y002127D01*
X009548Y002069D01*
X009520Y002010D01*
X009496Y001949D01*
X009475Y001887D01*
X009458Y001824D01*
X009445Y001760D01*
X009436Y001695D01*
X009430Y001629D01*
X009428Y001564D01*
X009428Y000131D01*
X000373Y000131D01*
X008298Y001706D02*
X008300Y001740D01*
X008306Y001774D01*
X008316Y001807D01*
X008329Y001838D01*
X008347Y001868D01*
X008367Y001896D01*
X008391Y001921D01*
X008417Y001943D01*
X008445Y001961D01*
X008476Y001977D01*
X008508Y001989D01*
X008542Y001997D01*
X008576Y002001D01*
X008610Y002001D01*
X008644Y001997D01*
X008678Y001989D01*
X008710Y001977D01*
X008740Y001961D01*
X008769Y001943D01*
X008795Y001921D01*
X008819Y001896D01*
X008839Y001868D01*
X008857Y001838D01*
X008870Y001807D01*
X008880Y001774D01*
X008886Y001740D01*
X008888Y001706D01*
X008886Y001672D01*
X008880Y001638D01*
X008870Y001605D01*
X008857Y001574D01*
X008839Y001544D01*
X008819Y001516D01*
X008795Y001491D01*
X008769Y001469D01*
X008741Y001451D01*
X008710Y001435D01*
X008678Y001423D01*
X008644Y001415D01*
X008610Y001411D01*
X008576Y001411D01*
X008542Y001415D01*
X008508Y001423D01*
X008476Y001435D01*
X008445Y001451D01*
X008417Y001469D01*
X008391Y001491D01*
X008367Y001516D01*
X008347Y001544D01*
X008329Y001574D01*
X008316Y001605D01*
X008306Y001638D01*
X008300Y001672D01*
X008298Y001706D01*
X009428Y000131D02*
X011987Y000131D01*
X011987Y002690D01*
X000905Y017572D02*
X000907Y017606D01*
X000913Y017640D01*
X000923Y017673D01*
X000936Y017704D01*
X000954Y017734D01*
X000974Y017762D01*
X000998Y017787D01*
X001024Y017809D01*
X001052Y017827D01*
X001083Y017843D01*
X001115Y017855D01*
X001149Y017863D01*
X001183Y017867D01*
X001217Y017867D01*
X001251Y017863D01*
X001285Y017855D01*
X001317Y017843D01*
X001347Y017827D01*
X001376Y017809D01*
X001402Y017787D01*
X001426Y017762D01*
X001446Y017734D01*
X001464Y017704D01*
X001477Y017673D01*
X001487Y017640D01*
X001493Y017606D01*
X001495Y017572D01*
X001493Y017538D01*
X001487Y017504D01*
X001477Y017471D01*
X001464Y017440D01*
X001446Y017410D01*
X001426Y017382D01*
X001402Y017357D01*
X001376Y017335D01*
X001348Y017317D01*
X001317Y017301D01*
X001285Y017289D01*
X001251Y017281D01*
X001217Y017277D01*
X001183Y017277D01*
X001149Y017281D01*
X001115Y017289D01*
X001083Y017301D01*
X001052Y017317D01*
X001024Y017335D01*
X000998Y017357D01*
X000974Y017382D01*
X000954Y017410D01*
X000936Y017440D01*
X000923Y017471D01*
X000913Y017504D01*
X000907Y017538D01*
X000905Y017572D01*
X000373Y019127D02*
X000373Y021588D01*
X002932Y021588D01*
D11*
X003011Y017007D03*
X002995Y016248D03*
X003704Y016248D03*
X003719Y017007D03*
X004645Y014619D03*
X004645Y013832D03*
X005353Y013832D03*
X005353Y014619D03*
X009113Y009619D03*
X009822Y009619D03*
X010806Y010718D03*
X011515Y010718D03*
X001637Y008796D03*
X000928Y008796D03*
D12*
X004192Y015415D03*
X005294Y015415D03*
D13*
X002358Y013003D03*
X002358Y012747D03*
X002358Y012491D03*
X002358Y012235D03*
X002358Y011979D03*
D14*
X002308Y011270D03*
X002308Y013711D03*
D15*
X001304Y014085D03*
X001304Y012963D03*
X001304Y012018D03*
X001304Y010896D03*
D16*
X002731Y009292D03*
X002731Y008820D03*
X002731Y008348D03*
X002731Y007875D03*
X002731Y007403D03*
X002731Y006930D03*
X002731Y006458D03*
X002731Y005985D03*
X002731Y005513D03*
X002731Y005040D03*
X002731Y004568D03*
X002731Y004096D03*
X007928Y004096D03*
X007928Y004568D03*
X007928Y005040D03*
X007928Y005513D03*
X007928Y005985D03*
X007928Y006458D03*
X007928Y006930D03*
X007928Y007403D03*
X007928Y007875D03*
X007928Y008348D03*
X007928Y008820D03*
X007928Y009292D03*
D17*
X006953Y010395D03*
X006550Y010395D03*
X006078Y010395D03*
X005605Y010395D03*
X005054Y010395D03*
X004582Y010395D03*
X004109Y010395D03*
X003707Y010395D03*
X005960Y002993D03*
X006589Y002993D03*
X007219Y002993D03*
D18*
X009393Y006694D03*
X009393Y007694D03*
X009393Y008694D03*
X010393Y008694D03*
X010393Y007694D03*
X010393Y006694D03*
D19*
X009155Y014251D03*
X009155Y014507D03*
X009155Y014763D03*
X009155Y015019D03*
X009155Y015275D03*
X009155Y015531D03*
X009155Y015787D03*
X009155Y016042D03*
X009155Y016298D03*
X009155Y016554D03*
X009155Y016810D03*
X009155Y017066D03*
X009155Y017322D03*
X009155Y017578D03*
X006276Y017578D03*
X006276Y017322D03*
X006276Y017066D03*
X006276Y016810D03*
X006276Y016554D03*
X006276Y016298D03*
X006276Y016042D03*
X006276Y015787D03*
X006276Y015531D03*
X006276Y015275D03*
X006276Y015019D03*
X006276Y014763D03*
X006276Y014507D03*
X006276Y014251D03*
D20*
X005412Y016233D03*
X005412Y017001D03*
X004586Y017001D03*
X004586Y016233D03*
D21*
X004294Y020509D03*
X005294Y020509D03*
X006294Y020509D03*
D22*
X010845Y009898D03*
X010845Y009498D03*
D23*
X010845Y009580D01*
X010373Y009580D01*
X011003Y008950D01*
X011003Y007336D01*
X010373Y006706D01*
X010393Y006694D01*
X009393Y008694D02*
X009113Y008753D01*
X009113Y009619D01*
X009152Y009659D01*
X009152Y012100D01*
X009074Y012139D01*
X009113Y012100D01*
X009074Y012139D02*
X008739Y012474D01*
X008227Y012474D02*
X008208Y012493D01*
X008208Y013005D01*
X007893Y013320D01*
X008208Y013596D02*
X009782Y012021D01*
X009782Y009698D01*
X009822Y009619D01*
X009861Y009580D01*
X010373Y009580D01*
X010845Y009548D02*
X010845Y009848D01*
X010845Y009898D02*
X010845Y010718D01*
X010806Y010718D01*
X011475Y010722D02*
X011515Y010718D01*
X011475Y010722D02*
X011475Y015249D01*
X009428Y017296D01*
X009192Y017296D01*
X009155Y017322D01*
X009152Y017572D02*
X008916Y017572D01*
X007893Y016548D01*
X007893Y015446D01*
X008168Y016037D02*
X008719Y016588D01*
X009152Y016588D01*
X009155Y016554D01*
X009192Y016785D02*
X009155Y016810D01*
X009192Y016785D02*
X009428Y016785D01*
X009704Y016509D01*
X009704Y014107D01*
X009546Y013950D01*
X007341Y013950D01*
X006554Y014737D01*
X006278Y014737D01*
X006276Y014763D01*
X006239Y014737D01*
X006003Y014737D01*
X005767Y014501D01*
X005767Y014226D01*
X005373Y013832D01*
X005353Y013832D01*
X005373Y014619D02*
X005353Y014619D01*
X005373Y014619D02*
X005373Y015249D01*
X005294Y015415D01*
X005176Y015210D01*
X005176Y015170D02*
X004979Y014974D01*
X003050Y014974D01*
X003050Y016273D01*
X002995Y016248D01*
X002971Y016194D01*
X002971Y016233D02*
X002995Y016248D01*
X003011Y016312D01*
X003011Y017007D01*
X003011Y016273D02*
X002995Y016248D01*
X003704Y016248D02*
X003719Y016233D01*
X004586Y016233D01*
X004586Y017001D02*
X004586Y017021D01*
X003719Y017021D01*
X003719Y017007D01*
X005294Y015415D02*
X005176Y015170D01*
X005215Y015289D02*
X005334Y015407D01*
X005294Y015415D01*
X005255Y015289D01*
X006239Y015289D01*
X006276Y015275D01*
X006278Y015289D01*
X006278Y015525D01*
X006276Y015531D01*
X006276Y016042D02*
X006239Y016076D01*
X006003Y016076D01*
X005845Y016233D01*
X005412Y016233D01*
X006003Y016312D02*
X005452Y016863D01*
X005452Y016981D01*
X005412Y017001D01*
X006003Y016312D02*
X006239Y016312D01*
X006276Y016298D01*
X006276Y014507D02*
X006278Y014501D01*
X006515Y014501D01*
X006672Y014344D01*
X006672Y014147D01*
X004743Y012218D01*
X002381Y012218D01*
X002358Y012235D01*
X002341Y011981D02*
X002105Y011981D01*
X001869Y012218D01*
X002341Y011981D02*
X002358Y011979D01*
X002358Y012491D02*
X002381Y012493D01*
X004586Y012493D01*
X006239Y014147D01*
X006239Y014226D01*
X006276Y014251D01*
X007381Y013477D02*
X007381Y012533D01*
X007420Y012474D01*
X007381Y012493D01*
X007420Y012060D02*
X007164Y011804D01*
X007676Y011804D02*
X007696Y011785D01*
X007696Y009540D01*
X007932Y009304D01*
X007928Y009292D01*
X007932Y008832D02*
X007928Y008820D01*
X007932Y008832D02*
X008089Y008832D01*
X008444Y009186D01*
X008444Y011785D01*
X008483Y011804D01*
X009782Y009659D02*
X009822Y009619D01*
X009393Y008694D02*
X009113Y008714D01*
X008444Y006824D02*
X008089Y006470D01*
X007932Y006470D01*
X007928Y006458D01*
X007893Y006470D01*
X007774Y006470D01*
X002731Y008820D02*
X002696Y008792D01*
X002184Y008792D01*
X002145Y008832D01*
X002105Y008792D01*
X001672Y008792D01*
X001637Y008796D01*
X009152Y017572D02*
X009155Y017578D01*
D24*
X008739Y012474D03*
X008227Y012474D03*
X008227Y011804D03*
X008483Y011804D03*
X008739Y011804D03*
X007676Y011804D03*
X007164Y011804D03*
X007164Y012474D03*
X007420Y012474D03*
X007676Y012474D03*
D25*
X007667Y012483D02*
X007667Y012741D01*
X007580Y012741D01*
X007547Y012732D01*
X007517Y012715D01*
X007511Y012709D01*
X007511Y013310D01*
X007591Y013390D01*
X007591Y013564D01*
X007468Y013687D01*
X007294Y013687D01*
X007171Y013564D01*
X007171Y013390D01*
X007251Y013310D01*
X007251Y012741D01*
X007174Y012741D01*
X007174Y012483D01*
X007155Y012483D01*
X007155Y012741D01*
X007068Y012741D01*
X007035Y012732D01*
X007006Y012715D01*
X006981Y012691D01*
X006964Y012661D01*
X006956Y012628D01*
X006956Y012483D01*
X007155Y012483D01*
X007155Y012464D01*
X007174Y012464D01*
X007174Y012206D01*
X007260Y012206D01*
X007272Y012209D01*
X007210Y012147D01*
X007210Y012034D01*
X007208Y012032D01*
X007048Y012032D01*
X006996Y011979D01*
X006996Y011629D01*
X007048Y011576D01*
X007280Y011576D01*
X007333Y011629D01*
X007333Y011789D01*
X007394Y011850D01*
X007507Y011850D01*
X007507Y011850D01*
X007507Y011629D01*
X007560Y011576D01*
X007566Y011576D01*
X007566Y009594D01*
X007566Y009530D01*
X007523Y009487D01*
X007523Y009098D01*
X007565Y009056D01*
X007523Y009015D01*
X007523Y008625D01*
X007565Y008584D01*
X007523Y008542D01*
X007523Y008153D01*
X007565Y008111D01*
X007523Y008070D01*
X007523Y007680D01*
X007565Y007639D01*
X007523Y007597D01*
X007523Y007208D01*
X007565Y007166D01*
X007523Y007125D01*
X007523Y006735D01*
X007565Y006694D01*
X007523Y006653D01*
X007523Y006263D01*
X007565Y006222D01*
X007523Y006180D01*
X007523Y005791D01*
X007565Y005749D01*
X007523Y005708D01*
X007523Y005318D01*
X007565Y005277D01*
X007523Y005235D01*
X007523Y004846D01*
X007565Y004804D01*
X007523Y004763D01*
X007523Y004373D01*
X007565Y004332D01*
X007523Y004290D01*
X007523Y003901D01*
X007576Y003848D01*
X008280Y003848D01*
X008333Y003901D01*
X008333Y004290D01*
X008291Y004332D01*
X008333Y004373D01*
X008333Y004763D01*
X008291Y004804D01*
X008333Y004846D01*
X008333Y005235D01*
X008291Y005277D01*
X008333Y005318D01*
X008333Y005708D01*
X008291Y005749D01*
X008333Y005791D01*
X008333Y006180D01*
X008291Y006222D01*
X008333Y006263D01*
X008333Y006529D01*
X008418Y006614D01*
X008531Y006614D01*
X008654Y006737D01*
X008654Y006911D01*
X008531Y007034D01*
X008357Y007034D01*
X008333Y007010D01*
X008333Y007125D01*
X008291Y007166D01*
X008333Y007208D01*
X008333Y007597D01*
X008291Y007639D01*
X008333Y007680D01*
X008333Y008070D01*
X008291Y008111D01*
X008333Y008153D01*
X008333Y008542D01*
X008291Y008584D01*
X008333Y008625D01*
X008333Y008892D01*
X008574Y009132D01*
X008574Y009240D01*
X008574Y011569D01*
X008580Y011562D01*
X008610Y011545D01*
X008643Y011536D01*
X008730Y011536D01*
X008730Y011795D01*
X008748Y011795D01*
X008748Y011536D01*
X008835Y011536D01*
X008868Y011545D01*
X008898Y011562D01*
X008922Y011587D01*
X008939Y011616D01*
X008948Y011649D01*
X008948Y011795D01*
X008749Y011795D01*
X008749Y011814D01*
X008948Y011814D01*
X008948Y011959D01*
X008945Y011971D01*
X008987Y011929D01*
X009022Y011929D01*
X009022Y009945D01*
X008918Y009945D01*
X008866Y009893D01*
X008866Y009346D01*
X008918Y009293D01*
X008983Y009293D01*
X008983Y008935D01*
X008933Y008885D01*
X008933Y008503D01*
X008333Y008503D01*
X008333Y008444D02*
X008992Y008444D01*
X009050Y008386D02*
X008333Y008386D01*
X008333Y008327D02*
X009109Y008327D01*
X009168Y008269D02*
X008333Y008269D01*
X008333Y008210D02*
X010873Y008210D01*
X010873Y008269D02*
X010618Y008269D01*
X010583Y008234D02*
X010853Y008503D01*
X010853Y008885D01*
X010583Y009154D01*
X010202Y009154D01*
X009933Y008885D01*
X009933Y008503D01*
X009852Y008503D01*
X009853Y008503D02*
X009853Y008885D01*
X009583Y009154D01*
X009243Y009154D01*
X009243Y009293D01*
X009308Y009293D01*
X009361Y009346D01*
X009361Y009893D01*
X009308Y009945D01*
X009282Y009945D01*
X009282Y012051D01*
X009284Y012052D01*
X009284Y012071D01*
X009293Y012090D01*
X009284Y012117D01*
X009284Y012226D01*
X009161Y012349D01*
X009048Y012349D01*
X008908Y012489D01*
X008908Y012649D01*
X008855Y012701D01*
X008623Y012701D01*
X008570Y012649D01*
X008570Y012298D01*
X008623Y012246D01*
X008783Y012246D01*
X008864Y012165D01*
X008864Y012064D01*
X008835Y012072D01*
X008748Y012072D01*
X008748Y011814D01*
X008730Y011814D01*
X008730Y012072D01*
X008643Y012072D01*
X008610Y012063D01*
X008580Y012046D01*
X008566Y012032D01*
X008400Y012032D01*
X008386Y012046D01*
X008356Y012063D01*
X008323Y012072D01*
X008237Y012072D01*
X008237Y011814D01*
X008218Y011814D01*
X008218Y012072D01*
X008131Y012072D01*
X008098Y012063D01*
X008069Y012046D01*
X008044Y012022D01*
X008027Y011992D01*
X008019Y011959D01*
X008019Y011814D01*
X008218Y011814D01*
X008218Y011795D01*
X008237Y011795D01*
X008237Y011536D01*
X008314Y011536D01*
X008314Y009506D01*
X008280Y009540D01*
X007880Y009540D01*
X007826Y009594D01*
X007826Y011610D01*
X007845Y011629D01*
X007845Y011979D01*
X007792Y012032D01*
X007630Y012032D01*
X007630Y012147D01*
X007568Y012209D01*
X007580Y012206D01*
X007667Y012206D01*
X007667Y012464D01*
X007685Y012464D01*
X007685Y012206D01*
X007772Y012206D01*
X007805Y012215D01*
X007835Y012232D01*
X007859Y012256D01*
X007876Y012286D01*
X007885Y012319D01*
X007885Y012464D01*
X007686Y012464D01*
X007686Y012483D01*
X007885Y012483D01*
X007885Y012628D01*
X007876Y012661D01*
X007859Y012691D01*
X007835Y012715D01*
X007805Y012732D01*
X007772Y012741D01*
X007685Y012741D01*
X007685Y012483D01*
X007667Y012483D01*
X007667Y012484D02*
X007685Y012484D01*
X007685Y012542D02*
X007667Y012542D01*
X007667Y012601D02*
X007685Y012601D01*
X007685Y012659D02*
X007667Y012659D01*
X007667Y012718D02*
X007685Y012718D01*
X007830Y012718D02*
X008078Y012718D01*
X008078Y012668D02*
X008059Y012649D01*
X008059Y012298D01*
X008111Y012246D01*
X008343Y012246D01*
X008396Y012298D01*
X008396Y012649D01*
X008343Y012701D01*
X008338Y012701D01*
X008338Y012951D01*
X008338Y013059D01*
X008103Y013294D01*
X008103Y013404D01*
X008121Y013386D01*
X008234Y013386D01*
X009652Y011967D01*
X009652Y009945D01*
X009627Y009945D01*
X009574Y009893D01*
X009574Y009346D01*
X009627Y009293D01*
X010016Y009293D01*
X010069Y009346D01*
X010069Y009450D01*
X010319Y009450D01*
X010873Y008896D01*
X010873Y007390D01*
X010739Y007390D01*
X010681Y007332D02*
X010815Y007332D01*
X010873Y007390D02*
X010610Y007127D01*
X010583Y007154D01*
X010202Y007154D01*
X009933Y006885D01*
X009933Y006503D01*
X010202Y006234D01*
X010583Y006234D01*
X010853Y006503D01*
X010853Y006885D01*
X010794Y006943D01*
X011133Y007282D01*
X011133Y007390D01*
X011857Y007390D01*
X011857Y007332D02*
X011133Y007332D01*
X011133Y007390D02*
X011133Y009004D01*
X011057Y009080D01*
X010854Y009283D01*
X011133Y009283D01*
X011185Y009336D01*
X011185Y009660D01*
X011148Y009698D01*
X011185Y009736D01*
X011185Y010060D01*
X011133Y010113D01*
X010975Y010113D01*
X010975Y010391D01*
X011001Y010391D01*
X011053Y010444D01*
X011053Y010991D01*
X011001Y011044D01*
X010611Y011044D01*
X010559Y010991D01*
X010559Y010444D01*
X010611Y010391D01*
X010715Y010391D01*
X010715Y010113D01*
X010558Y010113D01*
X010505Y010060D01*
X010505Y009736D01*
X010531Y009710D01*
X010319Y009710D01*
X010069Y009710D01*
X010069Y009893D01*
X010016Y009945D01*
X009912Y009945D01*
X009912Y012075D01*
X009836Y012151D01*
X008418Y013569D01*
X008418Y013683D01*
X008295Y013806D01*
X008121Y013806D01*
X007998Y013683D01*
X007998Y013512D01*
X007980Y013530D01*
X007806Y013530D01*
X007683Y013407D01*
X007683Y013233D01*
X007806Y013110D01*
X007919Y013110D01*
X008078Y012951D01*
X008078Y012668D01*
X008069Y012659D02*
X007877Y012659D01*
X007885Y012601D02*
X008059Y012601D01*
X008059Y012542D02*
X007885Y012542D01*
X007885Y012484D02*
X008059Y012484D01*
X008059Y012425D02*
X007885Y012425D01*
X007885Y012367D02*
X008059Y012367D01*
X008059Y012308D02*
X007882Y012308D01*
X007852Y012249D02*
X008107Y012249D01*
X008347Y012249D02*
X008619Y012249D01*
X008570Y012308D02*
X008396Y012308D01*
X008396Y012367D02*
X008570Y012367D01*
X008570Y012425D02*
X008396Y012425D01*
X008396Y012484D02*
X008570Y012484D01*
X008570Y012542D02*
X008396Y012542D01*
X008396Y012601D02*
X008570Y012601D01*
X008581Y012659D02*
X008385Y012659D01*
X008338Y012718D02*
X008901Y012718D01*
X008897Y012659D02*
X008960Y012659D01*
X008908Y012601D02*
X009019Y012601D01*
X009077Y012542D02*
X008908Y012542D01*
X008913Y012484D02*
X009136Y012484D01*
X009194Y012425D02*
X008971Y012425D01*
X009030Y012367D02*
X009253Y012367D01*
X009201Y012308D02*
X009311Y012308D01*
X009260Y012249D02*
X009370Y012249D01*
X009428Y012191D02*
X009284Y012191D01*
X009284Y012132D02*
X009487Y012132D01*
X009545Y012074D02*
X009285Y012074D01*
X009282Y012015D02*
X009604Y012015D01*
X009652Y011957D02*
X009282Y011957D01*
X009282Y011898D02*
X009652Y011898D01*
X009652Y011840D02*
X009282Y011840D01*
X009282Y011781D02*
X009652Y011781D01*
X009652Y011723D02*
X009282Y011723D01*
X009282Y011664D02*
X009652Y011664D01*
X009652Y011606D02*
X009282Y011606D01*
X009282Y011547D02*
X009652Y011547D01*
X009652Y011488D02*
X009282Y011488D01*
X009282Y011430D02*
X009652Y011430D01*
X009652Y011371D02*
X009282Y011371D01*
X009282Y011313D02*
X009652Y011313D01*
X009652Y011254D02*
X009282Y011254D01*
X009282Y011196D02*
X009652Y011196D01*
X009652Y011137D02*
X009282Y011137D01*
X009282Y011079D02*
X009652Y011079D01*
X009652Y011020D02*
X009282Y011020D01*
X009282Y010962D02*
X009652Y010962D01*
X009652Y010903D02*
X009282Y010903D01*
X009282Y010844D02*
X009652Y010844D01*
X009652Y010786D02*
X009282Y010786D01*
X009282Y010727D02*
X009652Y010727D01*
X009652Y010669D02*
X009282Y010669D01*
X009282Y010610D02*
X009652Y010610D01*
X009652Y010552D02*
X009282Y010552D01*
X009282Y010493D02*
X009652Y010493D01*
X009652Y010435D02*
X009282Y010435D01*
X009282Y010376D02*
X009652Y010376D01*
X009652Y010318D02*
X009282Y010318D01*
X009282Y010259D02*
X009652Y010259D01*
X009652Y010200D02*
X009282Y010200D01*
X009282Y010142D02*
X009652Y010142D01*
X009652Y010083D02*
X009282Y010083D01*
X009282Y010025D02*
X009652Y010025D01*
X009652Y009966D02*
X009282Y009966D01*
X009345Y009908D02*
X009589Y009908D01*
X009574Y009849D02*
X009361Y009849D01*
X009361Y009791D02*
X009574Y009791D01*
X009574Y009732D02*
X009361Y009732D01*
X009361Y009674D02*
X009574Y009674D01*
X009574Y009615D02*
X009361Y009615D01*
X009361Y009556D02*
X009574Y009556D01*
X009574Y009498D02*
X009361Y009498D01*
X009361Y009439D02*
X009574Y009439D01*
X009574Y009381D02*
X009361Y009381D01*
X009337Y009322D02*
X009598Y009322D01*
X009590Y009147D02*
X010195Y009147D01*
X010136Y009088D02*
X009649Y009088D01*
X009707Y009030D02*
X010078Y009030D01*
X010019Y008971D02*
X009766Y008971D01*
X009825Y008913D02*
X009961Y008913D01*
X009933Y008854D02*
X009853Y008854D01*
X009853Y008795D02*
X009933Y008795D01*
X009933Y008737D02*
X009853Y008737D01*
X009853Y008678D02*
X009933Y008678D01*
X009933Y008620D02*
X009853Y008620D01*
X009853Y008561D02*
X009933Y008561D01*
X009933Y008503D02*
X010202Y008234D01*
X010583Y008234D01*
X010583Y008154D02*
X010202Y008154D01*
X009933Y007885D01*
X009933Y007503D01*
X010202Y007234D01*
X010583Y007234D01*
X010853Y007503D01*
X010853Y007885D01*
X010583Y008154D01*
X010586Y008151D02*
X010873Y008151D01*
X010873Y008093D02*
X010644Y008093D01*
X010703Y008034D02*
X010873Y008034D01*
X010873Y007976D02*
X010761Y007976D01*
X010820Y007917D02*
X010873Y007917D01*
X010873Y007859D02*
X010853Y007859D01*
X010853Y007800D02*
X010873Y007800D01*
X010873Y007742D02*
X010853Y007742D01*
X010853Y007683D02*
X010873Y007683D01*
X010873Y007625D02*
X010853Y007625D01*
X010853Y007566D02*
X010873Y007566D01*
X010873Y007507D02*
X010853Y007507D01*
X010873Y007449D02*
X010798Y007449D01*
X010757Y007273D02*
X010622Y007273D01*
X010698Y007215D02*
X008333Y007215D01*
X008333Y007273D02*
X009163Y007273D01*
X009202Y007234D02*
X008933Y007503D01*
X008933Y007885D01*
X009202Y008154D01*
X009583Y008154D01*
X009853Y007885D01*
X009853Y007503D01*
X009583Y007234D01*
X009202Y007234D01*
X009185Y007194D02*
X008893Y006901D01*
X008893Y006724D01*
X009362Y006724D01*
X009362Y006664D01*
X008893Y006664D01*
X008893Y006487D01*
X009185Y006194D01*
X009363Y006194D01*
X009363Y006664D01*
X009423Y006664D01*
X009423Y006724D01*
X009893Y006724D01*
X009893Y006901D01*
X009600Y007194D01*
X009423Y007194D01*
X009423Y006724D01*
X009363Y006724D01*
X009363Y007194D01*
X009185Y007194D01*
X009148Y007156D02*
X008302Y007156D01*
X008333Y007098D02*
X009089Y007098D01*
X009031Y007039D02*
X008333Y007039D01*
X008333Y007332D02*
X009104Y007332D01*
X009046Y007390D02*
X008333Y007390D01*
X008333Y007449D02*
X008987Y007449D01*
X008933Y007507D02*
X008333Y007507D01*
X008333Y007566D02*
X008933Y007566D01*
X008933Y007625D02*
X008306Y007625D01*
X008333Y007683D02*
X008933Y007683D01*
X008933Y007742D02*
X008333Y007742D01*
X008333Y007800D02*
X008933Y007800D01*
X008933Y007859D02*
X008333Y007859D01*
X008333Y007917D02*
X008965Y007917D01*
X009024Y007976D02*
X008333Y007976D01*
X008333Y008034D02*
X009082Y008034D01*
X009141Y008093D02*
X008310Y008093D01*
X008332Y008151D02*
X009200Y008151D01*
X009202Y008234D02*
X009583Y008234D01*
X009853Y008503D01*
X009793Y008444D02*
X009992Y008444D01*
X010050Y008386D02*
X009735Y008386D01*
X009676Y008327D02*
X010109Y008327D01*
X010168Y008269D02*
X009618Y008269D01*
X009586Y008151D02*
X010200Y008151D01*
X010141Y008093D02*
X009644Y008093D01*
X009703Y008034D02*
X010082Y008034D01*
X010024Y007976D02*
X009761Y007976D01*
X009820Y007917D02*
X009965Y007917D01*
X009933Y007859D02*
X009853Y007859D01*
X009853Y007800D02*
X009933Y007800D01*
X009933Y007742D02*
X009853Y007742D01*
X009853Y007683D02*
X009933Y007683D01*
X009933Y007625D02*
X009853Y007625D01*
X009853Y007566D02*
X009933Y007566D01*
X009933Y007507D02*
X009853Y007507D01*
X009798Y007449D02*
X009987Y007449D01*
X010046Y007390D02*
X009739Y007390D01*
X009681Y007332D02*
X010104Y007332D01*
X010163Y007273D02*
X009622Y007273D01*
X009637Y007156D02*
X010639Y007156D01*
X010815Y006922D02*
X011857Y006922D01*
X011857Y006864D02*
X010853Y006864D01*
X010853Y006805D02*
X011857Y006805D01*
X011857Y006746D02*
X010853Y006746D01*
X010853Y006688D02*
X011857Y006688D01*
X011857Y006629D02*
X010853Y006629D01*
X010853Y006571D02*
X011857Y006571D01*
X011857Y006512D02*
X010853Y006512D01*
X010803Y006454D02*
X011857Y006454D01*
X011857Y006395D02*
X010744Y006395D01*
X010686Y006337D02*
X011857Y006337D01*
X011857Y006278D02*
X010627Y006278D01*
X010158Y006278D02*
X009684Y006278D01*
X009742Y006337D02*
X010099Y006337D01*
X010041Y006395D02*
X009801Y006395D01*
X009859Y006454D02*
X009982Y006454D01*
X009933Y006512D02*
X009893Y006512D01*
X009893Y006487D02*
X009893Y006664D01*
X009423Y006664D01*
X009423Y006194D01*
X009600Y006194D01*
X009893Y006487D01*
X009893Y006571D02*
X009933Y006571D01*
X009933Y006629D02*
X009893Y006629D01*
X009933Y006688D02*
X009423Y006688D01*
X009423Y006746D02*
X009363Y006746D01*
X009362Y006688D02*
X008605Y006688D01*
X008654Y006746D02*
X008893Y006746D01*
X008893Y006805D02*
X008654Y006805D01*
X008654Y006864D02*
X008893Y006864D01*
X008914Y006922D02*
X008643Y006922D01*
X008584Y006981D02*
X008972Y006981D01*
X008893Y006629D02*
X008546Y006629D01*
X008374Y006571D02*
X008893Y006571D01*
X008893Y006512D02*
X008333Y006512D01*
X008333Y006454D02*
X008926Y006454D01*
X008984Y006395D02*
X008333Y006395D01*
X008333Y006337D02*
X009043Y006337D01*
X009101Y006278D02*
X008333Y006278D01*
X008294Y006220D02*
X009160Y006220D01*
X009363Y006220D02*
X009423Y006220D01*
X009423Y006278D02*
X009363Y006278D01*
X009363Y006337D02*
X009423Y006337D01*
X009423Y006395D02*
X009363Y006395D01*
X009363Y006454D02*
X009423Y006454D01*
X009423Y006512D02*
X009363Y006512D01*
X009363Y006571D02*
X009423Y006571D01*
X009423Y006629D02*
X009363Y006629D01*
X009363Y006805D02*
X009423Y006805D01*
X009423Y006864D02*
X009363Y006864D01*
X009363Y006922D02*
X009423Y006922D01*
X009423Y006981D02*
X009363Y006981D01*
X009363Y007039D02*
X009423Y007039D01*
X009423Y007098D02*
X009363Y007098D01*
X009363Y007156D02*
X009423Y007156D01*
X009696Y007098D02*
X010146Y007098D01*
X010087Y007039D02*
X009755Y007039D01*
X009813Y006981D02*
X010029Y006981D01*
X009970Y006922D02*
X009872Y006922D01*
X009893Y006864D02*
X009933Y006864D01*
X009933Y006805D02*
X009893Y006805D01*
X009893Y006746D02*
X009933Y006746D01*
X009625Y006220D02*
X011857Y006220D01*
X011857Y006161D02*
X008333Y006161D01*
X008333Y006102D02*
X011857Y006102D01*
X011857Y006044D02*
X008333Y006044D01*
X008333Y005985D02*
X011857Y005985D01*
X011857Y005927D02*
X008333Y005927D01*
X008333Y005868D02*
X011857Y005868D01*
X011857Y005810D02*
X008333Y005810D01*
X008294Y005751D02*
X011857Y005751D01*
X011857Y005693D02*
X008333Y005693D01*
X008333Y005634D02*
X011857Y005634D01*
X011857Y005576D02*
X008333Y005576D01*
X008333Y005517D02*
X011857Y005517D01*
X011857Y005458D02*
X008333Y005458D01*
X008333Y005400D02*
X011857Y005400D01*
X011857Y005341D02*
X008333Y005341D01*
X008298Y005283D02*
X011857Y005283D01*
X011857Y005224D02*
X008333Y005224D01*
X008333Y005166D02*
X011857Y005166D01*
X011857Y005107D02*
X008333Y005107D01*
X008333Y005049D02*
X011857Y005049D01*
X011857Y004990D02*
X008333Y004990D01*
X008333Y004932D02*
X011857Y004932D01*
X011857Y004873D02*
X008333Y004873D01*
X008302Y004814D02*
X011857Y004814D01*
X011857Y004756D02*
X008333Y004756D01*
X008333Y004697D02*
X011857Y004697D01*
X011857Y004639D02*
X008333Y004639D01*
X008333Y004580D02*
X011857Y004580D01*
X011857Y004522D02*
X008333Y004522D01*
X008333Y004463D02*
X011857Y004463D01*
X011857Y004405D02*
X008333Y004405D01*
X008306Y004346D02*
X011857Y004346D01*
X011857Y004288D02*
X008333Y004288D01*
X008333Y004229D02*
X011857Y004229D01*
X011857Y004171D02*
X008333Y004171D01*
X008333Y004112D02*
X011857Y004112D01*
X011857Y004053D02*
X008333Y004053D01*
X008333Y003995D02*
X011857Y003995D01*
X011857Y003936D02*
X008333Y003936D01*
X008310Y003878D02*
X011857Y003878D01*
X011857Y003819D02*
X003100Y003819D01*
X003096Y003817D02*
X003126Y003834D01*
X003150Y003858D01*
X003167Y003888D01*
X003176Y003921D01*
X003176Y004066D01*
X002761Y004066D01*
X002761Y004125D01*
X003176Y004125D01*
X003176Y004270D01*
X003167Y004303D01*
X003150Y004333D01*
X003126Y004357D01*
X003122Y004359D01*
X003136Y004373D01*
X003136Y004763D01*
X003095Y004804D01*
X003136Y004846D01*
X003136Y005235D01*
X003095Y005277D01*
X003136Y005318D01*
X003136Y005708D01*
X003095Y005749D01*
X003136Y005791D01*
X003136Y006180D01*
X003095Y006222D01*
X003136Y006263D01*
X003136Y006653D01*
X003095Y006694D01*
X003136Y006735D01*
X003136Y007125D01*
X003095Y007166D01*
X003136Y007208D01*
X003136Y007597D01*
X003095Y007639D01*
X003136Y007680D01*
X003136Y008070D01*
X003095Y008111D01*
X003136Y008153D01*
X003136Y008542D01*
X003095Y008584D01*
X003136Y008625D01*
X003136Y009015D01*
X003122Y009029D01*
X003126Y009031D01*
X003150Y009055D01*
X003167Y009085D01*
X003176Y009118D01*
X003176Y009262D01*
X002761Y009262D01*
X002761Y009322D01*
X003176Y009322D01*
X007523Y009322D01*
X007523Y009264D02*
X002761Y009264D01*
X002761Y009323D02*
X002701Y009323D01*
X002701Y009580D01*
X002399Y009580D01*
X002366Y009571D01*
X002336Y009554D01*
X002312Y009530D01*
X002295Y009500D01*
X002286Y009467D01*
X002286Y009322D01*
X000503Y009322D01*
X000503Y009264D02*
X002701Y009264D01*
X002701Y009262D02*
X002286Y009262D01*
X002286Y009118D01*
X002295Y009085D01*
X002312Y009055D01*
X002336Y009031D01*
X002340Y009029D01*
X002326Y009015D01*
X002326Y008947D01*
X002232Y009042D01*
X002058Y009042D01*
X001938Y008922D01*
X001884Y008922D01*
X001884Y009070D01*
X001831Y009123D01*
X001442Y009123D01*
X001389Y009070D01*
X001389Y008523D01*
X001442Y008470D01*
X001831Y008470D01*
X001884Y008523D01*
X001884Y008662D01*
X002017Y008662D01*
X002058Y008622D01*
X002232Y008622D01*
X002272Y008662D01*
X002326Y008662D01*
X002326Y008625D01*
X002368Y008584D01*
X002326Y008542D01*
X002326Y008153D01*
X002368Y008111D01*
X002326Y008070D01*
X002326Y007680D01*
X002368Y007639D01*
X002326Y007597D01*
X002326Y007208D01*
X002368Y007166D01*
X002326Y007125D01*
X002326Y006735D01*
X002368Y006694D01*
X002326Y006653D01*
X002326Y006263D01*
X002368Y006222D01*
X002326Y006180D01*
X002326Y005791D01*
X002368Y005749D01*
X002326Y005708D01*
X002326Y005318D01*
X002368Y005277D01*
X002326Y005235D01*
X002326Y004846D01*
X002368Y004804D01*
X002326Y004763D01*
X002326Y004373D01*
X002340Y004359D01*
X002336Y004357D01*
X002312Y004333D01*
X002295Y004303D01*
X002286Y004270D01*
X002286Y004125D01*
X002701Y004125D01*
X002701Y004066D01*
X002286Y004066D01*
X002286Y003921D01*
X002295Y003888D01*
X002312Y003858D01*
X002336Y003834D01*
X002366Y003817D01*
X002399Y003808D01*
X002701Y003808D01*
X002701Y004065D01*
X002761Y004065D01*
X002761Y003808D01*
X003063Y003808D01*
X003096Y003817D01*
X003161Y003878D02*
X007546Y003878D01*
X007523Y003936D02*
X003176Y003936D01*
X003176Y003995D02*
X007523Y003995D01*
X007523Y004053D02*
X003176Y004053D01*
X003176Y004171D02*
X007523Y004171D01*
X007523Y004229D02*
X003176Y004229D01*
X003171Y004288D02*
X007523Y004288D01*
X007550Y004346D02*
X003137Y004346D01*
X003136Y004405D02*
X007523Y004405D01*
X007523Y004463D02*
X003136Y004463D01*
X003136Y004522D02*
X007523Y004522D01*
X007523Y004580D02*
X003136Y004580D01*
X003136Y004639D02*
X007523Y004639D01*
X007523Y004697D02*
X003136Y004697D01*
X003136Y004756D02*
X007523Y004756D01*
X007554Y004814D02*
X003105Y004814D01*
X003136Y004873D02*
X007523Y004873D01*
X007523Y004932D02*
X003136Y004932D01*
X003136Y004990D02*
X007523Y004990D01*
X007523Y005049D02*
X003136Y005049D01*
X003136Y005107D02*
X007523Y005107D01*
X007523Y005166D02*
X003136Y005166D01*
X003136Y005224D02*
X007523Y005224D01*
X007558Y005283D02*
X003101Y005283D01*
X003136Y005341D02*
X007523Y005341D01*
X007523Y005400D02*
X003136Y005400D01*
X003136Y005458D02*
X007523Y005458D01*
X007523Y005517D02*
X003136Y005517D01*
X003136Y005576D02*
X007523Y005576D01*
X007523Y005634D02*
X003136Y005634D01*
X003136Y005693D02*
X007523Y005693D01*
X007562Y005751D02*
X003097Y005751D01*
X003136Y005810D02*
X007523Y005810D01*
X007523Y005868D02*
X003136Y005868D01*
X003136Y005927D02*
X007523Y005927D01*
X007523Y005985D02*
X003136Y005985D01*
X003136Y006044D02*
X007523Y006044D01*
X007523Y006102D02*
X003136Y006102D01*
X003136Y006161D02*
X007523Y006161D01*
X007563Y006220D02*
X003097Y006220D01*
X003136Y006278D02*
X007523Y006278D01*
X007523Y006337D02*
X003136Y006337D01*
X003136Y006395D02*
X007523Y006395D01*
X007523Y006454D02*
X003136Y006454D01*
X003136Y006512D02*
X007523Y006512D01*
X007523Y006571D02*
X003136Y006571D01*
X003136Y006629D02*
X007523Y006629D01*
X007558Y006688D02*
X003101Y006688D01*
X003136Y006746D02*
X007523Y006746D01*
X007523Y006805D02*
X003136Y006805D01*
X003136Y006864D02*
X007523Y006864D01*
X007523Y006922D02*
X003136Y006922D01*
X003136Y006981D02*
X007523Y006981D01*
X007523Y007039D02*
X003136Y007039D01*
X003136Y007098D02*
X007523Y007098D01*
X007554Y007156D02*
X003105Y007156D01*
X003136Y007215D02*
X007523Y007215D01*
X007523Y007273D02*
X003136Y007273D01*
X003136Y007332D02*
X007523Y007332D01*
X007523Y007390D02*
X003136Y007390D01*
X003136Y007449D02*
X007523Y007449D01*
X007523Y007507D02*
X003136Y007507D01*
X003136Y007566D02*
X007523Y007566D01*
X007550Y007625D02*
X003109Y007625D01*
X003136Y007683D02*
X007523Y007683D01*
X007523Y007742D02*
X003136Y007742D01*
X003136Y007800D02*
X007523Y007800D01*
X007523Y007859D02*
X003136Y007859D01*
X003136Y007917D02*
X007523Y007917D01*
X007523Y007976D02*
X003136Y007976D01*
X003136Y008034D02*
X007523Y008034D01*
X007546Y008093D02*
X003113Y008093D01*
X003135Y008151D02*
X007524Y008151D01*
X007523Y008210D02*
X003136Y008210D01*
X003136Y008269D02*
X007523Y008269D01*
X007523Y008327D02*
X003136Y008327D01*
X003136Y008386D02*
X007523Y008386D01*
X007523Y008444D02*
X003136Y008444D01*
X003136Y008503D02*
X007523Y008503D01*
X007542Y008561D02*
X003117Y008561D01*
X003131Y008620D02*
X007529Y008620D01*
X007523Y008678D02*
X003136Y008678D01*
X003136Y008737D02*
X007523Y008737D01*
X007523Y008795D02*
X003136Y008795D01*
X003136Y008854D02*
X007523Y008854D01*
X007523Y008913D02*
X003136Y008913D01*
X003136Y008971D02*
X007523Y008971D01*
X007538Y009030D02*
X003124Y009030D01*
X003168Y009088D02*
X007533Y009088D01*
X007523Y009147D02*
X003176Y009147D01*
X003176Y009205D02*
X007523Y009205D01*
X007523Y009381D02*
X003176Y009381D01*
X003176Y009439D02*
X007523Y009439D01*
X007534Y009498D02*
X003168Y009498D01*
X003167Y009500D02*
X003150Y009530D01*
X003126Y009554D01*
X003096Y009571D01*
X003063Y009580D01*
X002761Y009580D01*
X002761Y009323D01*
X002761Y009381D02*
X002701Y009381D01*
X002701Y009439D02*
X002761Y009439D01*
X002761Y009498D02*
X002701Y009498D01*
X002701Y009556D02*
X002761Y009556D01*
X002701Y009322D02*
X002701Y009262D01*
X002701Y009322D02*
X002286Y009322D01*
X002286Y009381D02*
X000503Y009381D01*
X000503Y009439D02*
X002286Y009439D01*
X002295Y009498D02*
X000503Y009498D01*
X000503Y009556D02*
X002341Y009556D01*
X002286Y009205D02*
X000503Y009205D01*
X000503Y009147D02*
X000708Y009147D01*
X000720Y009154D02*
X000691Y009137D01*
X000667Y009112D01*
X000649Y009083D01*
X000641Y009050D01*
X000641Y008826D01*
X000898Y008826D01*
X000898Y008766D01*
X000958Y008766D01*
X000958Y008430D01*
X001103Y008430D01*
X001136Y008439D01*
X001165Y008456D01*
X001189Y008480D01*
X001207Y008510D01*
X001215Y008543D01*
X001215Y008766D01*
X000958Y008766D01*
X000958Y008826D01*
X001215Y008826D01*
X001215Y009050D01*
X001207Y009083D01*
X001189Y009112D01*
X001165Y009137D01*
X001136Y009154D01*
X001103Y009163D01*
X000958Y009163D01*
X000958Y008826D01*
X000898Y008826D01*
X000898Y009163D01*
X000753Y009163D01*
X000720Y009154D01*
X000653Y009088D02*
X000503Y009088D01*
X000503Y009030D02*
X000641Y009030D01*
X000641Y008971D02*
X000503Y008971D01*
X000503Y008913D02*
X000641Y008913D01*
X000641Y008854D02*
X000503Y008854D01*
X000503Y008795D02*
X000898Y008795D01*
X000898Y008766D02*
X000641Y008766D01*
X000641Y008543D01*
X000649Y008510D01*
X000667Y008480D01*
X000691Y008456D01*
X000720Y008439D01*
X000753Y008430D01*
X000898Y008430D01*
X000898Y008766D01*
X000898Y008737D02*
X000958Y008737D01*
X000958Y008795D02*
X001389Y008795D01*
X001389Y008737D02*
X001215Y008737D01*
X001215Y008678D02*
X001389Y008678D01*
X001389Y008620D02*
X001215Y008620D01*
X001215Y008561D02*
X001389Y008561D01*
X001409Y008503D02*
X001202Y008503D01*
X001145Y008444D02*
X002326Y008444D01*
X002326Y008386D02*
X000503Y008386D01*
X000503Y008444D02*
X000711Y008444D01*
X000654Y008503D02*
X000503Y008503D01*
X000503Y008561D02*
X000641Y008561D01*
X000641Y008620D02*
X000503Y008620D01*
X000503Y008678D02*
X000641Y008678D01*
X000641Y008737D02*
X000503Y008737D01*
X000503Y008327D02*
X002326Y008327D01*
X002326Y008269D02*
X000503Y008269D01*
X000503Y008210D02*
X002326Y008210D01*
X002328Y008151D02*
X000503Y008151D01*
X000503Y008093D02*
X002349Y008093D01*
X002326Y008034D02*
X000503Y008034D01*
X000503Y007976D02*
X002326Y007976D01*
X002326Y007917D02*
X000503Y007917D01*
X000503Y007859D02*
X002326Y007859D01*
X002326Y007800D02*
X000503Y007800D01*
X000503Y007742D02*
X002326Y007742D01*
X002326Y007683D02*
X000503Y007683D01*
X000503Y007625D02*
X002353Y007625D01*
X002326Y007566D02*
X000503Y007566D01*
X000503Y007507D02*
X002326Y007507D01*
X002326Y007449D02*
X000503Y007449D01*
X000503Y007390D02*
X002326Y007390D01*
X002326Y007332D02*
X000503Y007332D01*
X000503Y007273D02*
X002326Y007273D01*
X002326Y007215D02*
X000503Y007215D01*
X000503Y007156D02*
X002358Y007156D01*
X002326Y007098D02*
X000503Y007098D01*
X000503Y007039D02*
X002326Y007039D01*
X002326Y006981D02*
X000503Y006981D01*
X000503Y006922D02*
X002326Y006922D01*
X002326Y006864D02*
X000503Y006864D01*
X000503Y006805D02*
X002326Y006805D01*
X002326Y006746D02*
X000503Y006746D01*
X000503Y006688D02*
X002362Y006688D01*
X002326Y006629D02*
X000503Y006629D01*
X000503Y006571D02*
X002326Y006571D01*
X002326Y006512D02*
X000503Y006512D01*
X000503Y006454D02*
X002326Y006454D01*
X002326Y006395D02*
X000503Y006395D01*
X000503Y006337D02*
X002326Y006337D01*
X002326Y006278D02*
X000503Y006278D01*
X000503Y006220D02*
X002366Y006220D01*
X002326Y006161D02*
X000503Y006161D01*
X000503Y006102D02*
X002326Y006102D01*
X002326Y006044D02*
X000503Y006044D01*
X000503Y005985D02*
X002326Y005985D01*
X002326Y005927D02*
X000503Y005927D01*
X000503Y005868D02*
X002326Y005868D01*
X002326Y005810D02*
X000503Y005810D01*
X000503Y005751D02*
X002366Y005751D01*
X002326Y005693D02*
X000503Y005693D01*
X000503Y005634D02*
X002326Y005634D01*
X002326Y005576D02*
X000503Y005576D01*
X000503Y005517D02*
X002326Y005517D01*
X002326Y005458D02*
X000503Y005458D01*
X000503Y005400D02*
X002326Y005400D01*
X002326Y005341D02*
X000503Y005341D01*
X000503Y005283D02*
X002362Y005283D01*
X002326Y005224D02*
X000503Y005224D01*
X000503Y005166D02*
X002326Y005166D01*
X002326Y005107D02*
X000503Y005107D01*
X000503Y005049D02*
X002326Y005049D01*
X002326Y004990D02*
X000503Y004990D01*
X000503Y004932D02*
X002326Y004932D01*
X002326Y004873D02*
X000503Y004873D01*
X000503Y004814D02*
X002357Y004814D01*
X002326Y004756D02*
X000503Y004756D01*
X000503Y004697D02*
X002326Y004697D01*
X002326Y004639D02*
X000503Y004639D01*
X000503Y004580D02*
X002326Y004580D01*
X002326Y004522D02*
X000503Y004522D01*
X000503Y004463D02*
X002326Y004463D01*
X002326Y004405D02*
X000503Y004405D01*
X000503Y004346D02*
X002325Y004346D01*
X002291Y004288D02*
X000503Y004288D01*
X000503Y004229D02*
X002286Y004229D01*
X002286Y004171D02*
X000503Y004171D01*
X000503Y004112D02*
X002701Y004112D01*
X002701Y004053D02*
X002761Y004053D01*
X002761Y003995D02*
X002701Y003995D01*
X002701Y003936D02*
X002761Y003936D01*
X002761Y003878D02*
X002701Y003878D01*
X002701Y003819D02*
X002761Y003819D01*
X002761Y004112D02*
X007523Y004112D01*
X007394Y003438D02*
X007249Y003438D01*
X007249Y003023D01*
X007189Y003023D01*
X007189Y002963D01*
X006932Y002963D01*
X006932Y002749D01*
X006837Y002749D01*
X006837Y003345D01*
X006784Y003398D01*
X006395Y003398D01*
X006342Y003345D01*
X006342Y002749D01*
X006247Y002749D01*
X006247Y002963D01*
X005990Y002963D01*
X005990Y003023D01*
X006247Y003023D01*
X006247Y003325D01*
X006238Y003358D01*
X006221Y003388D01*
X006197Y003412D01*
X006167Y003429D01*
X006134Y003438D01*
X005989Y003438D01*
X005989Y003023D01*
X005930Y003023D01*
X005930Y003438D01*
X005785Y003438D01*
X005752Y003429D01*
X005722Y003412D01*
X005698Y003388D01*
X005681Y003358D01*
X005672Y003325D01*
X005672Y003023D01*
X005929Y003023D01*
X005929Y002963D01*
X005672Y002963D01*
X005672Y002749D01*
X002807Y002749D01*
X002775Y002717D01*
X002775Y002671D01*
X002775Y000261D01*
X000503Y000261D01*
X000503Y018997D01*
X001786Y018997D01*
X001818Y018997D01*
X001894Y018997D01*
X001894Y018997D01*
X002034Y018997D01*
X002402Y019117D01*
X002715Y019344D01*
X002942Y019657D01*
X002942Y019657D01*
X003062Y020025D01*
X003062Y020026D01*
X003062Y020165D01*
X003062Y021458D01*
X011857Y021458D01*
X011857Y002820D01*
X010500Y002820D01*
X010355Y002820D01*
X009977Y002697D01*
X009977Y002697D01*
X009655Y002463D01*
X009421Y002141D01*
X009298Y001763D01*
X009298Y001618D01*
X009298Y001566D01*
X009298Y001564D01*
X009298Y001510D01*
X009298Y000261D01*
X007885Y000261D01*
X007885Y002671D01*
X007885Y002717D01*
X007852Y002749D01*
X007507Y002749D01*
X007507Y002963D01*
X007249Y002963D01*
X007249Y003023D01*
X007507Y003023D01*
X007507Y003325D01*
X007498Y003358D01*
X007481Y003388D01*
X007457Y003412D01*
X007427Y003429D01*
X007394Y003438D01*
X007459Y003409D02*
X011857Y003409D01*
X011857Y003351D02*
X007500Y003351D01*
X007507Y003292D02*
X011857Y003292D01*
X011857Y003234D02*
X007507Y003234D01*
X007507Y003175D02*
X011857Y003175D01*
X011857Y003117D02*
X007507Y003117D01*
X007507Y003058D02*
X011857Y003058D01*
X011857Y003000D02*
X007249Y003000D01*
X007249Y003058D02*
X007189Y003058D01*
X007189Y003023D02*
X007189Y003438D01*
X007045Y003438D01*
X007012Y003429D01*
X006982Y003412D01*
X006958Y003388D01*
X006941Y003358D01*
X006932Y003325D01*
X006932Y003023D01*
X007189Y003023D01*
X007189Y003000D02*
X006837Y003000D01*
X006837Y003058D02*
X006932Y003058D01*
X006932Y003117D02*
X006837Y003117D01*
X006837Y003175D02*
X006932Y003175D01*
X006932Y003234D02*
X006837Y003234D01*
X006837Y003292D02*
X006932Y003292D01*
X006939Y003351D02*
X006831Y003351D01*
X006979Y003409D02*
X006200Y003409D01*
X006240Y003351D02*
X006347Y003351D01*
X006342Y003292D02*
X006247Y003292D01*
X006247Y003234D02*
X006342Y003234D01*
X006342Y003175D02*
X006247Y003175D01*
X006247Y003117D02*
X006342Y003117D01*
X006342Y003058D02*
X006247Y003058D01*
X006342Y003000D02*
X005990Y003000D01*
X005989Y003058D02*
X005930Y003058D01*
X005929Y003000D02*
X000503Y003000D01*
X000503Y003058D02*
X005672Y003058D01*
X005672Y003117D02*
X000503Y003117D01*
X000503Y003175D02*
X005672Y003175D01*
X005672Y003234D02*
X000503Y003234D01*
X000503Y003292D02*
X005672Y003292D01*
X005679Y003351D02*
X000503Y003351D01*
X000503Y003409D02*
X005719Y003409D01*
X005930Y003409D02*
X005989Y003409D01*
X005989Y003351D02*
X005930Y003351D01*
X005930Y003292D02*
X005989Y003292D01*
X005989Y003234D02*
X005930Y003234D01*
X005930Y003175D02*
X005989Y003175D01*
X005989Y003117D02*
X005930Y003117D01*
X005672Y002941D02*
X000503Y002941D01*
X000503Y002883D02*
X005672Y002883D01*
X005672Y002824D02*
X000503Y002824D01*
X000503Y002765D02*
X005672Y002765D01*
X006247Y002765D02*
X006342Y002765D01*
X006342Y002824D02*
X006247Y002824D01*
X006247Y002883D02*
X006342Y002883D01*
X006342Y002941D02*
X006247Y002941D01*
X006837Y002941D02*
X006932Y002941D01*
X006932Y002883D02*
X006837Y002883D01*
X006837Y002824D02*
X006932Y002824D01*
X006932Y002765D02*
X006837Y002765D01*
X007189Y003117D02*
X007249Y003117D01*
X007249Y003175D02*
X007189Y003175D01*
X007189Y003234D02*
X007249Y003234D01*
X007249Y003292D02*
X007189Y003292D01*
X007189Y003351D02*
X007249Y003351D01*
X007249Y003409D02*
X007189Y003409D01*
X007507Y002941D02*
X011857Y002941D01*
X011857Y002883D02*
X007507Y002883D01*
X007507Y002824D02*
X011857Y002824D01*
X011857Y003468D02*
X000503Y003468D01*
X000503Y003527D02*
X011857Y003527D01*
X011857Y003585D02*
X000503Y003585D01*
X000503Y003644D02*
X011857Y003644D01*
X011857Y003702D02*
X000503Y003702D01*
X000503Y003761D02*
X011857Y003761D01*
X010500Y002820D02*
X010500Y002820D01*
X010355Y002820D02*
X010355Y002820D01*
X010187Y002765D02*
X007507Y002765D01*
X007885Y002707D02*
X010007Y002707D01*
X009910Y002648D02*
X007885Y002648D01*
X007885Y002590D02*
X009829Y002590D01*
X009749Y002531D02*
X007885Y002531D01*
X007885Y002473D02*
X009668Y002473D01*
X009655Y002463D02*
X009655Y002463D01*
X009655Y002463D01*
X009619Y002414D02*
X007885Y002414D01*
X007885Y002356D02*
X009577Y002356D01*
X009534Y002297D02*
X007885Y002297D01*
X007885Y002239D02*
X009492Y002239D01*
X009449Y002180D02*
X007885Y002180D01*
X007885Y002121D02*
X008486Y002121D01*
X008509Y002131D02*
X008352Y002066D01*
X008233Y001947D01*
X008168Y001790D01*
X008168Y001621D01*
X008233Y001465D01*
X008352Y001345D01*
X008509Y001281D01*
X008678Y001281D01*
X008834Y001345D01*
X008954Y001465D01*
X009019Y001621D01*
X009019Y001790D01*
X008954Y001947D01*
X008834Y002066D01*
X008678Y002131D01*
X008509Y002131D01*
X008349Y002063D02*
X007885Y002063D01*
X007885Y002004D02*
X008291Y002004D01*
X008233Y001946D02*
X007885Y001946D01*
X007885Y001887D02*
X008208Y001887D01*
X008184Y001829D02*
X007885Y001829D01*
X007885Y001770D02*
X008168Y001770D01*
X008168Y001712D02*
X007885Y001712D01*
X007885Y001653D02*
X008168Y001653D01*
X008179Y001595D02*
X007885Y001595D01*
X007885Y001536D02*
X008203Y001536D01*
X008228Y001478D02*
X007885Y001478D01*
X007885Y001419D02*
X008279Y001419D01*
X008337Y001360D02*
X007885Y001360D01*
X007885Y001302D02*
X008457Y001302D01*
X008729Y001302D02*
X009298Y001302D01*
X009298Y001360D02*
X008849Y001360D01*
X008908Y001419D02*
X009298Y001419D01*
X009298Y001478D02*
X008959Y001478D01*
X008983Y001536D02*
X009298Y001536D01*
X009298Y001595D02*
X009008Y001595D01*
X009019Y001653D02*
X009298Y001653D01*
X009298Y001618D02*
X009298Y001618D01*
X009298Y001712D02*
X009019Y001712D01*
X009019Y001770D02*
X009300Y001770D01*
X009298Y001763D02*
X009298Y001763D01*
X009319Y001829D02*
X009003Y001829D01*
X008979Y001887D02*
X009338Y001887D01*
X009357Y001946D02*
X008954Y001946D01*
X008896Y002004D02*
X009376Y002004D01*
X009396Y002063D02*
X008838Y002063D01*
X008701Y002121D02*
X009415Y002121D01*
X009421Y002141D02*
X009421Y002141D01*
X009298Y001243D02*
X007885Y001243D01*
X007885Y001185D02*
X009298Y001185D01*
X009298Y001126D02*
X007885Y001126D01*
X007885Y001068D02*
X009298Y001068D01*
X009298Y001009D02*
X007885Y001009D01*
X007885Y000951D02*
X009298Y000951D01*
X009298Y000892D02*
X007885Y000892D01*
X007885Y000834D02*
X009298Y000834D01*
X009298Y000775D02*
X007885Y000775D01*
X007885Y000716D02*
X009298Y000716D01*
X009298Y000658D02*
X007885Y000658D01*
X007885Y000599D02*
X009298Y000599D01*
X009298Y000541D02*
X007885Y000541D01*
X007885Y000482D02*
X009298Y000482D01*
X009298Y000424D02*
X007885Y000424D01*
X007885Y000365D02*
X009298Y000365D01*
X009298Y000307D02*
X007885Y000307D01*
X002775Y000307D02*
X000503Y000307D01*
X000503Y000365D02*
X002775Y000365D01*
X002775Y000424D02*
X000503Y000424D01*
X000503Y000482D02*
X002775Y000482D01*
X002775Y000541D02*
X000503Y000541D01*
X000503Y000599D02*
X002775Y000599D01*
X002775Y000658D02*
X000503Y000658D01*
X000503Y000716D02*
X002775Y000716D01*
X002775Y000775D02*
X000503Y000775D01*
X000503Y000834D02*
X002775Y000834D01*
X002775Y000892D02*
X000503Y000892D01*
X000503Y000951D02*
X002775Y000951D01*
X002775Y001009D02*
X000503Y001009D01*
X000503Y001068D02*
X002775Y001068D01*
X002775Y001126D02*
X000503Y001126D01*
X000503Y001185D02*
X002775Y001185D01*
X002775Y001243D02*
X000503Y001243D01*
X000503Y001302D02*
X002775Y001302D01*
X002775Y001360D02*
X000503Y001360D01*
X000503Y001419D02*
X002775Y001419D01*
X002775Y001478D02*
X000503Y001478D01*
X000503Y001536D02*
X002775Y001536D01*
X002775Y001595D02*
X000503Y001595D01*
X000503Y001653D02*
X002775Y001653D01*
X002775Y001712D02*
X000503Y001712D01*
X000503Y001770D02*
X002775Y001770D01*
X002775Y001829D02*
X000503Y001829D01*
X000503Y001887D02*
X002775Y001887D01*
X002775Y001946D02*
X000503Y001946D01*
X000503Y002004D02*
X002775Y002004D01*
X002775Y002063D02*
X000503Y002063D01*
X000503Y002121D02*
X002775Y002121D01*
X002775Y002180D02*
X000503Y002180D01*
X000503Y002239D02*
X002775Y002239D01*
X002775Y002297D02*
X000503Y002297D01*
X000503Y002356D02*
X002775Y002356D01*
X002775Y002414D02*
X000503Y002414D01*
X000503Y002473D02*
X002775Y002473D01*
X002775Y002531D02*
X000503Y002531D01*
X000503Y002590D02*
X002775Y002590D01*
X002775Y002648D02*
X000503Y002648D01*
X000503Y002707D02*
X002775Y002707D01*
X002362Y003819D02*
X000503Y003819D01*
X000503Y003878D02*
X002301Y003878D01*
X002286Y003936D02*
X000503Y003936D01*
X000503Y003995D02*
X002286Y003995D01*
X002286Y004053D02*
X000503Y004053D01*
X000898Y008444D02*
X000958Y008444D01*
X000958Y008503D02*
X000898Y008503D01*
X000898Y008561D02*
X000958Y008561D01*
X000958Y008620D02*
X000898Y008620D01*
X000898Y008678D02*
X000958Y008678D01*
X000958Y008854D02*
X000898Y008854D01*
X000898Y008913D02*
X000958Y008913D01*
X000958Y008971D02*
X000898Y008971D01*
X000898Y009030D02*
X000958Y009030D01*
X000958Y009088D02*
X000898Y009088D01*
X000898Y009147D02*
X000958Y009147D01*
X001148Y009147D02*
X002286Y009147D01*
X002294Y009088D02*
X001866Y009088D01*
X001884Y009030D02*
X002045Y009030D01*
X001987Y008971D02*
X001884Y008971D01*
X001884Y008620D02*
X002332Y008620D01*
X002345Y008561D02*
X001884Y008561D01*
X001864Y008503D02*
X002326Y008503D01*
X002302Y008971D02*
X002326Y008971D01*
X002339Y009030D02*
X002244Y009030D01*
X001408Y009088D02*
X001204Y009088D01*
X001215Y009030D02*
X001389Y009030D01*
X001389Y008971D02*
X001215Y008971D01*
X001215Y008913D02*
X001389Y008913D01*
X001389Y008854D02*
X001215Y008854D01*
X000503Y009615D02*
X007566Y009615D01*
X007566Y009556D02*
X003121Y009556D01*
X003167Y009500D02*
X003176Y009467D01*
X003176Y009322D01*
X003512Y009990D02*
X003459Y010043D01*
X003459Y010747D01*
X003512Y010800D01*
X003858Y010800D01*
X003872Y010814D01*
X003901Y010831D01*
X003934Y010840D01*
X004079Y010840D01*
X004079Y010425D01*
X004139Y010425D01*
X004139Y010840D01*
X004284Y010840D01*
X004317Y010831D01*
X004346Y010814D01*
X004371Y010790D01*
X004373Y010786D01*
X004373Y010786D01*
X004387Y010800D01*
X004776Y010800D01*
X004818Y010758D01*
X004859Y010800D01*
X005249Y010800D01*
X005301Y010747D01*
X005301Y010043D01*
X005249Y009990D01*
X004859Y009990D01*
X004818Y010031D01*
X004776Y009990D01*
X004387Y009990D01*
X004373Y010004D01*
X004371Y010000D01*
X004346Y009976D01*
X004317Y009959D01*
X004284Y009950D01*
X004139Y009950D01*
X004139Y010365D01*
X004079Y010365D01*
X004079Y009950D01*
X003934Y009950D01*
X003901Y009959D01*
X003872Y009976D01*
X003858Y009990D01*
X003512Y009990D01*
X003477Y010025D02*
X000503Y010025D01*
X000503Y010083D02*
X003459Y010083D01*
X003459Y010142D02*
X000503Y010142D01*
X000503Y010200D02*
X003459Y010200D01*
X003459Y010259D02*
X000503Y010259D01*
X000503Y010318D02*
X003459Y010318D01*
X003459Y010376D02*
X000503Y010376D01*
X000503Y010435D02*
X000891Y010435D01*
X000893Y010432D02*
X001716Y010432D01*
X001768Y010485D01*
X001768Y011308D01*
X001716Y011360D01*
X000893Y011360D01*
X000840Y011308D01*
X000840Y010485D01*
X000893Y010432D01*
X000840Y010493D02*
X000503Y010493D01*
X000503Y010552D02*
X000840Y010552D01*
X000840Y010610D02*
X000503Y010610D01*
X000503Y010669D02*
X000840Y010669D01*
X000840Y010727D02*
X000503Y010727D01*
X000503Y010786D02*
X000840Y010786D01*
X000840Y010844D02*
X000503Y010844D01*
X000503Y010903D02*
X000840Y010903D01*
X000840Y010962D02*
X000503Y010962D01*
X000503Y011020D02*
X000840Y011020D01*
X000840Y011079D02*
X000503Y011079D01*
X000503Y011137D02*
X000840Y011137D01*
X000840Y011196D02*
X000503Y011196D01*
X000503Y011254D02*
X000840Y011254D01*
X000846Y011313D02*
X000503Y011313D01*
X000503Y011371D02*
X001903Y011371D01*
X001903Y011313D02*
X001763Y011313D01*
X001768Y011254D02*
X001903Y011254D01*
X001903Y011196D02*
X001768Y011196D01*
X001768Y011137D02*
X001903Y011137D01*
X001903Y011079D02*
X001768Y011079D01*
X001768Y011020D02*
X001903Y011020D01*
X001903Y010962D02*
X001768Y010962D01*
X001768Y010903D02*
X001903Y010903D01*
X001903Y010844D02*
X001768Y010844D01*
X001768Y010786D02*
X001937Y010786D01*
X001956Y010767D02*
X002661Y010767D01*
X002713Y010820D01*
X002713Y011721D01*
X002661Y011774D01*
X001956Y011774D01*
X001903Y011721D01*
X001903Y010820D01*
X001956Y010767D01*
X001768Y010727D02*
X003459Y010727D01*
X003459Y010669D02*
X001768Y010669D01*
X001768Y010610D02*
X003459Y010610D01*
X003459Y010552D02*
X001768Y010552D01*
X001768Y010493D02*
X003459Y010493D01*
X003459Y010435D02*
X001718Y010435D01*
X001903Y011430D02*
X000503Y011430D01*
X000503Y011488D02*
X001903Y011488D01*
X001903Y011547D02*
X000503Y011547D01*
X000503Y011606D02*
X000842Y011606D01*
X000840Y011607D02*
X000893Y011554D01*
X001716Y011554D01*
X001768Y011607D01*
X001768Y012021D01*
X001782Y012008D01*
X001895Y012008D01*
X002002Y011901D01*
X002002Y011863D01*
X002055Y011810D01*
X002661Y011810D01*
X002713Y011863D01*
X002713Y012088D01*
X004689Y012088D01*
X004797Y012088D01*
X006726Y014017D01*
X006802Y014093D01*
X006802Y014290D01*
X006802Y014305D01*
X007288Y013820D01*
X007395Y013820D01*
X009600Y013820D01*
X009676Y013896D01*
X009834Y014054D01*
X009834Y014161D01*
X009834Y016563D01*
X009757Y016639D01*
X009520Y016877D01*
X009520Y016916D01*
X009498Y016938D01*
X009520Y016960D01*
X009520Y017021D01*
X011345Y015195D01*
X011345Y011044D01*
X011320Y011044D01*
X011267Y010991D01*
X011267Y010444D01*
X011320Y010391D01*
X011709Y010391D01*
X011762Y010444D01*
X011762Y010991D01*
X011709Y011044D01*
X011605Y011044D01*
X011605Y015195D01*
X011605Y015303D01*
X009558Y017350D01*
X009520Y017388D01*
X009520Y017428D01*
X009498Y017450D01*
X009520Y017472D01*
X009520Y017684D01*
X009467Y017736D01*
X008843Y017736D01*
X008790Y017684D01*
X008790Y017629D01*
X008786Y017626D01*
X008786Y017626D01*
X007839Y016678D01*
X007763Y016602D01*
X007763Y015613D01*
X007683Y015533D01*
X007683Y015359D01*
X007806Y015236D01*
X007980Y015236D01*
X008103Y015359D01*
X008103Y015533D01*
X008023Y015613D01*
X008023Y015885D01*
X008081Y015827D01*
X008255Y015827D01*
X008378Y015950D01*
X008378Y016063D01*
X008773Y016458D01*
X008790Y016458D01*
X008790Y016448D01*
X008812Y016426D01*
X008790Y016404D01*
X008790Y016205D01*
X008776Y016191D01*
X008759Y016161D01*
X008750Y016128D01*
X008750Y016047D01*
X009150Y016047D01*
X009150Y016038D01*
X008750Y016038D01*
X008750Y015957D01*
X008759Y015924D01*
X008776Y015894D01*
X008790Y015880D01*
X008790Y015681D01*
X008812Y015659D01*
X008790Y015636D01*
X008790Y015425D01*
X008812Y015403D01*
X008790Y015380D01*
X008790Y015169D01*
X008812Y015147D01*
X008790Y015125D01*
X008790Y014913D01*
X008812Y014891D01*
X008790Y014869D01*
X008790Y014657D01*
X008812Y014635D01*
X008790Y014613D01*
X008790Y014401D01*
X008812Y014379D01*
X008790Y014357D01*
X007118Y014357D01*
X007060Y014416D02*
X008790Y014416D01*
X008790Y014474D02*
X007001Y014474D01*
X006942Y014533D02*
X008790Y014533D01*
X008790Y014591D02*
X006884Y014591D01*
X006825Y014650D02*
X008797Y014650D01*
X008790Y014708D02*
X006767Y014708D01*
X006708Y014767D02*
X008790Y014767D01*
X008790Y014825D02*
X006650Y014825D01*
X006641Y014834D02*
X006641Y014856D01*
X006655Y014870D01*
X006672Y014900D01*
X006681Y014933D01*
X006681Y015014D01*
X006281Y015014D01*
X006281Y015023D01*
X006681Y015023D01*
X006681Y015104D01*
X006672Y015137D01*
X006655Y015167D01*
X006641Y015181D01*
X006641Y015380D01*
X006619Y015403D01*
X006641Y015425D01*
X006641Y015624D01*
X006655Y015638D01*
X006672Y015668D01*
X006681Y015701D01*
X006681Y015782D01*
X006281Y015782D01*
X006281Y015791D01*
X006681Y015791D01*
X006681Y015872D01*
X006672Y015905D01*
X006655Y015935D01*
X006641Y015949D01*
X006641Y016148D01*
X006619Y016170D01*
X006641Y016193D01*
X006641Y016404D01*
X006619Y016426D01*
X006641Y016448D01*
X006641Y016648D01*
X006655Y016662D01*
X006672Y016691D01*
X006681Y016724D01*
X006681Y016806D01*
X006281Y016806D01*
X006281Y016814D01*
X006681Y016814D01*
X006681Y016896D01*
X006672Y016929D01*
X006667Y016938D01*
X006672Y016947D01*
X006681Y016980D01*
X006681Y017062D01*
X006281Y017062D01*
X006281Y017070D01*
X006681Y017070D01*
X006681Y017152D01*
X006672Y017185D01*
X006655Y017214D01*
X006641Y017228D01*
X006641Y017428D01*
X006619Y017450D01*
X006641Y017472D01*
X006641Y017684D01*
X006588Y017736D01*
X005964Y017736D01*
X005911Y017684D01*
X005911Y017472D01*
X005933Y017450D01*
X005911Y017428D01*
X005911Y017228D01*
X005897Y017214D01*
X005880Y017185D01*
X005871Y017152D01*
X005871Y017070D01*
X006272Y017070D01*
X006272Y017062D01*
X005871Y017062D01*
X005871Y016980D01*
X005880Y016947D01*
X005885Y016938D01*
X005880Y016929D01*
X005871Y016896D01*
X005871Y016814D01*
X006272Y016814D01*
X006272Y016806D01*
X005871Y016806D01*
X005871Y016724D01*
X005880Y016691D01*
X005897Y016662D01*
X005911Y016648D01*
X005911Y016588D01*
X005738Y016760D01*
X005738Y017275D01*
X005686Y017327D01*
X005139Y017327D01*
X005086Y017275D01*
X005086Y016728D01*
X005139Y016675D01*
X005456Y016675D01*
X005572Y016560D01*
X005139Y016560D01*
X005086Y016507D01*
X005086Y015960D01*
X005139Y015907D01*
X005686Y015907D01*
X005738Y015960D01*
X005738Y016103D01*
X005791Y016103D01*
X005873Y016022D01*
X005911Y015984D01*
X005911Y015949D01*
X005897Y015935D01*
X005880Y015905D01*
X005871Y015872D01*
X005871Y015791D01*
X006272Y015791D01*
X006272Y015782D01*
X005871Y015782D01*
X005871Y015701D01*
X005880Y015668D01*
X005897Y015638D01*
X005911Y015624D01*
X005911Y015425D01*
X005917Y015418D01*
X005660Y015418D01*
X005660Y015767D01*
X005607Y015820D01*
X004981Y015820D01*
X004929Y015767D01*
X004929Y015107D01*
X004925Y015104D01*
X004597Y015104D01*
X004597Y015385D01*
X004222Y015385D01*
X004222Y015445D01*
X004597Y015445D01*
X004597Y015747D01*
X004589Y015780D01*
X004571Y015810D01*
X004547Y015834D01*
X004518Y015851D01*
X004485Y015860D01*
X004222Y015860D01*
X004222Y015445D01*
X004162Y015445D01*
X004162Y015385D01*
X003786Y015385D01*
X003786Y015104D01*
X003217Y015104D01*
X003180Y015140D01*
X003180Y015921D01*
X003190Y015921D01*
X003242Y015974D01*
X003242Y016521D01*
X003190Y016574D01*
X003141Y016574D01*
X003141Y016681D01*
X003205Y016681D01*
X003258Y016734D01*
X003258Y017281D01*
X003205Y017334D01*
X002816Y017334D01*
X002763Y017281D01*
X002763Y016734D01*
X002816Y016681D01*
X002881Y016681D01*
X002881Y016574D01*
X002800Y016574D01*
X002747Y016521D01*
X002747Y015974D01*
X002800Y015921D01*
X002920Y015921D01*
X002920Y015140D01*
X002840Y015061D01*
X002840Y014887D01*
X002963Y014764D01*
X003137Y014764D01*
X003217Y014844D01*
X004357Y014844D01*
X004357Y014649D01*
X004614Y014649D01*
X004614Y014589D01*
X004357Y014589D01*
X004357Y014366D01*
X004366Y014333D01*
X004383Y014303D01*
X004407Y014279D01*
X004437Y014262D01*
X004470Y014253D01*
X004615Y014253D01*
X004615Y014589D01*
X004674Y014589D01*
X004674Y014253D01*
X004819Y014253D01*
X004852Y014262D01*
X004882Y014279D01*
X004906Y014303D01*
X004923Y014333D01*
X004932Y014366D01*
X004932Y014589D01*
X004675Y014589D01*
X004675Y014649D01*
X004932Y014649D01*
X004932Y014844D01*
X005033Y014844D01*
X005109Y014920D01*
X005200Y015010D01*
X005243Y015010D01*
X005243Y014945D01*
X005158Y014945D01*
X005106Y014893D01*
X005106Y014346D01*
X005158Y014293D01*
X005548Y014293D01*
X005601Y014346D01*
X005601Y014893D01*
X005548Y014945D01*
X005503Y014945D01*
X005503Y015010D01*
X005607Y015010D01*
X005660Y015063D01*
X005660Y015159D01*
X005892Y015159D01*
X005880Y015137D01*
X005871Y015104D01*
X005871Y015023D01*
X006272Y015023D01*
X006272Y015014D01*
X005871Y015014D01*
X005871Y014933D01*
X005880Y014900D01*
X005897Y014870D01*
X005911Y014856D01*
X005911Y014829D01*
X005873Y014791D01*
X005637Y014555D01*
X005637Y014447D01*
X005637Y014279D01*
X005515Y014158D01*
X005158Y014158D01*
X005106Y014105D01*
X005106Y013558D01*
X005158Y013506D01*
X005414Y013506D01*
X004532Y012623D01*
X002706Y012623D01*
X002713Y012631D01*
X002713Y012830D01*
X002727Y012844D01*
X002744Y012874D01*
X002753Y012907D01*
X002753Y012993D01*
X002367Y012993D01*
X002367Y013012D01*
X002753Y013012D01*
X002753Y013099D01*
X002744Y013132D01*
X002727Y013161D01*
X002703Y013185D01*
X002673Y013203D01*
X002653Y013208D01*
X002661Y013208D01*
X002713Y013261D01*
X002713Y014162D01*
X002661Y014215D01*
X001956Y014215D01*
X001903Y014162D01*
X001903Y013261D01*
X001956Y013208D01*
X002062Y013208D01*
X002042Y013203D01*
X002012Y013185D01*
X001988Y013161D01*
X001971Y013132D01*
X001962Y013099D01*
X001962Y013012D01*
X002348Y013012D01*
X002348Y012993D01*
X001962Y012993D01*
X001962Y012907D01*
X001971Y012874D01*
X001988Y012844D01*
X002002Y012830D01*
X002002Y012631D01*
X002014Y012619D01*
X002002Y012607D01*
X002002Y012382D01*
X001956Y012428D01*
X001782Y012428D01*
X001768Y012414D01*
X001768Y012430D01*
X001716Y012482D01*
X000893Y012482D01*
X000840Y012430D01*
X000840Y011607D01*
X000840Y011664D02*
X000503Y011664D01*
X000503Y011723D02*
X000840Y011723D01*
X000840Y011781D02*
X000503Y011781D01*
X000503Y011840D02*
X000840Y011840D01*
X000840Y011898D02*
X000503Y011898D01*
X000503Y011957D02*
X000840Y011957D01*
X000840Y012015D02*
X000503Y012015D01*
X000503Y012074D02*
X000840Y012074D01*
X000840Y012132D02*
X000503Y012132D01*
X000503Y012191D02*
X000840Y012191D01*
X000840Y012249D02*
X000503Y012249D01*
X000503Y012308D02*
X000840Y012308D01*
X000840Y012367D02*
X000503Y012367D01*
X000503Y012425D02*
X000840Y012425D01*
X000893Y012499D02*
X000840Y012552D01*
X000840Y013375D01*
X000893Y013427D01*
X001716Y013427D01*
X001768Y013375D01*
X001768Y012552D01*
X001716Y012499D01*
X000893Y012499D01*
X000850Y012542D02*
X000503Y012542D01*
X000503Y012484D02*
X002002Y012484D01*
X002002Y012542D02*
X001759Y012542D01*
X001768Y012601D02*
X002002Y012601D01*
X002002Y012659D02*
X001768Y012659D01*
X001768Y012718D02*
X002002Y012718D01*
X002002Y012776D02*
X001768Y012776D01*
X001768Y012835D02*
X001997Y012835D01*
X001965Y012893D02*
X001768Y012893D01*
X001768Y012952D02*
X001962Y012952D01*
X001962Y013069D02*
X001768Y013069D01*
X001768Y013011D02*
X002348Y013011D01*
X002367Y013011D02*
X004919Y013011D01*
X004978Y013069D02*
X002753Y013069D01*
X002745Y013128D02*
X005036Y013128D01*
X005095Y013186D02*
X002702Y013186D01*
X002697Y013245D02*
X005153Y013245D01*
X005212Y013303D02*
X002713Y013303D01*
X002713Y013362D02*
X005270Y013362D01*
X005329Y013420D02*
X002713Y013420D01*
X002713Y013479D02*
X004429Y013479D01*
X004437Y013474D02*
X004470Y013466D01*
X004615Y013466D01*
X004615Y013802D01*
X004674Y013802D01*
X004674Y013466D01*
X004819Y013466D01*
X004852Y013474D01*
X004882Y013492D01*
X004906Y013516D01*
X004923Y013545D01*
X004932Y013578D01*
X004932Y013802D01*
X004675Y013802D01*
X004675Y013862D01*
X004932Y013862D01*
X004932Y014085D01*
X004923Y014118D01*
X004906Y014148D01*
X004882Y014172D01*
X004852Y014189D01*
X004819Y014198D01*
X004674Y014198D01*
X004674Y013862D01*
X004615Y013862D01*
X004615Y014198D01*
X004470Y014198D01*
X004437Y014189D01*
X004407Y014172D01*
X004383Y014148D01*
X004366Y014118D01*
X004357Y014085D01*
X004357Y013862D01*
X004614Y013862D01*
X004614Y013802D01*
X004357Y013802D01*
X004357Y013578D01*
X004366Y013545D01*
X004383Y013516D01*
X004407Y013492D01*
X004437Y013474D01*
X004371Y013537D02*
X002713Y013537D01*
X002713Y013596D02*
X004357Y013596D01*
X004357Y013655D02*
X002713Y013655D01*
X002713Y013713D02*
X004357Y013713D01*
X004357Y013772D02*
X002713Y013772D01*
X002713Y013830D02*
X004614Y013830D01*
X004615Y013772D02*
X004674Y013772D01*
X004675Y013830D02*
X005106Y013830D01*
X005106Y013772D02*
X004932Y013772D01*
X004932Y013713D02*
X005106Y013713D01*
X005106Y013655D02*
X004932Y013655D01*
X004932Y013596D02*
X005106Y013596D01*
X005127Y013537D02*
X004919Y013537D01*
X004860Y013479D02*
X005387Y013479D01*
X005106Y013889D02*
X004932Y013889D01*
X004932Y013947D02*
X005106Y013947D01*
X005106Y014006D02*
X004932Y014006D01*
X004932Y014064D02*
X005106Y014064D01*
X005123Y014123D02*
X004920Y014123D01*
X004866Y014181D02*
X005539Y014181D01*
X005597Y014240D02*
X001768Y014240D01*
X001768Y014299D02*
X004388Y014299D01*
X004359Y014357D02*
X001768Y014357D01*
X001768Y014416D02*
X004357Y014416D01*
X004357Y014474D02*
X001768Y014474D01*
X001768Y014497D02*
X001716Y014549D01*
X000893Y014549D01*
X000840Y014497D01*
X000840Y013674D01*
X000893Y013621D01*
X001716Y013621D01*
X001768Y013674D01*
X001768Y014497D01*
X001732Y014533D02*
X004357Y014533D01*
X004357Y014650D02*
X000503Y014650D01*
X000503Y014708D02*
X004357Y014708D01*
X004357Y014767D02*
X003140Y014767D01*
X003199Y014825D02*
X004357Y014825D01*
X004614Y014591D02*
X000503Y014591D01*
X000503Y014533D02*
X000876Y014533D01*
X000840Y014474D02*
X000503Y014474D01*
X000503Y014416D02*
X000840Y014416D01*
X000840Y014357D02*
X000503Y014357D01*
X000503Y014299D02*
X000840Y014299D01*
X000840Y014240D02*
X000503Y014240D01*
X000503Y014181D02*
X000840Y014181D01*
X000840Y014123D02*
X000503Y014123D01*
X000503Y014064D02*
X000840Y014064D01*
X000840Y014006D02*
X000503Y014006D01*
X000503Y013947D02*
X000840Y013947D01*
X000840Y013889D02*
X000503Y013889D01*
X000503Y013830D02*
X000840Y013830D01*
X000840Y013772D02*
X000503Y013772D01*
X000503Y013713D02*
X000840Y013713D01*
X000860Y013655D02*
X000503Y013655D01*
X000503Y013596D02*
X001903Y013596D01*
X001903Y013537D02*
X000503Y013537D01*
X000503Y013479D02*
X001903Y013479D01*
X001903Y013420D02*
X001723Y013420D01*
X001768Y013362D02*
X001903Y013362D01*
X001903Y013303D02*
X001768Y013303D01*
X001768Y013245D02*
X001919Y013245D01*
X002013Y013186D02*
X001768Y013186D01*
X001768Y013128D02*
X001970Y013128D01*
X001903Y013655D02*
X001749Y013655D01*
X001768Y013713D02*
X001903Y013713D01*
X001903Y013772D02*
X001768Y013772D01*
X001768Y013830D02*
X001903Y013830D01*
X001903Y013889D02*
X001768Y013889D01*
X001768Y013947D02*
X001903Y013947D01*
X001903Y014006D02*
X001768Y014006D01*
X001768Y014064D02*
X001903Y014064D01*
X001903Y014123D02*
X001768Y014123D01*
X001768Y014181D02*
X001923Y014181D01*
X002694Y014181D02*
X004424Y014181D01*
X004369Y014123D02*
X002713Y014123D01*
X002713Y014064D02*
X004357Y014064D01*
X004357Y014006D02*
X002713Y014006D01*
X002713Y013947D02*
X004357Y013947D01*
X004357Y013889D02*
X002713Y013889D01*
X002960Y014767D02*
X000503Y014767D01*
X000503Y014825D02*
X002901Y014825D01*
X002843Y014884D02*
X000503Y014884D01*
X000503Y014942D02*
X002840Y014942D01*
X002840Y015001D02*
X000503Y015001D01*
X000503Y015060D02*
X002840Y015060D01*
X002898Y015118D02*
X000503Y015118D01*
X000503Y015177D02*
X002920Y015177D01*
X002920Y015235D02*
X000503Y015235D01*
X000503Y015294D02*
X002920Y015294D01*
X002920Y015352D02*
X000503Y015352D01*
X000503Y015411D02*
X002920Y015411D01*
X002920Y015469D02*
X000503Y015469D01*
X000503Y015528D02*
X002920Y015528D01*
X002920Y015586D02*
X000503Y015586D01*
X000503Y015645D02*
X002920Y015645D01*
X002920Y015704D02*
X000503Y015704D01*
X000503Y015762D02*
X002920Y015762D01*
X002920Y015821D02*
X000503Y015821D01*
X000503Y015879D02*
X002920Y015879D01*
X002784Y015938D02*
X000503Y015938D01*
X000503Y015996D02*
X002747Y015996D01*
X002747Y016055D02*
X000503Y016055D01*
X000503Y016113D02*
X002747Y016113D01*
X002747Y016172D02*
X000503Y016172D01*
X000503Y016230D02*
X002747Y016230D01*
X002747Y016289D02*
X000503Y016289D01*
X000503Y016348D02*
X002747Y016348D01*
X002747Y016406D02*
X000503Y016406D01*
X000503Y016465D02*
X002747Y016465D01*
X002750Y016523D02*
X000503Y016523D01*
X000503Y016582D02*
X002881Y016582D01*
X002881Y016640D02*
X000503Y016640D01*
X000503Y016699D02*
X002798Y016699D01*
X002763Y016757D02*
X000503Y016757D01*
X000503Y016816D02*
X002763Y016816D01*
X002763Y016874D02*
X000503Y016874D01*
X000503Y016933D02*
X002763Y016933D01*
X002763Y016991D02*
X000503Y016991D01*
X000503Y017050D02*
X002763Y017050D01*
X002763Y017109D02*
X000503Y017109D01*
X000503Y017167D02*
X001066Y017167D01*
X001115Y017147D02*
X001284Y017147D01*
X001441Y017211D01*
X001560Y017331D01*
X001625Y017487D01*
X001625Y017657D01*
X001560Y017813D01*
X001441Y017932D01*
X001284Y017997D01*
X001115Y017997D01*
X000959Y017932D01*
X000839Y017813D01*
X000774Y017657D01*
X000774Y017487D01*
X000839Y017331D01*
X000959Y017211D01*
X001115Y017147D01*
X000945Y017226D02*
X000503Y017226D01*
X000503Y017284D02*
X000886Y017284D01*
X000834Y017343D02*
X000503Y017343D01*
X000503Y017401D02*
X000810Y017401D01*
X000786Y017460D02*
X000503Y017460D01*
X000503Y017518D02*
X000774Y017518D01*
X000774Y017577D02*
X000503Y017577D01*
X000503Y017635D02*
X000774Y017635D01*
X000790Y017694D02*
X000503Y017694D01*
X000503Y017753D02*
X000814Y017753D01*
X000838Y017811D02*
X000503Y017811D01*
X000503Y017870D02*
X000896Y017870D01*
X000954Y017928D02*
X000503Y017928D01*
X000503Y017987D02*
X001090Y017987D01*
X001310Y017987D02*
X011857Y017987D01*
X011857Y018045D02*
X000503Y018045D01*
X000503Y018104D02*
X011857Y018104D01*
X011857Y018162D02*
X000503Y018162D01*
X000503Y018221D02*
X011857Y018221D01*
X011857Y018279D02*
X000503Y018279D01*
X000503Y018338D02*
X011857Y018338D01*
X011857Y018397D02*
X000503Y018397D01*
X000503Y018455D02*
X011857Y018455D01*
X011857Y018514D02*
X000503Y018514D01*
X000503Y018572D02*
X011857Y018572D01*
X011857Y018631D02*
X000503Y018631D01*
X000503Y018689D02*
X011857Y018689D01*
X011857Y018748D02*
X000503Y018748D01*
X000503Y018806D02*
X011857Y018806D01*
X011857Y018865D02*
X000503Y018865D01*
X000503Y018923D02*
X011857Y018923D01*
X011857Y018982D02*
X000503Y018982D01*
X001445Y017928D02*
X011857Y017928D01*
X011857Y017870D02*
X001503Y017870D01*
X001561Y017811D02*
X011857Y017811D01*
X011857Y017753D02*
X001585Y017753D01*
X001609Y017694D02*
X005921Y017694D01*
X005911Y017635D02*
X001625Y017635D01*
X001625Y017577D02*
X005911Y017577D01*
X005911Y017518D02*
X001625Y017518D01*
X001614Y017460D02*
X005923Y017460D01*
X005911Y017401D02*
X001589Y017401D01*
X001565Y017343D02*
X005911Y017343D01*
X005911Y017284D02*
X005729Y017284D01*
X005738Y017226D02*
X005908Y017226D01*
X005875Y017167D02*
X005738Y017167D01*
X005738Y017109D02*
X005871Y017109D01*
X005871Y017050D02*
X005738Y017050D01*
X005738Y016991D02*
X005871Y016991D01*
X005882Y016933D02*
X005738Y016933D01*
X005738Y016874D02*
X005871Y016874D01*
X005871Y016816D02*
X005738Y016816D01*
X005741Y016757D02*
X005871Y016757D01*
X005878Y016699D02*
X005800Y016699D01*
X005859Y016640D02*
X005911Y016640D01*
X005549Y016582D02*
X003141Y016582D01*
X003141Y016640D02*
X005491Y016640D01*
X005115Y016699D02*
X004883Y016699D01*
X004859Y016675D02*
X004912Y016728D01*
X004912Y017275D01*
X004859Y017327D01*
X004312Y017327D01*
X004259Y017275D01*
X004259Y017151D01*
X003967Y017151D01*
X003967Y017281D01*
X003914Y017334D01*
X003525Y017334D01*
X003472Y017281D01*
X003472Y016734D01*
X003525Y016681D01*
X003914Y016681D01*
X003967Y016734D01*
X003967Y016891D01*
X004259Y016891D01*
X004259Y016728D01*
X004312Y016675D01*
X004859Y016675D01*
X004912Y016757D02*
X005086Y016757D01*
X005086Y016816D02*
X004912Y016816D01*
X004912Y016874D02*
X005086Y016874D01*
X005086Y016933D02*
X004912Y016933D01*
X004912Y016991D02*
X005086Y016991D01*
X005086Y017050D02*
X004912Y017050D01*
X004912Y017109D02*
X005086Y017109D01*
X005086Y017167D02*
X004912Y017167D01*
X004912Y017226D02*
X005086Y017226D01*
X005096Y017284D02*
X004902Y017284D01*
X004859Y016560D02*
X004912Y016507D01*
X004912Y015960D01*
X004859Y015907D01*
X004312Y015907D01*
X004259Y015960D01*
X004259Y016103D01*
X003951Y016103D01*
X003951Y015974D01*
X003898Y015921D01*
X003509Y015921D01*
X003456Y015974D01*
X003456Y016521D01*
X003509Y016574D01*
X003898Y016574D01*
X003951Y016521D01*
X003951Y016363D01*
X004259Y016363D01*
X004259Y016507D01*
X004312Y016560D01*
X004859Y016560D01*
X004895Y016523D02*
X005102Y016523D01*
X005086Y016465D02*
X004912Y016465D01*
X004912Y016406D02*
X005086Y016406D01*
X005086Y016348D02*
X004912Y016348D01*
X004912Y016289D02*
X005086Y016289D01*
X005086Y016230D02*
X004912Y016230D01*
X004912Y016172D02*
X005086Y016172D01*
X005086Y016113D02*
X004912Y016113D01*
X004912Y016055D02*
X005086Y016055D01*
X005086Y015996D02*
X004912Y015996D01*
X004890Y015938D02*
X005108Y015938D01*
X004929Y015762D02*
X004593Y015762D01*
X004597Y015704D02*
X004929Y015704D01*
X004929Y015645D02*
X004597Y015645D01*
X004597Y015586D02*
X004929Y015586D01*
X004929Y015528D02*
X004597Y015528D01*
X004597Y015469D02*
X004929Y015469D01*
X004929Y015411D02*
X004222Y015411D01*
X004222Y015469D02*
X004162Y015469D01*
X004162Y015445D02*
X004162Y015860D01*
X003899Y015860D01*
X003866Y015851D01*
X003836Y015834D01*
X003812Y015810D01*
X003795Y015780D01*
X003786Y015747D01*
X003786Y015445D01*
X004162Y015445D01*
X004162Y015411D02*
X003180Y015411D01*
X003180Y015469D02*
X003786Y015469D01*
X003786Y015528D02*
X003180Y015528D01*
X003180Y015586D02*
X003786Y015586D01*
X003786Y015645D02*
X003180Y015645D01*
X003180Y015704D02*
X003786Y015704D01*
X003790Y015762D02*
X003180Y015762D01*
X003180Y015821D02*
X003823Y015821D01*
X003915Y015938D02*
X004281Y015938D01*
X004259Y015996D02*
X003951Y015996D01*
X003951Y016055D02*
X004259Y016055D01*
X004222Y015821D02*
X004162Y015821D01*
X004162Y015762D02*
X004222Y015762D01*
X004222Y015704D02*
X004162Y015704D01*
X004162Y015645D02*
X004222Y015645D01*
X004222Y015586D02*
X004162Y015586D01*
X004162Y015528D02*
X004222Y015528D01*
X004597Y015352D02*
X004929Y015352D01*
X004929Y015294D02*
X004597Y015294D01*
X004597Y015235D02*
X004929Y015235D01*
X004929Y015177D02*
X004597Y015177D01*
X004597Y015118D02*
X004929Y015118D01*
X005132Y014942D02*
X005156Y014942D01*
X005191Y015001D02*
X005243Y015001D01*
X005106Y014884D02*
X005073Y014884D01*
X005106Y014825D02*
X004932Y014825D01*
X004932Y014767D02*
X005106Y014767D01*
X005106Y014708D02*
X004932Y014708D01*
X004932Y014650D02*
X005106Y014650D01*
X005106Y014591D02*
X004675Y014591D01*
X004674Y014533D02*
X004615Y014533D01*
X004615Y014474D02*
X004674Y014474D01*
X004674Y014416D02*
X004615Y014416D01*
X004615Y014357D02*
X004674Y014357D01*
X004674Y014299D02*
X004615Y014299D01*
X004615Y014181D02*
X004674Y014181D01*
X004674Y014123D02*
X004615Y014123D01*
X004615Y014064D02*
X004674Y014064D01*
X004674Y014006D02*
X004615Y014006D01*
X004615Y013947D02*
X004674Y013947D01*
X004674Y013889D02*
X004615Y013889D01*
X004615Y013713D02*
X004674Y013713D01*
X004674Y013655D02*
X004615Y013655D01*
X004615Y013596D02*
X004674Y013596D01*
X004674Y013537D02*
X004615Y013537D01*
X004615Y013479D02*
X004674Y013479D01*
X004861Y012952D02*
X002753Y012952D01*
X002750Y012893D02*
X004802Y012893D01*
X004743Y012835D02*
X002718Y012835D01*
X002713Y012776D02*
X004685Y012776D01*
X004626Y012718D02*
X002713Y012718D01*
X002713Y012659D02*
X004568Y012659D01*
X004959Y012249D02*
X006988Y012249D01*
X006981Y012256D02*
X007006Y012232D01*
X007035Y012215D01*
X007068Y012206D01*
X007155Y012206D01*
X007155Y012464D01*
X006956Y012464D01*
X006956Y012319D01*
X006964Y012286D01*
X006981Y012256D01*
X006958Y012308D02*
X005017Y012308D01*
X005076Y012367D02*
X006956Y012367D01*
X006956Y012425D02*
X005134Y012425D01*
X005193Y012484D02*
X006956Y012484D01*
X006956Y012542D02*
X005251Y012542D01*
X005310Y012601D02*
X006956Y012601D01*
X006964Y012659D02*
X005368Y012659D01*
X005427Y012718D02*
X007010Y012718D01*
X007155Y012718D02*
X007174Y012718D01*
X007174Y012659D02*
X007155Y012659D01*
X007155Y012601D02*
X007174Y012601D01*
X007174Y012542D02*
X007155Y012542D01*
X007155Y012484D02*
X007174Y012484D01*
X007174Y012425D02*
X007155Y012425D01*
X007155Y012367D02*
X007174Y012367D01*
X007174Y012308D02*
X007155Y012308D01*
X007155Y012249D02*
X007174Y012249D01*
X007254Y012191D02*
X004900Y012191D01*
X004842Y012132D02*
X007210Y012132D01*
X007210Y012074D02*
X002713Y012074D01*
X002713Y012015D02*
X007032Y012015D01*
X006996Y011957D02*
X002713Y011957D01*
X002713Y011898D02*
X006996Y011898D01*
X006996Y011840D02*
X002690Y011840D01*
X002712Y011723D02*
X006996Y011723D01*
X006996Y011781D02*
X001768Y011781D01*
X001768Y011723D02*
X001905Y011723D01*
X001903Y011664D02*
X001768Y011664D01*
X001767Y011606D02*
X001903Y011606D01*
X002025Y011840D02*
X001768Y011840D01*
X001768Y011898D02*
X002002Y011898D01*
X001946Y011957D02*
X001768Y011957D01*
X001768Y012015D02*
X001774Y012015D01*
X001768Y012425D02*
X001780Y012425D01*
X001958Y012425D02*
X002002Y012425D01*
X002713Y011664D02*
X006996Y011664D01*
X007019Y011606D02*
X002713Y011606D01*
X002713Y011547D02*
X007566Y011547D01*
X007566Y011488D02*
X002713Y011488D01*
X002713Y011430D02*
X007566Y011430D01*
X007566Y011371D02*
X002713Y011371D01*
X002713Y011313D02*
X007566Y011313D01*
X007566Y011254D02*
X002713Y011254D01*
X002713Y011196D02*
X007566Y011196D01*
X007566Y011137D02*
X002713Y011137D01*
X002713Y011079D02*
X007566Y011079D01*
X007566Y011020D02*
X002713Y011020D01*
X002713Y010962D02*
X007566Y010962D01*
X007566Y010903D02*
X002713Y010903D01*
X002713Y010844D02*
X007566Y010844D01*
X007566Y010786D02*
X007161Y010786D01*
X007147Y010800D02*
X007200Y010747D01*
X007200Y010043D01*
X007147Y009990D01*
X006801Y009990D01*
X006787Y009976D01*
X006758Y009959D01*
X006725Y009950D01*
X006580Y009950D01*
X006580Y010365D01*
X006520Y010365D01*
X006520Y009950D01*
X006375Y009950D01*
X006342Y009959D01*
X006313Y009976D01*
X006289Y010000D01*
X006286Y010004D01*
X006272Y009990D01*
X005883Y009990D01*
X005841Y010031D01*
X005800Y009990D01*
X005410Y009990D01*
X005358Y010043D01*
X005358Y010747D01*
X005410Y010800D01*
X005800Y010800D01*
X005841Y010758D01*
X005883Y010800D01*
X006272Y010800D01*
X006286Y010786D01*
X006286Y010786D01*
X006289Y010790D01*
X006313Y010814D01*
X006342Y010831D01*
X006375Y010840D01*
X006520Y010840D01*
X006520Y010425D01*
X006580Y010425D01*
X006580Y010840D01*
X006725Y010840D01*
X006758Y010831D01*
X006787Y010814D01*
X006801Y010800D01*
X007147Y010800D01*
X007200Y010727D02*
X007566Y010727D01*
X007566Y010669D02*
X007200Y010669D01*
X007200Y010610D02*
X007566Y010610D01*
X007566Y010552D02*
X007200Y010552D01*
X007200Y010493D02*
X007566Y010493D01*
X007566Y010435D02*
X007200Y010435D01*
X007200Y010376D02*
X007566Y010376D01*
X007566Y010318D02*
X007200Y010318D01*
X007200Y010259D02*
X007566Y010259D01*
X007566Y010200D02*
X007200Y010200D01*
X007200Y010142D02*
X007566Y010142D01*
X007566Y010083D02*
X007200Y010083D01*
X007182Y010025D02*
X007566Y010025D01*
X007566Y009966D02*
X006771Y009966D01*
X006580Y009966D02*
X006520Y009966D01*
X006520Y010025D02*
X006580Y010025D01*
X006580Y010083D02*
X006520Y010083D01*
X006520Y010142D02*
X006580Y010142D01*
X006580Y010200D02*
X006520Y010200D01*
X006520Y010259D02*
X006580Y010259D01*
X006580Y010318D02*
X006520Y010318D01*
X006520Y010435D02*
X006580Y010435D01*
X006580Y010493D02*
X006520Y010493D01*
X006520Y010552D02*
X006580Y010552D01*
X006580Y010610D02*
X006520Y010610D01*
X006520Y010669D02*
X006580Y010669D01*
X006580Y010727D02*
X006520Y010727D01*
X006520Y010786D02*
X006580Y010786D01*
X005869Y010786D02*
X005814Y010786D01*
X005397Y010786D02*
X005263Y010786D01*
X005301Y010727D02*
X005358Y010727D01*
X005358Y010669D02*
X005301Y010669D01*
X005301Y010610D02*
X005358Y010610D01*
X005358Y010552D02*
X005301Y010552D01*
X005301Y010493D02*
X005358Y010493D01*
X005358Y010435D02*
X005301Y010435D01*
X005301Y010376D02*
X005358Y010376D01*
X005358Y010318D02*
X005301Y010318D01*
X005301Y010259D02*
X005358Y010259D01*
X005358Y010200D02*
X005301Y010200D01*
X005301Y010142D02*
X005358Y010142D01*
X005358Y010083D02*
X005301Y010083D01*
X005284Y010025D02*
X005375Y010025D01*
X005835Y010025D02*
X005848Y010025D01*
X006329Y009966D02*
X004330Y009966D01*
X004139Y009966D02*
X004079Y009966D01*
X004079Y010025D02*
X004139Y010025D01*
X004139Y010083D02*
X004079Y010083D01*
X004079Y010142D02*
X004139Y010142D01*
X004139Y010200D02*
X004079Y010200D01*
X004079Y010259D02*
X004139Y010259D01*
X004139Y010318D02*
X004079Y010318D01*
X004079Y010435D02*
X004139Y010435D01*
X004139Y010493D02*
X004079Y010493D01*
X004079Y010552D02*
X004139Y010552D01*
X004139Y010610D02*
X004079Y010610D01*
X004079Y010669D02*
X004139Y010669D01*
X004139Y010727D02*
X004079Y010727D01*
X004079Y010786D02*
X004139Y010786D01*
X003498Y010786D02*
X002679Y010786D01*
X003888Y009966D02*
X000503Y009966D01*
X000503Y009908D02*
X007566Y009908D01*
X007566Y009849D02*
X000503Y009849D01*
X000503Y009791D02*
X007566Y009791D01*
X007566Y009732D02*
X000503Y009732D01*
X000503Y009674D02*
X007566Y009674D01*
X007826Y009674D02*
X008314Y009674D01*
X008314Y009732D02*
X007826Y009732D01*
X007826Y009791D02*
X008314Y009791D01*
X008314Y009849D02*
X007826Y009849D01*
X007826Y009908D02*
X008314Y009908D01*
X008314Y009966D02*
X007826Y009966D01*
X007826Y010025D02*
X008314Y010025D01*
X008314Y010083D02*
X007826Y010083D01*
X007826Y010142D02*
X008314Y010142D01*
X008314Y010200D02*
X007826Y010200D01*
X007826Y010259D02*
X008314Y010259D01*
X008314Y010318D02*
X007826Y010318D01*
X007826Y010376D02*
X008314Y010376D01*
X008314Y010435D02*
X007826Y010435D01*
X007826Y010493D02*
X008314Y010493D01*
X008314Y010552D02*
X007826Y010552D01*
X007826Y010610D02*
X008314Y010610D01*
X008314Y010669D02*
X007826Y010669D01*
X007826Y010727D02*
X008314Y010727D01*
X008314Y010786D02*
X007826Y010786D01*
X007826Y010844D02*
X008314Y010844D01*
X008314Y010903D02*
X007826Y010903D01*
X007826Y010962D02*
X008314Y010962D01*
X008314Y011020D02*
X007826Y011020D01*
X007826Y011079D02*
X008314Y011079D01*
X008314Y011137D02*
X007826Y011137D01*
X007826Y011196D02*
X008314Y011196D01*
X008314Y011254D02*
X007826Y011254D01*
X007826Y011313D02*
X008314Y011313D01*
X008314Y011371D02*
X007826Y011371D01*
X007826Y011430D02*
X008314Y011430D01*
X008314Y011488D02*
X007826Y011488D01*
X007826Y011547D02*
X008095Y011547D01*
X008098Y011545D02*
X008131Y011536D01*
X008218Y011536D01*
X008218Y011795D01*
X008019Y011795D01*
X008019Y011649D01*
X008027Y011616D01*
X008044Y011587D01*
X008069Y011562D01*
X008098Y011545D01*
X008034Y011606D02*
X007826Y011606D01*
X007845Y011664D02*
X008019Y011664D01*
X008019Y011723D02*
X007845Y011723D01*
X007845Y011781D02*
X008019Y011781D01*
X008019Y011840D02*
X007845Y011840D01*
X007845Y011898D02*
X008019Y011898D01*
X008019Y011957D02*
X007845Y011957D01*
X007809Y012015D02*
X008041Y012015D01*
X008218Y012015D02*
X008237Y012015D01*
X008237Y011957D02*
X008218Y011957D01*
X008218Y011898D02*
X008237Y011898D01*
X008237Y011840D02*
X008218Y011840D01*
X008218Y011781D02*
X008237Y011781D01*
X008237Y011723D02*
X008218Y011723D01*
X008218Y011664D02*
X008237Y011664D01*
X008237Y011606D02*
X008218Y011606D01*
X008218Y011547D02*
X008237Y011547D01*
X008574Y011547D02*
X008607Y011547D01*
X008574Y011488D02*
X009022Y011488D01*
X009022Y011430D02*
X008574Y011430D01*
X008574Y011371D02*
X009022Y011371D01*
X009022Y011313D02*
X008574Y011313D01*
X008574Y011254D02*
X009022Y011254D01*
X009022Y011196D02*
X008574Y011196D01*
X008574Y011137D02*
X009022Y011137D01*
X009022Y011079D02*
X008574Y011079D01*
X008574Y011020D02*
X009022Y011020D01*
X009022Y010962D02*
X008574Y010962D01*
X008574Y010903D02*
X009022Y010903D01*
X009022Y010844D02*
X008574Y010844D01*
X008574Y010786D02*
X009022Y010786D01*
X009022Y010727D02*
X008574Y010727D01*
X008574Y010669D02*
X009022Y010669D01*
X009022Y010610D02*
X008574Y010610D01*
X008574Y010552D02*
X009022Y010552D01*
X009022Y010493D02*
X008574Y010493D01*
X008574Y010435D02*
X009022Y010435D01*
X009022Y010376D02*
X008574Y010376D01*
X008574Y010318D02*
X009022Y010318D01*
X009022Y010259D02*
X008574Y010259D01*
X008574Y010200D02*
X009022Y010200D01*
X009022Y010142D02*
X008574Y010142D01*
X008574Y010083D02*
X009022Y010083D01*
X009022Y010025D02*
X008574Y010025D01*
X008574Y009966D02*
X009022Y009966D01*
X008881Y009908D02*
X008574Y009908D01*
X008574Y009849D02*
X008866Y009849D01*
X008866Y009791D02*
X008574Y009791D01*
X008574Y009732D02*
X008866Y009732D01*
X008866Y009674D02*
X008574Y009674D01*
X008574Y009615D02*
X008866Y009615D01*
X008866Y009556D02*
X008574Y009556D01*
X008574Y009498D02*
X008866Y009498D01*
X008866Y009439D02*
X008574Y009439D01*
X008574Y009381D02*
X008866Y009381D01*
X008889Y009322D02*
X008574Y009322D01*
X008574Y009264D02*
X008983Y009264D01*
X008983Y009205D02*
X008574Y009205D01*
X008574Y009147D02*
X008983Y009147D01*
X008983Y009088D02*
X008530Y009088D01*
X008471Y009030D02*
X008983Y009030D01*
X008983Y008971D02*
X008412Y008971D01*
X008354Y008913D02*
X008961Y008913D01*
X008933Y008854D02*
X008333Y008854D01*
X008333Y008795D02*
X008933Y008795D01*
X008933Y008737D02*
X008333Y008737D01*
X008333Y008678D02*
X008933Y008678D01*
X008933Y008620D02*
X008327Y008620D01*
X008314Y008561D02*
X008933Y008561D01*
X008933Y008503D02*
X009202Y008234D01*
X009243Y009205D02*
X010564Y009205D01*
X010590Y009147D02*
X010622Y009147D01*
X010649Y009088D02*
X010681Y009088D01*
X010707Y009030D02*
X010739Y009030D01*
X010766Y008971D02*
X010798Y008971D01*
X010825Y008913D02*
X010856Y008913D01*
X010853Y008854D02*
X010873Y008854D01*
X010873Y008795D02*
X010853Y008795D01*
X010853Y008737D02*
X010873Y008737D01*
X010873Y008678D02*
X010853Y008678D01*
X010853Y008620D02*
X010873Y008620D01*
X010873Y008561D02*
X010853Y008561D01*
X010852Y008503D02*
X010873Y008503D01*
X010873Y008444D02*
X010793Y008444D01*
X010735Y008386D02*
X010873Y008386D01*
X010873Y008327D02*
X010676Y008327D01*
X011133Y008327D02*
X011857Y008327D01*
X011857Y008269D02*
X011133Y008269D01*
X011133Y008210D02*
X011857Y008210D01*
X011857Y008151D02*
X011133Y008151D01*
X011133Y008093D02*
X011857Y008093D01*
X011857Y008034D02*
X011133Y008034D01*
X011133Y007976D02*
X011857Y007976D01*
X011857Y007917D02*
X011133Y007917D01*
X011133Y007859D02*
X011857Y007859D01*
X011857Y007800D02*
X011133Y007800D01*
X011133Y007742D02*
X011857Y007742D01*
X011857Y007683D02*
X011133Y007683D01*
X011133Y007625D02*
X011857Y007625D01*
X011857Y007566D02*
X011133Y007566D01*
X011133Y007507D02*
X011857Y007507D01*
X011857Y007449D02*
X011133Y007449D01*
X011124Y007273D02*
X011857Y007273D01*
X011857Y007215D02*
X011066Y007215D01*
X011007Y007156D02*
X011857Y007156D01*
X011857Y007098D02*
X010949Y007098D01*
X010890Y007039D02*
X011857Y007039D01*
X011857Y006981D02*
X010831Y006981D01*
X011133Y008386D02*
X011857Y008386D01*
X011857Y008444D02*
X011133Y008444D01*
X011133Y008503D02*
X011857Y008503D01*
X011857Y008561D02*
X011133Y008561D01*
X011133Y008620D02*
X011857Y008620D01*
X011857Y008678D02*
X011133Y008678D01*
X011133Y008737D02*
X011857Y008737D01*
X011857Y008795D02*
X011133Y008795D01*
X011133Y008854D02*
X011857Y008854D01*
X011857Y008913D02*
X011133Y008913D01*
X011133Y008971D02*
X011857Y008971D01*
X011857Y009030D02*
X011107Y009030D01*
X011048Y009088D02*
X011857Y009088D01*
X011857Y009147D02*
X010990Y009147D01*
X010931Y009205D02*
X011857Y009205D01*
X011857Y009264D02*
X010873Y009264D01*
X011172Y009322D02*
X011857Y009322D01*
X011857Y009381D02*
X011185Y009381D01*
X011185Y009439D02*
X011857Y009439D01*
X011857Y009498D02*
X011185Y009498D01*
X011185Y009556D02*
X011857Y009556D01*
X011857Y009615D02*
X011185Y009615D01*
X011172Y009674D02*
X011857Y009674D01*
X011857Y009732D02*
X011182Y009732D01*
X011185Y009791D02*
X011857Y009791D01*
X011857Y009849D02*
X011185Y009849D01*
X011185Y009908D02*
X011857Y009908D01*
X011857Y009966D02*
X011185Y009966D01*
X011185Y010025D02*
X011857Y010025D01*
X011857Y010083D02*
X011162Y010083D01*
X010975Y010142D02*
X011857Y010142D01*
X011857Y010200D02*
X010975Y010200D01*
X010975Y010259D02*
X011857Y010259D01*
X011857Y010318D02*
X010975Y010318D01*
X010975Y010376D02*
X011857Y010376D01*
X011857Y010435D02*
X011753Y010435D01*
X011762Y010493D02*
X011857Y010493D01*
X011857Y010552D02*
X011762Y010552D01*
X011762Y010610D02*
X011857Y010610D01*
X011857Y010669D02*
X011762Y010669D01*
X011762Y010727D02*
X011857Y010727D01*
X011857Y010786D02*
X011762Y010786D01*
X011762Y010844D02*
X011857Y010844D01*
X011857Y010903D02*
X011762Y010903D01*
X011762Y010962D02*
X011857Y010962D01*
X011857Y011020D02*
X011733Y011020D01*
X011857Y011079D02*
X011605Y011079D01*
X011605Y011137D02*
X011857Y011137D01*
X011857Y011196D02*
X011605Y011196D01*
X011605Y011254D02*
X011857Y011254D01*
X011857Y011313D02*
X011605Y011313D01*
X011605Y011371D02*
X011857Y011371D01*
X011857Y011430D02*
X011605Y011430D01*
X011605Y011488D02*
X011857Y011488D01*
X011857Y011547D02*
X011605Y011547D01*
X011605Y011606D02*
X011857Y011606D01*
X011857Y011664D02*
X011605Y011664D01*
X011605Y011723D02*
X011857Y011723D01*
X011857Y011781D02*
X011605Y011781D01*
X011605Y011840D02*
X011857Y011840D01*
X011857Y011898D02*
X011605Y011898D01*
X011605Y011957D02*
X011857Y011957D01*
X011857Y012015D02*
X011605Y012015D01*
X011605Y012074D02*
X011857Y012074D01*
X011857Y012132D02*
X011605Y012132D01*
X011605Y012191D02*
X011857Y012191D01*
X011857Y012249D02*
X011605Y012249D01*
X011605Y012308D02*
X011857Y012308D01*
X011857Y012367D02*
X011605Y012367D01*
X011605Y012425D02*
X011857Y012425D01*
X011857Y012484D02*
X011605Y012484D01*
X011605Y012542D02*
X011857Y012542D01*
X011857Y012601D02*
X011605Y012601D01*
X011605Y012659D02*
X011857Y012659D01*
X011857Y012718D02*
X011605Y012718D01*
X011605Y012776D02*
X011857Y012776D01*
X011857Y012835D02*
X011605Y012835D01*
X011605Y012893D02*
X011857Y012893D01*
X011857Y012952D02*
X011605Y012952D01*
X011605Y013011D02*
X011857Y013011D01*
X011857Y013069D02*
X011605Y013069D01*
X011605Y013128D02*
X011857Y013128D01*
X011857Y013186D02*
X011605Y013186D01*
X011605Y013245D02*
X011857Y013245D01*
X011857Y013303D02*
X011605Y013303D01*
X011605Y013362D02*
X011857Y013362D01*
X011857Y013420D02*
X011605Y013420D01*
X011605Y013479D02*
X011857Y013479D01*
X011857Y013537D02*
X011605Y013537D01*
X011605Y013596D02*
X011857Y013596D01*
X011857Y013655D02*
X011605Y013655D01*
X011605Y013713D02*
X011857Y013713D01*
X011857Y013772D02*
X011605Y013772D01*
X011605Y013830D02*
X011857Y013830D01*
X011857Y013889D02*
X011605Y013889D01*
X011605Y013947D02*
X011857Y013947D01*
X011857Y014006D02*
X011605Y014006D01*
X011605Y014064D02*
X011857Y014064D01*
X011857Y014123D02*
X011605Y014123D01*
X011605Y014181D02*
X011857Y014181D01*
X011857Y014240D02*
X011605Y014240D01*
X011605Y014299D02*
X011857Y014299D01*
X011857Y014357D02*
X011605Y014357D01*
X011605Y014416D02*
X011857Y014416D01*
X011857Y014474D02*
X011605Y014474D01*
X011605Y014533D02*
X011857Y014533D01*
X011857Y014591D02*
X011605Y014591D01*
X011605Y014650D02*
X011857Y014650D01*
X011857Y014708D02*
X011605Y014708D01*
X011605Y014767D02*
X011857Y014767D01*
X011857Y014825D02*
X011605Y014825D01*
X011605Y014884D02*
X011857Y014884D01*
X011857Y014942D02*
X011605Y014942D01*
X011605Y015001D02*
X011857Y015001D01*
X011857Y015060D02*
X011605Y015060D01*
X011605Y015118D02*
X011857Y015118D01*
X011857Y015177D02*
X011605Y015177D01*
X011605Y015235D02*
X011857Y015235D01*
X011857Y015294D02*
X011605Y015294D01*
X011556Y015352D02*
X011857Y015352D01*
X011857Y015411D02*
X011497Y015411D01*
X011439Y015469D02*
X011857Y015469D01*
X011857Y015528D02*
X011380Y015528D01*
X011322Y015586D02*
X011857Y015586D01*
X011857Y015645D02*
X011263Y015645D01*
X011205Y015704D02*
X011857Y015704D01*
X011857Y015762D02*
X011146Y015762D01*
X011088Y015821D02*
X011857Y015821D01*
X011857Y015879D02*
X011029Y015879D01*
X010970Y015938D02*
X011857Y015938D01*
X011857Y015996D02*
X010912Y015996D01*
X010853Y016055D02*
X011857Y016055D01*
X011857Y016113D02*
X010795Y016113D01*
X010736Y016172D02*
X011857Y016172D01*
X011857Y016230D02*
X010678Y016230D01*
X010619Y016289D02*
X011857Y016289D01*
X011857Y016348D02*
X010561Y016348D01*
X010502Y016406D02*
X011857Y016406D01*
X011857Y016465D02*
X010444Y016465D01*
X010385Y016523D02*
X011857Y016523D01*
X011857Y016582D02*
X010326Y016582D01*
X010268Y016640D02*
X011857Y016640D01*
X011857Y016699D02*
X010209Y016699D01*
X010151Y016757D02*
X011857Y016757D01*
X011857Y016816D02*
X010092Y016816D01*
X010034Y016874D02*
X011857Y016874D01*
X011857Y016933D02*
X009975Y016933D01*
X009917Y016991D02*
X011857Y016991D01*
X011857Y017050D02*
X009858Y017050D01*
X009800Y017109D02*
X011857Y017109D01*
X011857Y017167D02*
X009741Y017167D01*
X009683Y017226D02*
X011857Y017226D01*
X011857Y017284D02*
X009624Y017284D01*
X009565Y017343D02*
X011857Y017343D01*
X011857Y017401D02*
X009520Y017401D01*
X009507Y017460D02*
X011857Y017460D01*
X011857Y017518D02*
X009520Y017518D01*
X009520Y017577D02*
X011857Y017577D01*
X011857Y017635D02*
X009520Y017635D01*
X009509Y017694D02*
X011857Y017694D01*
X011857Y019041D02*
X002167Y019041D01*
X002034Y018997D02*
X002034Y018997D01*
X002347Y019099D02*
X011857Y019099D01*
X011857Y019158D02*
X002458Y019158D01*
X002402Y019117D02*
X002402Y019117D01*
X002538Y019216D02*
X011857Y019216D01*
X011857Y019275D02*
X002619Y019275D01*
X002700Y019333D02*
X011857Y019333D01*
X011857Y019392D02*
X002749Y019392D01*
X002715Y019344D02*
X002715Y019344D01*
X002715Y019344D01*
X002792Y019450D02*
X011857Y019450D01*
X011857Y019509D02*
X002834Y019509D01*
X002877Y019567D02*
X011857Y019567D01*
X011857Y019626D02*
X002919Y019626D01*
X002951Y019684D02*
X011857Y019684D01*
X011857Y019743D02*
X002970Y019743D01*
X002989Y019802D02*
X011857Y019802D01*
X011857Y019860D02*
X003008Y019860D01*
X003027Y019919D02*
X011857Y019919D01*
X011857Y019977D02*
X003046Y019977D01*
X003062Y020036D02*
X011857Y020036D01*
X011857Y020094D02*
X006495Y020094D01*
X006555Y020119D02*
X006684Y020248D01*
X006754Y020417D01*
X006754Y020600D01*
X006684Y020770D01*
X006555Y020899D01*
X006386Y020969D01*
X006203Y020969D01*
X006034Y020899D01*
X005904Y020770D01*
X005834Y020600D01*
X005834Y020417D01*
X005904Y020248D01*
X006034Y020119D01*
X006203Y020049D01*
X006386Y020049D01*
X006555Y020119D01*
X006589Y020153D02*
X011857Y020153D01*
X011857Y020211D02*
X006647Y020211D01*
X006693Y020270D02*
X011857Y020270D01*
X011857Y020328D02*
X006717Y020328D01*
X006741Y020387D02*
X011857Y020387D01*
X011857Y020446D02*
X006754Y020446D01*
X006754Y020504D02*
X011857Y020504D01*
X011857Y020563D02*
X006754Y020563D01*
X006746Y020621D02*
X011857Y020621D01*
X011857Y020680D02*
X006721Y020680D01*
X006697Y020738D02*
X011857Y020738D01*
X011857Y020797D02*
X006657Y020797D01*
X006598Y020855D02*
X011857Y020855D01*
X011857Y020914D02*
X006519Y020914D01*
X006070Y020914D02*
X005519Y020914D01*
X005555Y020899D02*
X005386Y020969D01*
X005203Y020969D01*
X005034Y020899D01*
X004904Y020770D01*
X004834Y020600D01*
X004834Y020417D01*
X004904Y020248D01*
X005034Y020119D01*
X005203Y020049D01*
X005386Y020049D01*
X005555Y020119D01*
X005684Y020248D01*
X005754Y020417D01*
X005754Y020600D01*
X005684Y020770D01*
X005555Y020899D01*
X005598Y020855D02*
X005990Y020855D01*
X005931Y020797D02*
X005657Y020797D01*
X005697Y020738D02*
X005891Y020738D01*
X005867Y020680D02*
X005721Y020680D01*
X005746Y020621D02*
X005843Y020621D01*
X005834Y020563D02*
X005754Y020563D01*
X005754Y020504D02*
X005834Y020504D01*
X005834Y020446D02*
X005754Y020446D01*
X005741Y020387D02*
X005847Y020387D01*
X005871Y020328D02*
X005717Y020328D01*
X005693Y020270D02*
X005895Y020270D01*
X005941Y020211D02*
X005647Y020211D01*
X005589Y020153D02*
X006000Y020153D01*
X006093Y020094D02*
X005495Y020094D01*
X005093Y020094D02*
X004495Y020094D01*
X004555Y020119D02*
X004386Y020049D01*
X004203Y020049D01*
X004034Y020119D01*
X003904Y020248D01*
X003834Y020417D01*
X003834Y020600D01*
X003904Y020770D01*
X004034Y020899D01*
X004203Y020969D01*
X004386Y020969D01*
X004555Y020899D01*
X004684Y020770D01*
X004754Y020600D01*
X004754Y020417D01*
X004684Y020248D01*
X004555Y020119D01*
X004589Y020153D02*
X005000Y020153D01*
X004941Y020211D02*
X004647Y020211D01*
X004693Y020270D02*
X004895Y020270D01*
X004871Y020328D02*
X004717Y020328D01*
X004741Y020387D02*
X004847Y020387D01*
X004834Y020446D02*
X004754Y020446D01*
X004754Y020504D02*
X004834Y020504D01*
X004834Y020563D02*
X004754Y020563D01*
X004746Y020621D02*
X004843Y020621D01*
X004867Y020680D02*
X004721Y020680D01*
X004697Y020738D02*
X004891Y020738D01*
X004931Y020797D02*
X004657Y020797D01*
X004598Y020855D02*
X004990Y020855D01*
X005070Y020914D02*
X004519Y020914D01*
X004070Y020914D02*
X003062Y020914D01*
X003062Y020972D02*
X011857Y020972D01*
X011857Y021031D02*
X003062Y021031D01*
X003062Y021090D02*
X011857Y021090D01*
X011857Y021148D02*
X003062Y021148D01*
X003062Y021207D02*
X011857Y021207D01*
X011857Y021265D02*
X003062Y021265D01*
X003062Y021324D02*
X011857Y021324D01*
X011857Y021382D02*
X003062Y021382D01*
X003062Y021441D02*
X011857Y021441D01*
X008800Y017694D02*
X006631Y017694D01*
X006641Y017635D02*
X008790Y017635D01*
X008737Y017577D02*
X006641Y017577D01*
X006641Y017518D02*
X008679Y017518D01*
X008620Y017460D02*
X006629Y017460D01*
X006641Y017401D02*
X008562Y017401D01*
X008503Y017343D02*
X006641Y017343D01*
X006641Y017284D02*
X008445Y017284D01*
X008386Y017226D02*
X006644Y017226D01*
X006677Y017167D02*
X008328Y017167D01*
X008269Y017109D02*
X006681Y017109D01*
X006681Y017050D02*
X008211Y017050D01*
X008152Y016991D02*
X006681Y016991D01*
X006670Y016933D02*
X008093Y016933D01*
X008035Y016874D02*
X006681Y016874D01*
X006681Y016816D02*
X007976Y016816D01*
X007918Y016757D02*
X006681Y016757D01*
X006674Y016699D02*
X007859Y016699D01*
X007839Y016678D02*
X007839Y016678D01*
X007801Y016640D02*
X006641Y016640D01*
X006641Y016582D02*
X007763Y016582D01*
X007763Y016523D02*
X006641Y016523D01*
X006641Y016465D02*
X007763Y016465D01*
X007763Y016406D02*
X006639Y016406D01*
X006641Y016348D02*
X007763Y016348D01*
X007763Y016289D02*
X006641Y016289D01*
X006641Y016230D02*
X007763Y016230D01*
X007763Y016172D02*
X006620Y016172D01*
X006641Y016113D02*
X007763Y016113D01*
X007763Y016055D02*
X006641Y016055D01*
X006641Y015996D02*
X007763Y015996D01*
X007763Y015938D02*
X006652Y015938D01*
X006679Y015879D02*
X007763Y015879D01*
X007763Y015821D02*
X006681Y015821D01*
X006681Y015762D02*
X007763Y015762D01*
X007763Y015704D02*
X006681Y015704D01*
X006659Y015645D02*
X007763Y015645D01*
X007736Y015586D02*
X006641Y015586D01*
X006641Y015528D02*
X007683Y015528D01*
X007683Y015469D02*
X006641Y015469D01*
X006627Y015411D02*
X007683Y015411D01*
X007689Y015352D02*
X006641Y015352D01*
X006641Y015294D02*
X007748Y015294D01*
X008037Y015294D02*
X008790Y015294D01*
X008790Y015352D02*
X008096Y015352D01*
X008103Y015411D02*
X008804Y015411D01*
X008790Y015469D02*
X008103Y015469D01*
X008103Y015528D02*
X008790Y015528D01*
X008790Y015586D02*
X008049Y015586D01*
X008023Y015645D02*
X008798Y015645D01*
X008790Y015704D02*
X008023Y015704D01*
X008023Y015762D02*
X008790Y015762D01*
X008790Y015821D02*
X008023Y015821D01*
X008023Y015879D02*
X008029Y015879D01*
X008308Y015879D02*
X008790Y015879D01*
X008755Y015938D02*
X008366Y015938D01*
X008378Y015996D02*
X008750Y015996D01*
X008750Y016055D02*
X008378Y016055D01*
X008429Y016113D02*
X008750Y016113D01*
X008765Y016172D02*
X008487Y016172D01*
X008546Y016230D02*
X008790Y016230D01*
X008790Y016289D02*
X008604Y016289D01*
X008663Y016348D02*
X008790Y016348D01*
X008792Y016406D02*
X008722Y016406D01*
X009159Y016047D02*
X009560Y016047D01*
X009560Y016128D01*
X009551Y016161D01*
X009534Y016191D01*
X009520Y016205D01*
X009520Y016404D01*
X009498Y016426D01*
X009520Y016448D01*
X009520Y016509D01*
X009574Y016455D01*
X009574Y014161D01*
X009492Y014080D01*
X007395Y014080D01*
X006684Y014791D01*
X006641Y014834D01*
X006663Y014884D02*
X008805Y014884D01*
X008790Y014942D02*
X006681Y014942D01*
X006681Y015001D02*
X008790Y015001D01*
X008790Y015060D02*
X006681Y015060D01*
X006677Y015118D02*
X008790Y015118D01*
X008790Y015177D02*
X006646Y015177D01*
X006641Y015235D02*
X008790Y015235D01*
X009498Y015147D02*
X009520Y015125D01*
X009520Y014913D01*
X009498Y014891D01*
X009520Y014869D01*
X009520Y014657D01*
X009498Y014635D01*
X009520Y014613D01*
X009520Y014401D01*
X009498Y014379D01*
X009520Y014357D01*
X009520Y014145D01*
X009467Y014093D01*
X008843Y014093D01*
X008790Y014145D01*
X008790Y014357D01*
X008790Y014299D02*
X007177Y014299D01*
X007235Y014240D02*
X008790Y014240D01*
X008790Y014181D02*
X007294Y014181D01*
X007352Y014123D02*
X008812Y014123D01*
X008387Y013713D02*
X011345Y013713D01*
X011345Y013655D02*
X008418Y013655D01*
X008418Y013596D02*
X011345Y013596D01*
X011345Y013537D02*
X008449Y013537D01*
X008508Y013479D02*
X011345Y013479D01*
X011345Y013420D02*
X008567Y013420D01*
X008625Y013362D02*
X011345Y013362D01*
X011345Y013303D02*
X008684Y013303D01*
X008742Y013245D02*
X011345Y013245D01*
X011345Y013186D02*
X008801Y013186D01*
X008859Y013128D02*
X011345Y013128D01*
X011345Y013069D02*
X008918Y013069D01*
X008976Y013011D02*
X011345Y013011D01*
X011345Y012952D02*
X009035Y012952D01*
X009093Y012893D02*
X011345Y012893D01*
X011345Y012835D02*
X009152Y012835D01*
X009211Y012776D02*
X011345Y012776D01*
X011345Y012718D02*
X009269Y012718D01*
X009328Y012659D02*
X011345Y012659D01*
X011345Y012601D02*
X009386Y012601D01*
X009445Y012542D02*
X011345Y012542D01*
X011345Y012484D02*
X009503Y012484D01*
X009562Y012425D02*
X011345Y012425D01*
X011345Y012367D02*
X009620Y012367D01*
X009679Y012308D02*
X011345Y012308D01*
X011345Y012249D02*
X009737Y012249D01*
X009796Y012191D02*
X011345Y012191D01*
X011345Y012132D02*
X009855Y012132D01*
X009912Y012074D02*
X011345Y012074D01*
X011345Y012015D02*
X009912Y012015D01*
X009912Y011957D02*
X011345Y011957D01*
X011345Y011898D02*
X009912Y011898D01*
X009912Y011840D02*
X011345Y011840D01*
X011345Y011781D02*
X009912Y011781D01*
X009912Y011723D02*
X011345Y011723D01*
X011345Y011664D02*
X009912Y011664D01*
X009912Y011606D02*
X011345Y011606D01*
X011345Y011547D02*
X009912Y011547D01*
X009912Y011488D02*
X011345Y011488D01*
X011345Y011430D02*
X009912Y011430D01*
X009912Y011371D02*
X011345Y011371D01*
X011345Y011313D02*
X009912Y011313D01*
X009912Y011254D02*
X011345Y011254D01*
X011345Y011196D02*
X009912Y011196D01*
X009912Y011137D02*
X011345Y011137D01*
X011345Y011079D02*
X009912Y011079D01*
X009912Y011020D02*
X010587Y011020D01*
X010559Y010962D02*
X009912Y010962D01*
X009912Y010903D02*
X010559Y010903D01*
X010559Y010844D02*
X009912Y010844D01*
X009912Y010786D02*
X010559Y010786D01*
X010559Y010727D02*
X009912Y010727D01*
X009912Y010669D02*
X010559Y010669D01*
X010559Y010610D02*
X009912Y010610D01*
X009912Y010552D02*
X010559Y010552D01*
X010559Y010493D02*
X009912Y010493D01*
X009912Y010435D02*
X010568Y010435D01*
X010715Y010376D02*
X009912Y010376D01*
X009912Y010318D02*
X010715Y010318D01*
X010715Y010259D02*
X009912Y010259D01*
X009912Y010200D02*
X010715Y010200D01*
X010715Y010142D02*
X009912Y010142D01*
X009912Y010083D02*
X010529Y010083D01*
X010505Y010025D02*
X009912Y010025D01*
X009912Y009966D02*
X010505Y009966D01*
X010505Y009908D02*
X010054Y009908D01*
X010069Y009849D02*
X010505Y009849D01*
X010505Y009791D02*
X010069Y009791D01*
X010069Y009732D02*
X010509Y009732D01*
X010329Y009439D02*
X010069Y009439D01*
X010069Y009381D02*
X010388Y009381D01*
X010447Y009322D02*
X010046Y009322D01*
X010505Y009264D02*
X009243Y009264D01*
X008314Y009556D02*
X007864Y009556D01*
X007826Y009615D02*
X008314Y009615D01*
X008730Y011547D02*
X008748Y011547D01*
X008748Y011606D02*
X008730Y011606D01*
X008730Y011664D02*
X008748Y011664D01*
X008748Y011723D02*
X008730Y011723D01*
X008730Y011781D02*
X008748Y011781D01*
X008748Y011840D02*
X008730Y011840D01*
X008730Y011898D02*
X008748Y011898D01*
X008748Y011957D02*
X008730Y011957D01*
X008730Y012015D02*
X008748Y012015D01*
X008864Y012074D02*
X007630Y012074D01*
X007630Y012132D02*
X008864Y012132D01*
X008838Y012191D02*
X007586Y012191D01*
X007667Y012249D02*
X007685Y012249D01*
X007685Y012308D02*
X007667Y012308D01*
X007667Y012367D02*
X007685Y012367D01*
X007685Y012425D02*
X007667Y012425D01*
X007522Y012718D02*
X007511Y012718D01*
X007511Y012776D02*
X008078Y012776D01*
X008078Y012835D02*
X007511Y012835D01*
X007511Y012893D02*
X008078Y012893D01*
X008077Y012952D02*
X007511Y012952D01*
X007511Y013011D02*
X008018Y013011D01*
X007960Y013069D02*
X007511Y013069D01*
X007511Y013128D02*
X007788Y013128D01*
X007729Y013186D02*
X007511Y013186D01*
X007511Y013245D02*
X007683Y013245D01*
X007683Y013303D02*
X007511Y013303D01*
X007562Y013362D02*
X007683Y013362D01*
X007696Y013420D02*
X007591Y013420D01*
X007591Y013479D02*
X007755Y013479D01*
X007591Y013537D02*
X007998Y013537D01*
X007998Y013596D02*
X007559Y013596D01*
X007501Y013655D02*
X007998Y013655D01*
X008028Y013713D02*
X006422Y013713D01*
X006364Y013655D02*
X007261Y013655D01*
X007202Y013596D02*
X006305Y013596D01*
X006247Y013537D02*
X007171Y013537D01*
X007171Y013479D02*
X006188Y013479D01*
X006130Y013420D02*
X007171Y013420D01*
X007199Y013362D02*
X006071Y013362D01*
X006012Y013303D02*
X007251Y013303D01*
X007251Y013245D02*
X005954Y013245D01*
X005895Y013186D02*
X007251Y013186D01*
X007251Y013128D02*
X005837Y013128D01*
X005778Y013069D02*
X007251Y013069D01*
X007251Y013011D02*
X005720Y013011D01*
X005661Y012952D02*
X007251Y012952D01*
X007251Y012893D02*
X005603Y012893D01*
X005544Y012835D02*
X007251Y012835D01*
X007251Y012776D02*
X005486Y012776D01*
X006481Y013772D02*
X008087Y013772D01*
X008328Y013772D02*
X011345Y013772D01*
X011345Y013830D02*
X009610Y013830D01*
X009669Y013889D02*
X011345Y013889D01*
X011345Y013947D02*
X009727Y013947D01*
X009786Y014006D02*
X011345Y014006D01*
X011345Y014064D02*
X009834Y014064D01*
X009834Y014123D02*
X011345Y014123D01*
X011345Y014181D02*
X009834Y014181D01*
X009834Y014240D02*
X011345Y014240D01*
X011345Y014299D02*
X009834Y014299D01*
X009834Y014357D02*
X011345Y014357D01*
X011345Y014416D02*
X009834Y014416D01*
X009834Y014474D02*
X011345Y014474D01*
X011345Y014533D02*
X009834Y014533D01*
X009834Y014591D02*
X011345Y014591D01*
X011345Y014650D02*
X009834Y014650D01*
X009834Y014708D02*
X011345Y014708D01*
X011345Y014767D02*
X009834Y014767D01*
X009834Y014825D02*
X011345Y014825D01*
X011345Y014884D02*
X009834Y014884D01*
X009834Y014942D02*
X011345Y014942D01*
X011345Y015001D02*
X009834Y015001D01*
X009834Y015060D02*
X011345Y015060D01*
X011345Y015118D02*
X009834Y015118D01*
X009834Y015177D02*
X011345Y015177D01*
X011305Y015235D02*
X009834Y015235D01*
X009834Y015294D02*
X011247Y015294D01*
X011188Y015352D02*
X009834Y015352D01*
X009834Y015411D02*
X011130Y015411D01*
X011071Y015469D02*
X009834Y015469D01*
X009834Y015528D02*
X011013Y015528D01*
X010954Y015586D02*
X009834Y015586D01*
X009834Y015645D02*
X010896Y015645D01*
X010837Y015704D02*
X009834Y015704D01*
X009834Y015762D02*
X010778Y015762D01*
X010720Y015821D02*
X009834Y015821D01*
X009834Y015879D02*
X010661Y015879D01*
X010603Y015938D02*
X009834Y015938D01*
X009834Y015996D02*
X010544Y015996D01*
X010486Y016055D02*
X009834Y016055D01*
X009834Y016113D02*
X010427Y016113D01*
X010369Y016172D02*
X009834Y016172D01*
X009834Y016230D02*
X010310Y016230D01*
X010252Y016289D02*
X009834Y016289D01*
X009834Y016348D02*
X010193Y016348D01*
X010134Y016406D02*
X009834Y016406D01*
X009834Y016465D02*
X010076Y016465D01*
X010017Y016523D02*
X009834Y016523D01*
X009815Y016582D02*
X009959Y016582D01*
X009900Y016640D02*
X009756Y016640D01*
X009698Y016699D02*
X009842Y016699D01*
X009783Y016757D02*
X009639Y016757D01*
X009581Y016816D02*
X009725Y016816D01*
X009666Y016874D02*
X009522Y016874D01*
X009503Y016933D02*
X009608Y016933D01*
X009549Y016991D02*
X009520Y016991D01*
X009520Y016465D02*
X009564Y016465D01*
X009574Y016406D02*
X009518Y016406D01*
X009520Y016348D02*
X009574Y016348D01*
X009574Y016289D02*
X009520Y016289D01*
X009520Y016230D02*
X009574Y016230D01*
X009574Y016172D02*
X009545Y016172D01*
X009560Y016113D02*
X009574Y016113D01*
X009574Y016055D02*
X009560Y016055D01*
X009560Y016038D02*
X009159Y016038D01*
X009159Y016047D01*
X009520Y015880D02*
X009520Y015681D01*
X009498Y015659D01*
X009520Y015636D01*
X009520Y015425D01*
X009498Y015403D01*
X009520Y015380D01*
X009520Y015169D01*
X009498Y015147D01*
X009520Y015118D02*
X009574Y015118D01*
X009574Y015060D02*
X009520Y015060D01*
X009520Y015001D02*
X009574Y015001D01*
X009574Y014942D02*
X009520Y014942D01*
X009504Y014884D02*
X009574Y014884D01*
X009574Y014825D02*
X009520Y014825D01*
X009520Y014767D02*
X009574Y014767D01*
X009574Y014708D02*
X009520Y014708D01*
X009512Y014650D02*
X009574Y014650D01*
X009574Y014591D02*
X009520Y014591D01*
X009520Y014533D02*
X009574Y014533D01*
X009574Y014474D02*
X009520Y014474D01*
X009520Y014416D02*
X009574Y014416D01*
X009574Y014357D02*
X009520Y014357D01*
X009520Y014299D02*
X009574Y014299D01*
X009574Y014240D02*
X009520Y014240D01*
X009520Y014181D02*
X009574Y014181D01*
X009535Y014123D02*
X009497Y014123D01*
X009520Y015177D02*
X009574Y015177D01*
X009574Y015235D02*
X009520Y015235D01*
X009520Y015294D02*
X009574Y015294D01*
X009574Y015352D02*
X009520Y015352D01*
X009506Y015411D02*
X009574Y015411D01*
X009574Y015469D02*
X009520Y015469D01*
X009520Y015528D02*
X009574Y015528D01*
X009574Y015586D02*
X009520Y015586D01*
X009511Y015645D02*
X009574Y015645D01*
X009574Y015704D02*
X009520Y015704D01*
X009520Y015762D02*
X009574Y015762D01*
X009574Y015821D02*
X009520Y015821D01*
X009520Y015879D02*
X009574Y015879D01*
X009534Y015894D02*
X009551Y015924D01*
X009560Y015957D01*
X009560Y016038D01*
X009560Y015996D02*
X009574Y015996D01*
X009574Y015938D02*
X009555Y015938D01*
X009534Y015894D02*
X009520Y015880D01*
X008257Y013362D02*
X008103Y013362D01*
X008103Y013303D02*
X008316Y013303D01*
X008375Y013245D02*
X008152Y013245D01*
X008210Y013186D02*
X008433Y013186D01*
X008492Y013128D02*
X008269Y013128D01*
X008327Y013069D02*
X008550Y013069D01*
X008609Y013011D02*
X008338Y013011D01*
X008338Y012952D02*
X008667Y012952D01*
X008726Y012893D02*
X008338Y012893D01*
X008338Y012835D02*
X008784Y012835D01*
X008843Y012776D02*
X008338Y012776D01*
X008948Y011957D02*
X008959Y011957D01*
X008948Y011898D02*
X009022Y011898D01*
X009022Y011840D02*
X008948Y011840D01*
X008948Y011781D02*
X009022Y011781D01*
X009022Y011723D02*
X008948Y011723D01*
X008948Y011664D02*
X009022Y011664D01*
X009022Y011606D02*
X008933Y011606D01*
X008871Y011547D02*
X009022Y011547D01*
X007531Y011606D02*
X007309Y011606D01*
X007333Y011664D02*
X007507Y011664D01*
X007507Y011723D02*
X007333Y011723D01*
X007333Y011781D02*
X007507Y011781D01*
X007507Y011840D02*
X007384Y011840D01*
X007277Y013830D02*
X006539Y013830D01*
X006598Y013889D02*
X007219Y013889D01*
X007160Y013947D02*
X006656Y013947D01*
X006715Y014006D02*
X007102Y014006D01*
X007043Y014064D02*
X006774Y014064D01*
X006802Y014123D02*
X006985Y014123D01*
X006926Y014181D02*
X006802Y014181D01*
X006802Y014240D02*
X006868Y014240D01*
X006809Y014299D02*
X006802Y014299D01*
X005907Y014825D02*
X005601Y014825D01*
X005601Y014767D02*
X005849Y014767D01*
X005790Y014708D02*
X005601Y014708D01*
X005601Y014650D02*
X005731Y014650D01*
X005673Y014591D02*
X005601Y014591D01*
X005601Y014533D02*
X005637Y014533D01*
X005637Y014474D02*
X005601Y014474D01*
X005601Y014416D02*
X005637Y014416D01*
X005637Y014357D02*
X005601Y014357D01*
X005637Y014299D02*
X005553Y014299D01*
X005153Y014299D02*
X004901Y014299D01*
X004930Y014357D02*
X005106Y014357D01*
X005106Y014416D02*
X004932Y014416D01*
X004932Y014474D02*
X005106Y014474D01*
X005106Y014533D02*
X004932Y014533D01*
X005503Y015001D02*
X005871Y015001D01*
X005871Y014942D02*
X005551Y014942D01*
X005601Y014884D02*
X005889Y014884D01*
X005871Y015060D02*
X005656Y015060D01*
X005660Y015118D02*
X005875Y015118D01*
X005911Y015469D02*
X005660Y015469D01*
X005660Y015528D02*
X005911Y015528D01*
X005911Y015586D02*
X005660Y015586D01*
X005660Y015645D02*
X005893Y015645D01*
X005871Y015704D02*
X005660Y015704D01*
X005660Y015762D02*
X005871Y015762D01*
X005871Y015821D02*
X004561Y015821D01*
X004259Y016406D02*
X003951Y016406D01*
X003951Y016465D02*
X004259Y016465D01*
X004276Y016523D02*
X003949Y016523D01*
X003932Y016699D02*
X004288Y016699D01*
X004259Y016757D02*
X003967Y016757D01*
X003967Y016816D02*
X004259Y016816D01*
X004259Y016874D02*
X003967Y016874D01*
X003967Y017167D02*
X004259Y017167D01*
X004259Y017226D02*
X003967Y017226D01*
X003963Y017284D02*
X004269Y017284D01*
X003507Y016699D02*
X003223Y016699D01*
X003258Y016757D02*
X003472Y016757D01*
X003472Y016816D02*
X003258Y016816D01*
X003258Y016874D02*
X003472Y016874D01*
X003472Y016933D02*
X003258Y016933D01*
X003258Y016991D02*
X003472Y016991D01*
X003472Y017050D02*
X003258Y017050D01*
X003258Y017109D02*
X003472Y017109D01*
X003472Y017167D02*
X003258Y017167D01*
X003258Y017226D02*
X003472Y017226D01*
X003475Y017284D02*
X003255Y017284D01*
X002767Y017284D02*
X001513Y017284D01*
X001455Y017226D02*
X002763Y017226D01*
X002763Y017167D02*
X001334Y017167D01*
X003240Y016523D02*
X003458Y016523D01*
X003456Y016465D02*
X003242Y016465D01*
X003242Y016406D02*
X003456Y016406D01*
X003456Y016348D02*
X003242Y016348D01*
X003242Y016289D02*
X003456Y016289D01*
X003456Y016230D02*
X003242Y016230D01*
X003242Y016172D02*
X003456Y016172D01*
X003456Y016113D02*
X003242Y016113D01*
X003242Y016055D02*
X003456Y016055D01*
X003456Y015996D02*
X003242Y015996D01*
X003206Y015938D02*
X003492Y015938D01*
X003180Y015879D02*
X005873Y015879D01*
X005900Y015938D02*
X005716Y015938D01*
X005738Y015996D02*
X005899Y015996D01*
X005840Y016055D02*
X005738Y016055D01*
X006272Y016815D02*
X006272Y017009D01*
X006272Y017062D01*
X006280Y017062D01*
X006280Y017009D01*
X006280Y016815D01*
X006272Y016815D01*
X006272Y016816D02*
X006280Y016816D01*
X006272Y016874D02*
X006280Y016874D01*
X006272Y016933D02*
X006280Y016933D01*
X006272Y016991D02*
X006280Y016991D01*
X006272Y017050D02*
X006280Y017050D01*
X003786Y015352D02*
X003180Y015352D01*
X003180Y015294D02*
X003786Y015294D01*
X003786Y015235D02*
X003180Y015235D01*
X003180Y015177D02*
X003786Y015177D01*
X003786Y015118D02*
X003202Y015118D01*
X000886Y013420D02*
X000503Y013420D01*
X000503Y013362D02*
X000840Y013362D01*
X000840Y013303D02*
X000503Y013303D01*
X000503Y013245D02*
X000840Y013245D01*
X000840Y013186D02*
X000503Y013186D01*
X000503Y013128D02*
X000840Y013128D01*
X000840Y013069D02*
X000503Y013069D01*
X000503Y013011D02*
X000840Y013011D01*
X000840Y012952D02*
X000503Y012952D01*
X000503Y012893D02*
X000840Y012893D01*
X000840Y012835D02*
X000503Y012835D01*
X000503Y012776D02*
X000840Y012776D01*
X000840Y012718D02*
X000503Y012718D01*
X000503Y012659D02*
X000840Y012659D01*
X000840Y012601D02*
X000503Y012601D01*
X004790Y010786D02*
X004845Y010786D01*
X004811Y010025D02*
X004824Y010025D01*
X011044Y010435D02*
X011277Y010435D01*
X011267Y010493D02*
X011053Y010493D01*
X011053Y010552D02*
X011267Y010552D01*
X011267Y010610D02*
X011053Y010610D01*
X011053Y010669D02*
X011267Y010669D01*
X011267Y010727D02*
X011053Y010727D01*
X011053Y010786D02*
X011267Y010786D01*
X011267Y010844D02*
X011053Y010844D01*
X011053Y010903D02*
X011267Y010903D01*
X011267Y010962D02*
X011053Y010962D01*
X011024Y011020D02*
X011296Y011020D01*
X004093Y020094D02*
X003062Y020094D01*
X003062Y020153D02*
X004000Y020153D01*
X003941Y020211D02*
X003062Y020211D01*
X003062Y020165D02*
X003062Y020165D01*
X003062Y020270D02*
X003895Y020270D01*
X003871Y020328D02*
X003062Y020328D01*
X003062Y020387D02*
X003847Y020387D01*
X003834Y020446D02*
X003062Y020446D01*
X003062Y020504D02*
X003834Y020504D01*
X003834Y020563D02*
X003062Y020563D01*
X003062Y020621D02*
X003843Y020621D01*
X003867Y020680D02*
X003062Y020680D01*
X003062Y020738D02*
X003891Y020738D01*
X003931Y020797D02*
X003062Y020797D01*
X003062Y020855D02*
X003990Y020855D01*
D26*
X008168Y016037D03*
X007893Y015446D03*
X008208Y013596D03*
X007893Y013320D03*
X007381Y013477D03*
X007420Y012060D03*
X009074Y012139D03*
X008444Y006824D03*
X002145Y008832D03*
X001869Y012218D03*
X003050Y014974D03*
M02*
