%
M48
M72
T01C0.0120
T02C0.0335
T03C0.0400
T04C0.0591
%
T01
X4449Y13386
X6506Y15533
X4800Y12400
X5252Y12100
X5472Y13543
X2600Y18900
X4900Y18900
X8100Y6500
X400Y17800
X300Y16000
X3800Y10900
T02
X3574Y18334
X4755Y18334
T03
X7248Y15165
X7248Y16165
X8248Y15165
X8248Y16165
X9248Y15165
X9248Y16165
T04
X827Y17441
X8220Y1575
M30
