G75*
G70*
%OFA0B0*%
%FSLAX24Y24*%
%IPPOS*%
%LPD*%
%AMOC8*
5,1,8,0,0,1.08239X$1,22.5*
%
%ADD10C,0.0000*%
%ADD11C,0.0050*%
%ADD12C,0.0030*%
%ADD13C,0.0010*%
%ADD14C,0.0220*%
%ADD15C,0.0080*%
%ADD16R,0.0180X0.0300*%
%ADD17C,0.0060*%
%ADD18C,0.0020*%
D10*
X001008Y001834D02*
X001008Y020830D01*
X002475Y020830D01*
X002538Y020832D01*
X002602Y020837D01*
X002665Y020847D01*
X002727Y020859D01*
X002788Y020876D01*
X002848Y020896D01*
X002908Y020919D01*
X002965Y020946D01*
X003021Y020976D01*
X003075Y021010D01*
X003127Y021046D01*
X003177Y021085D01*
X003224Y021128D01*
X003269Y021173D01*
X003312Y021220D01*
X003351Y021270D01*
X003387Y021322D01*
X003421Y021376D01*
X003451Y021432D01*
X003478Y021489D01*
X003501Y021549D01*
X003521Y021609D01*
X003538Y021670D01*
X003550Y021732D01*
X003560Y021795D01*
X003565Y021859D01*
X003567Y021922D01*
X003567Y023291D01*
X012622Y023291D01*
X012622Y004393D01*
X011189Y004393D01*
X011124Y004391D01*
X011058Y004385D01*
X010993Y004376D01*
X010929Y004363D01*
X010866Y004346D01*
X010804Y004325D01*
X010743Y004301D01*
X010684Y004273D01*
X010626Y004242D01*
X010570Y004208D01*
X010517Y004170D01*
X010465Y004130D01*
X010416Y004086D01*
X010370Y004040D01*
X010326Y003991D01*
X010286Y003939D01*
X010248Y003886D01*
X010214Y003830D01*
X010183Y003772D01*
X010155Y003713D01*
X010131Y003652D01*
X010110Y003590D01*
X010093Y003527D01*
X010080Y003463D01*
X010071Y003398D01*
X010065Y003332D01*
X010063Y003267D01*
X010063Y001834D01*
X001008Y001834D01*
X008933Y003409D02*
X008935Y003443D01*
X008941Y003477D01*
X008951Y003510D01*
X008964Y003541D01*
X008982Y003571D01*
X009002Y003599D01*
X009026Y003624D01*
X009052Y003646D01*
X009080Y003664D01*
X009111Y003680D01*
X009143Y003692D01*
X009177Y003700D01*
X009211Y003704D01*
X009245Y003704D01*
X009279Y003700D01*
X009313Y003692D01*
X009345Y003680D01*
X009375Y003664D01*
X009404Y003646D01*
X009430Y003624D01*
X009454Y003599D01*
X009474Y003571D01*
X009492Y003541D01*
X009505Y003510D01*
X009515Y003477D01*
X009521Y003443D01*
X009523Y003409D01*
X009521Y003375D01*
X009515Y003341D01*
X009505Y003308D01*
X009492Y003277D01*
X009474Y003247D01*
X009454Y003219D01*
X009430Y003194D01*
X009404Y003172D01*
X009376Y003154D01*
X009345Y003138D01*
X009313Y003126D01*
X009279Y003118D01*
X009245Y003114D01*
X009211Y003114D01*
X009177Y003118D01*
X009143Y003126D01*
X009111Y003138D01*
X009080Y003154D01*
X009052Y003172D01*
X009026Y003194D01*
X009002Y003219D01*
X008982Y003247D01*
X008964Y003277D01*
X008951Y003308D01*
X008941Y003341D01*
X008935Y003375D01*
X008933Y003409D01*
X010063Y001834D02*
X012622Y001834D01*
X012622Y004393D01*
X005596Y020168D02*
X005598Y020193D01*
X005604Y020218D01*
X005613Y020242D01*
X005626Y020264D01*
X005643Y020284D01*
X005662Y020301D01*
X005683Y020315D01*
X005707Y020325D01*
X005731Y020332D01*
X005757Y020335D01*
X005782Y020334D01*
X005807Y020329D01*
X005831Y020320D01*
X005854Y020308D01*
X005874Y020293D01*
X005892Y020274D01*
X005907Y020253D01*
X005918Y020230D01*
X005926Y020206D01*
X005930Y020181D01*
X005930Y020155D01*
X005926Y020130D01*
X005918Y020106D01*
X005907Y020083D01*
X005892Y020062D01*
X005874Y020043D01*
X005854Y020028D01*
X005831Y020016D01*
X005807Y020007D01*
X005782Y020002D01*
X005757Y020001D01*
X005731Y020004D01*
X005707Y020011D01*
X005683Y020021D01*
X005662Y020035D01*
X005643Y020052D01*
X005626Y020072D01*
X005613Y020094D01*
X005604Y020118D01*
X005598Y020143D01*
X005596Y020168D01*
X004415Y020168D02*
X004417Y020193D01*
X004423Y020218D01*
X004432Y020242D01*
X004445Y020264D01*
X004462Y020284D01*
X004481Y020301D01*
X004502Y020315D01*
X004526Y020325D01*
X004550Y020332D01*
X004576Y020335D01*
X004601Y020334D01*
X004626Y020329D01*
X004650Y020320D01*
X004673Y020308D01*
X004693Y020293D01*
X004711Y020274D01*
X004726Y020253D01*
X004737Y020230D01*
X004745Y020206D01*
X004749Y020181D01*
X004749Y020155D01*
X004745Y020130D01*
X004737Y020106D01*
X004726Y020083D01*
X004711Y020062D01*
X004693Y020043D01*
X004673Y020028D01*
X004650Y020016D01*
X004626Y020007D01*
X004601Y020002D01*
X004576Y020001D01*
X004550Y020004D01*
X004526Y020011D01*
X004502Y020021D01*
X004481Y020035D01*
X004462Y020052D01*
X004445Y020072D01*
X004432Y020094D01*
X004423Y020118D01*
X004417Y020143D01*
X004415Y020168D01*
X003567Y023291D02*
X001008Y023291D01*
X001008Y020830D01*
X001540Y019275D02*
X001542Y019309D01*
X001548Y019343D01*
X001558Y019376D01*
X001571Y019407D01*
X001589Y019437D01*
X001609Y019465D01*
X001633Y019490D01*
X001659Y019512D01*
X001687Y019530D01*
X001718Y019546D01*
X001750Y019558D01*
X001784Y019566D01*
X001818Y019570D01*
X001852Y019570D01*
X001886Y019566D01*
X001920Y019558D01*
X001952Y019546D01*
X001982Y019530D01*
X002011Y019512D01*
X002037Y019490D01*
X002061Y019465D01*
X002081Y019437D01*
X002099Y019407D01*
X002112Y019376D01*
X002122Y019343D01*
X002128Y019309D01*
X002130Y019275D01*
X002128Y019241D01*
X002122Y019207D01*
X002112Y019174D01*
X002099Y019143D01*
X002081Y019113D01*
X002061Y019085D01*
X002037Y019060D01*
X002011Y019038D01*
X001983Y019020D01*
X001952Y019004D01*
X001920Y018992D01*
X001886Y018984D01*
X001852Y018980D01*
X001818Y018980D01*
X001784Y018984D01*
X001750Y018992D01*
X001718Y019004D01*
X001687Y019020D01*
X001659Y019038D01*
X001633Y019060D01*
X001609Y019085D01*
X001589Y019113D01*
X001571Y019143D01*
X001558Y019174D01*
X001548Y019207D01*
X001542Y019241D01*
X001540Y019275D01*
D11*
X002459Y019246D02*
X002729Y019246D01*
X002684Y019131D02*
X002729Y019086D01*
X002729Y018996D01*
X002684Y018951D01*
X002504Y018951D01*
X002459Y018996D01*
X002459Y019086D01*
X002504Y019131D01*
X002594Y019246D02*
X002594Y019426D01*
X002729Y019426D02*
X002459Y019426D01*
X002504Y019541D02*
X002459Y019586D01*
X002459Y019676D01*
X002504Y019721D01*
X002594Y019721D01*
X002594Y019631D01*
X002684Y019721D02*
X002729Y019676D01*
X002729Y019586D01*
X002684Y019541D01*
X002504Y019541D01*
X003420Y015671D02*
X001215Y015671D01*
X001215Y012718D01*
X003420Y012718D01*
X003420Y015671D01*
X010110Y020295D02*
X010425Y020295D01*
X010425Y021122D02*
X010110Y021122D01*
X009237Y004485D02*
X009147Y004485D01*
X009102Y004440D01*
X009237Y004485D02*
X009282Y004440D01*
X009282Y004260D01*
X009237Y004215D01*
X009147Y004215D01*
X009102Y004260D01*
X009397Y004215D02*
X009397Y004395D01*
X009577Y004395D02*
X009577Y004260D01*
X009532Y004215D01*
X009397Y004215D01*
X009321Y002531D02*
X009141Y002531D01*
X009231Y002531D02*
X009231Y002261D01*
X009436Y002306D02*
X009481Y002261D01*
X009616Y002261D01*
X009616Y002531D01*
X009481Y002531D01*
X009436Y002486D01*
X009436Y002441D01*
X009481Y002396D01*
X009616Y002396D01*
X009481Y002396D02*
X009436Y002351D01*
X009436Y002306D01*
D12*
X007081Y017609D02*
X007081Y017789D01*
X007171Y017699D02*
X006991Y017699D01*
D13*
X007934Y019464D02*
X007934Y019614D01*
X007834Y019614D01*
X007884Y019539D02*
X007934Y019539D01*
X007982Y019564D02*
X007982Y019464D01*
X008057Y019464D01*
X008082Y019489D01*
X008082Y019564D01*
X008179Y019614D02*
X008179Y019464D01*
X008229Y019464D02*
X008129Y019464D01*
X008229Y019564D02*
X008179Y019614D01*
X008278Y019489D02*
X008278Y019464D01*
X008303Y019464D01*
X008303Y019489D01*
X008278Y019489D01*
X008350Y019489D02*
X008375Y019464D01*
X008425Y019464D01*
X008450Y019489D01*
X008350Y019589D01*
X008350Y019489D01*
X008450Y019489D02*
X008450Y019589D01*
X008425Y019614D01*
X008375Y019614D01*
X008350Y019589D01*
X008325Y020214D02*
X008300Y020239D01*
X008325Y020214D02*
X008375Y020214D01*
X008400Y020239D01*
X008400Y020339D01*
X008375Y020364D01*
X008325Y020364D01*
X008300Y020339D01*
X008253Y020364D02*
X008253Y020289D01*
X008203Y020314D01*
X008178Y020314D01*
X008153Y020289D01*
X008153Y020239D01*
X008178Y020214D01*
X008228Y020214D01*
X008253Y020239D01*
X008253Y020364D02*
X008153Y020364D01*
X008211Y020987D02*
X008186Y021012D01*
X008211Y020987D02*
X008261Y020987D01*
X008286Y021012D01*
X008286Y021112D01*
X008261Y021137D01*
X008211Y021137D01*
X008186Y021112D01*
X008139Y021062D02*
X008039Y021062D01*
X008064Y021137D02*
X008139Y021062D01*
X008064Y020987D02*
X008064Y021137D01*
X007852Y021106D02*
X007802Y021156D01*
X007802Y021006D01*
X007852Y021006D02*
X007752Y021006D01*
X007705Y021031D02*
X007680Y021006D01*
X007630Y021006D01*
X007605Y021031D01*
X007605Y021131D01*
X007705Y021031D01*
X007705Y021131D01*
X007680Y021156D01*
X007630Y021156D01*
X007605Y021131D01*
X007557Y021106D02*
X007557Y021031D01*
X007532Y021006D01*
X007457Y021006D01*
X007457Y021106D01*
X007410Y021081D02*
X007360Y021081D01*
X007410Y021006D02*
X007410Y021156D01*
X007310Y021156D01*
X009095Y021220D02*
X009120Y021195D01*
X009170Y021195D01*
X009195Y021220D01*
X009095Y021320D01*
X009095Y021220D01*
X009195Y021220D02*
X009195Y021320D01*
X009170Y021345D01*
X009120Y021345D01*
X009095Y021320D01*
X009242Y021320D02*
X009342Y021220D01*
X009342Y021195D01*
X009414Y021195D02*
X009414Y021345D01*
X009489Y021270D01*
X009389Y021270D01*
X009342Y021345D02*
X009242Y021345D01*
X009242Y021320D01*
X009625Y021322D02*
X009625Y021297D01*
X009650Y021272D01*
X009625Y021247D01*
X009625Y021222D01*
X009650Y021197D01*
X009700Y021197D01*
X009725Y021222D01*
X009772Y021197D02*
X009823Y021247D01*
X009798Y021247D02*
X009873Y021247D01*
X009873Y021197D02*
X009873Y021347D01*
X009798Y021347D01*
X009772Y021322D01*
X009772Y021272D01*
X009798Y021247D01*
X009725Y021322D02*
X009700Y021347D01*
X009650Y021347D01*
X009625Y021322D01*
X009650Y021272D02*
X009675Y021272D01*
X009713Y022776D02*
X009763Y022776D01*
X009788Y022801D01*
X009788Y022851D02*
X009738Y022876D01*
X009713Y022876D01*
X009688Y022851D01*
X009688Y022801D01*
X009713Y022776D01*
X009788Y022851D02*
X009788Y022926D01*
X009688Y022926D01*
X009835Y022901D02*
X009835Y022851D01*
X009861Y022826D01*
X009936Y022826D01*
X009936Y022776D02*
X009936Y022926D01*
X009861Y022926D01*
X009835Y022901D01*
X009886Y022826D02*
X009835Y022776D01*
X009552Y022849D02*
X009452Y022849D01*
X009405Y022799D02*
X009405Y022774D01*
X009405Y022799D02*
X009305Y022899D01*
X009305Y022924D01*
X009405Y022924D01*
X009477Y022924D02*
X009552Y022849D01*
X009477Y022774D02*
X009477Y022924D01*
X009258Y022899D02*
X009233Y022924D01*
X009183Y022924D01*
X009158Y022899D01*
X009258Y022799D01*
X009233Y022774D01*
X009183Y022774D01*
X009158Y022799D01*
X009158Y022899D01*
X009258Y022899D02*
X009258Y022799D01*
X010748Y020797D02*
X010733Y020782D01*
X010733Y020737D01*
X010793Y020737D02*
X010793Y020797D01*
X010748Y020797D01*
X010825Y020782D02*
X010825Y020737D01*
X010870Y020737D01*
X010885Y020752D01*
X010870Y020767D01*
X010825Y020767D01*
X010825Y020782D02*
X010840Y020797D01*
X010870Y020797D01*
X010286Y018147D02*
X010236Y018147D01*
X010261Y018147D02*
X010261Y017997D01*
X010286Y017997D02*
X010236Y017997D01*
X010188Y018022D02*
X010163Y017997D01*
X010113Y017997D01*
X010088Y018022D01*
X010041Y017997D02*
X009941Y017997D01*
X009991Y017997D02*
X009991Y018147D01*
X010041Y018097D01*
X010088Y018122D02*
X010113Y018147D01*
X010163Y018147D01*
X010188Y018122D01*
X010188Y018022D01*
X011005Y017813D02*
X011155Y017813D01*
X011155Y017888D01*
X011130Y017913D01*
X011080Y017913D01*
X011055Y017888D01*
X011055Y017813D01*
X011030Y017765D02*
X011130Y017765D01*
X011155Y017740D01*
X011155Y017690D01*
X011130Y017665D01*
X011030Y017665D01*
X011005Y017690D01*
X011005Y017740D01*
X011030Y017765D01*
X011030Y017618D02*
X011005Y017593D01*
X011005Y017543D01*
X011030Y017518D01*
X011030Y017471D02*
X011005Y017446D01*
X011005Y017396D01*
X011030Y017371D01*
X011005Y017323D02*
X011005Y017223D01*
X011155Y017223D01*
X011130Y017176D02*
X011080Y017176D01*
X011055Y017151D01*
X011055Y017076D01*
X011055Y017126D02*
X011005Y017176D01*
X011005Y017076D02*
X011155Y017076D01*
X011155Y017151D01*
X011130Y017176D01*
X011130Y017029D02*
X011155Y017004D01*
X011155Y016954D01*
X011130Y016929D01*
X011130Y016881D02*
X011105Y016881D01*
X011080Y016856D01*
X011055Y016881D01*
X011030Y016881D01*
X011005Y016856D01*
X011005Y016806D01*
X011030Y016781D01*
X011005Y016734D02*
X011005Y016634D01*
X011105Y016734D01*
X011130Y016734D01*
X011155Y016709D01*
X011155Y016659D01*
X011130Y016634D01*
X011155Y016587D02*
X011155Y016487D01*
X011155Y016439D02*
X011155Y016339D01*
X011005Y016339D01*
X011080Y016339D02*
X011080Y016389D01*
X011005Y016537D02*
X011155Y016537D01*
X011130Y016781D02*
X011155Y016806D01*
X011155Y016856D01*
X011130Y016881D01*
X011080Y016856D02*
X011080Y016831D01*
X011005Y016929D02*
X011105Y017029D01*
X011130Y017029D01*
X011005Y017029D02*
X011005Y016929D01*
X011105Y017371D02*
X011080Y017396D01*
X011080Y017446D01*
X011055Y017471D01*
X011030Y017471D01*
X011080Y017543D02*
X011080Y017593D01*
X011055Y017618D01*
X011030Y017618D01*
X011080Y017543D02*
X011105Y017518D01*
X011130Y017518D01*
X011155Y017543D01*
X011155Y017593D01*
X011130Y017618D01*
X011130Y017471D02*
X011155Y017446D01*
X011155Y017396D01*
X011130Y017371D01*
X011105Y017371D01*
X004967Y020623D02*
X004967Y020723D01*
X004917Y020773D01*
X004867Y020723D01*
X004867Y020623D01*
X004867Y020698D02*
X004967Y020698D01*
X004820Y020748D02*
X004770Y020698D01*
X004770Y020623D01*
X004770Y020698D02*
X004720Y020748D01*
X004720Y020773D01*
X004673Y020773D02*
X004573Y020773D01*
X004573Y020748D01*
X004673Y020648D01*
X004673Y020623D01*
X004573Y020623D01*
X004525Y020648D02*
X004425Y020748D01*
X004425Y020648D01*
X004450Y020623D01*
X004500Y020623D01*
X004525Y020648D01*
X004525Y020748D01*
X004500Y020773D01*
X004450Y020773D01*
X004425Y020748D01*
X004378Y020748D02*
X004353Y020773D01*
X004303Y020773D01*
X004278Y020748D01*
X004278Y020723D01*
X004378Y020623D01*
X004278Y020623D01*
X004231Y020648D02*
X004131Y020748D01*
X004131Y020648D01*
X004156Y020623D01*
X004206Y020623D01*
X004231Y020648D01*
X004231Y020748D01*
X004206Y020773D01*
X004156Y020773D01*
X004131Y020748D01*
X004084Y020748D02*
X004059Y020773D01*
X004008Y020773D01*
X003983Y020748D01*
X003983Y020723D01*
X004084Y020623D01*
X003983Y020623D01*
X004820Y020748D02*
X004820Y020773D01*
X003663Y018838D02*
X003688Y018813D01*
X003688Y018763D01*
X003663Y018738D01*
X003563Y018738D01*
X003663Y018838D01*
X003563Y018838D01*
X003538Y018813D01*
X003538Y018763D01*
X003563Y018738D01*
X003538Y018690D02*
X003538Y018590D01*
X003538Y018640D02*
X003688Y018640D01*
X003638Y018590D01*
X003663Y018543D02*
X003688Y018518D01*
X003688Y018468D01*
X003663Y018443D01*
X003563Y018443D01*
X003538Y018468D01*
X003538Y018518D01*
X003563Y018543D01*
X003508Y017843D02*
X003508Y017693D01*
X003558Y017693D02*
X003458Y017693D01*
X003411Y017693D02*
X003386Y017693D01*
X003386Y017718D01*
X003411Y017718D01*
X003411Y017693D01*
X003337Y017718D02*
X003237Y017818D01*
X003237Y017718D01*
X003262Y017693D01*
X003312Y017693D01*
X003337Y017718D01*
X003337Y017818D01*
X003312Y017843D01*
X003262Y017843D01*
X003237Y017818D01*
X003190Y017793D02*
X003190Y017718D01*
X003165Y017693D01*
X003090Y017693D01*
X003090Y017793D01*
X003042Y017768D02*
X002992Y017768D01*
X003042Y017693D02*
X003042Y017843D01*
X002942Y017843D01*
X002888Y018393D02*
X002938Y018443D01*
X002788Y018443D01*
X002788Y018393D02*
X002788Y018493D01*
X002788Y018540D02*
X002788Y018565D01*
X002813Y018565D01*
X002813Y018540D01*
X002788Y018540D01*
X002813Y018614D02*
X002913Y018714D01*
X002813Y018714D01*
X002788Y018689D01*
X002788Y018639D01*
X002813Y018614D01*
X002913Y018614D01*
X002938Y018639D01*
X002938Y018689D01*
X002913Y018714D01*
X002888Y018761D02*
X002813Y018761D01*
X002788Y018786D01*
X002788Y018861D01*
X002888Y018861D01*
X002863Y018909D02*
X002863Y018959D01*
X002938Y018909D02*
X002938Y019009D01*
X002938Y018909D02*
X002788Y018909D01*
X002276Y018011D02*
X002225Y017961D01*
X002175Y018011D01*
X002175Y017861D01*
X002128Y017861D02*
X002128Y017961D01*
X002078Y018011D01*
X002028Y017961D01*
X002028Y017861D01*
X001981Y017861D02*
X001881Y018011D01*
X001834Y017961D02*
X001784Y018011D01*
X001784Y017861D01*
X001834Y017861D02*
X001733Y017861D01*
X001686Y017886D02*
X001661Y017861D01*
X001611Y017861D01*
X001586Y017886D01*
X001586Y017936D01*
X001611Y017961D01*
X001636Y017961D01*
X001686Y017936D01*
X001686Y018011D01*
X001586Y018011D01*
X001539Y018011D02*
X001539Y017936D01*
X001489Y017961D01*
X001464Y017961D01*
X001439Y017936D01*
X001439Y017886D01*
X001464Y017861D01*
X001514Y017861D01*
X001539Y017886D01*
X001539Y018011D02*
X001439Y018011D01*
X001392Y018011D02*
X001392Y017936D01*
X001342Y017961D01*
X001317Y017961D01*
X001291Y017936D01*
X001291Y017886D01*
X001317Y017861D01*
X001367Y017861D01*
X001392Y017886D01*
X001392Y018011D02*
X001291Y018011D01*
X001881Y017861D02*
X001981Y018011D01*
X002028Y017936D02*
X002128Y017936D01*
X002276Y017861D02*
X002276Y018011D01*
X003017Y017093D02*
X003067Y017093D01*
X003092Y017068D01*
X003092Y017043D01*
X003067Y017018D01*
X002992Y017018D01*
X002992Y016968D02*
X002992Y017068D01*
X003017Y017093D01*
X003140Y017068D02*
X003165Y017093D01*
X003215Y017093D01*
X003240Y017068D01*
X003240Y016968D01*
X003215Y016943D01*
X003165Y016943D01*
X003140Y016968D01*
X003092Y016968D02*
X003067Y016943D01*
X003017Y016943D01*
X002992Y016968D01*
X003558Y017793D02*
X003508Y017843D01*
X002282Y020553D02*
X002282Y020703D01*
X002207Y020703D01*
X002182Y020678D01*
X002182Y020628D01*
X002207Y020603D01*
X002282Y020603D01*
X002232Y020603D02*
X002182Y020553D01*
X002135Y020578D02*
X002110Y020553D01*
X002060Y020553D01*
X002035Y020578D01*
X002035Y020678D01*
X002060Y020703D01*
X002110Y020703D01*
X002135Y020678D01*
X002135Y020653D01*
X002110Y020628D01*
X002035Y020628D01*
X001899Y020651D02*
X001849Y020701D01*
X001849Y020551D01*
X001899Y020551D02*
X001799Y020551D01*
X001752Y020551D02*
X001727Y020551D01*
X001727Y020576D01*
X001752Y020576D01*
X001752Y020551D01*
X001678Y020576D02*
X001653Y020551D01*
X001603Y020551D01*
X001578Y020576D01*
X001578Y020626D01*
X001603Y020651D01*
X001628Y020651D01*
X001678Y020626D01*
X001678Y020701D01*
X001578Y020701D01*
X001531Y020701D02*
X001531Y020551D01*
X001531Y020601D02*
X001456Y020651D01*
X001531Y020601D02*
X001456Y020551D01*
X001497Y014795D02*
X001472Y014770D01*
X001472Y014695D01*
X001622Y014695D01*
X001622Y014770D01*
X001597Y014795D01*
X001572Y014795D01*
X001547Y014770D01*
X001547Y014695D01*
X001597Y014648D02*
X001622Y014622D01*
X001622Y014572D01*
X001597Y014547D01*
X001497Y014547D01*
X001472Y014572D01*
X001472Y014622D01*
X001497Y014648D01*
X001597Y014648D01*
X001547Y014770D02*
X001522Y014795D01*
X001497Y014795D01*
X001472Y014500D02*
X001522Y014450D01*
X001522Y014475D02*
X001522Y014400D01*
X001472Y014400D02*
X001622Y014400D01*
X001622Y014475D01*
X001597Y014500D01*
X001547Y014500D01*
X001522Y014475D01*
X001497Y014353D02*
X001472Y014328D01*
X001472Y014278D01*
X001497Y014253D01*
X001597Y014253D01*
X001622Y014278D01*
X001622Y014328D01*
X001597Y014353D01*
X001622Y014205D02*
X001622Y014155D01*
X001622Y014180D02*
X001472Y014180D01*
X001472Y014155D02*
X001472Y014205D01*
X001472Y014107D02*
X001622Y014107D01*
X001572Y014057D01*
X001622Y014007D01*
X001472Y014007D01*
X001497Y013960D02*
X001472Y013935D01*
X001472Y013860D01*
X001622Y013860D01*
X001622Y013935D01*
X001597Y013960D01*
X001572Y013960D01*
X001547Y013935D01*
X001547Y013860D01*
X001522Y013813D02*
X001497Y013813D01*
X001472Y013788D01*
X001472Y013738D01*
X001497Y013713D01*
X001497Y013665D02*
X001622Y013665D01*
X001597Y013713D02*
X001572Y013713D01*
X001547Y013738D01*
X001547Y013788D01*
X001522Y013813D01*
X001597Y013813D02*
X001622Y013788D01*
X001622Y013738D01*
X001597Y013713D01*
X001497Y013665D02*
X001472Y013640D01*
X001472Y013590D01*
X001497Y013565D01*
X001622Y013565D01*
X001547Y013935D02*
X001522Y013960D01*
X001497Y013960D01*
X001992Y010495D02*
X001992Y010395D01*
X001842Y010395D01*
X001842Y010348D02*
X001942Y010348D01*
X001917Y010395D02*
X001917Y010445D01*
X001842Y010348D02*
X001842Y010273D01*
X001867Y010248D01*
X001942Y010248D01*
X001992Y010151D02*
X001842Y010151D01*
X001842Y010101D02*
X001842Y010201D01*
X001754Y010223D02*
X001729Y010198D01*
X001629Y010198D01*
X001604Y010223D01*
X001604Y010273D01*
X001629Y010298D01*
X001604Y010345D02*
X001604Y010445D01*
X001604Y010395D02*
X001754Y010395D01*
X001704Y010345D01*
X001729Y010298D02*
X001754Y010273D01*
X001754Y010223D01*
X001842Y010052D02*
X001842Y010027D01*
X001867Y010027D01*
X001867Y010052D01*
X001842Y010052D01*
X001867Y009980D02*
X001842Y009955D01*
X001842Y009905D01*
X001867Y009880D01*
X001967Y009980D01*
X001867Y009980D01*
X001967Y009980D02*
X001992Y009955D01*
X001992Y009905D01*
X001967Y009880D01*
X001867Y009880D01*
X001942Y010101D02*
X001992Y010151D01*
D14*
X002323Y010177D02*
X002347Y010177D01*
X003300Y017386D02*
X003300Y017410D01*
X003245Y018788D02*
X003221Y018788D01*
X008055Y019897D02*
X008055Y019921D01*
D15*
X008249Y021292D02*
X008682Y021292D01*
X008839Y021449D01*
X008839Y022079D01*
X008682Y022237D01*
X008249Y022237D01*
X007461Y022237D02*
X006871Y022237D01*
X006871Y021292D01*
X007461Y021292D01*
X006590Y020857D02*
X003755Y020857D01*
X003755Y019479D01*
X006590Y019479D01*
X006590Y020857D01*
X002466Y018100D02*
X002466Y017762D01*
X002011Y018250D02*
X001800Y018250D01*
X001346Y018100D02*
X001346Y017762D01*
X003366Y012098D02*
X003366Y011704D01*
X003366Y012098D02*
X003760Y012098D01*
X003366Y005051D02*
X003366Y004382D01*
X003366Y002334D02*
X003366Y001941D01*
X003760Y001941D01*
X008169Y001941D02*
X008563Y001941D01*
X008563Y002334D01*
X008563Y004382D02*
X008563Y005051D01*
X008563Y011704D02*
X008563Y012098D01*
X008169Y012098D01*
D16*
X009567Y021640D03*
X009591Y022471D03*
X001937Y020248D03*
D17*
X006744Y018643D02*
X006744Y016340D01*
X010839Y016340D01*
X010839Y018643D01*
X006744Y018643D01*
X010274Y016724D02*
X010276Y016750D01*
X010282Y016776D01*
X010291Y016801D01*
X010304Y016824D01*
X010320Y016845D01*
X010339Y016863D01*
X010361Y016879D01*
X010384Y016891D01*
X010409Y016899D01*
X010435Y016904D01*
X010462Y016905D01*
X010488Y016902D01*
X010513Y016895D01*
X010538Y016885D01*
X010560Y016871D01*
X010581Y016854D01*
X010598Y016835D01*
X010613Y016813D01*
X010624Y016789D01*
X010632Y016763D01*
X010636Y016737D01*
X010636Y016711D01*
X010632Y016685D01*
X010624Y016659D01*
X010613Y016635D01*
X010598Y016613D01*
X010581Y016594D01*
X010560Y016577D01*
X010538Y016563D01*
X010513Y016553D01*
X010488Y016546D01*
X010462Y016543D01*
X010435Y016544D01*
X010409Y016549D01*
X010384Y016557D01*
X010361Y016569D01*
X010339Y016585D01*
X010320Y016603D01*
X010304Y016624D01*
X010291Y016647D01*
X010282Y016672D01*
X010276Y016698D01*
X010274Y016724D01*
D18*
X010775Y016404D02*
X010775Y018580D01*
X006808Y018580D01*
X006808Y016404D01*
X010775Y016404D01*
M02*
