G75*
G70*
%OFA0B0*%
%FSLAX24Y24*%
%IPPOS*%
%LPD*%
%AMOC8*
5,1,8,0,0,1.08239X$1,22.5*
%
%ADD10C,0.0000*%
%ADD11R,0.0540X0.0260*%
%ADD12R,0.0260X0.0540*%
%ADD13R,0.0709X0.0316*%
%ADD14R,0.0355X0.0512*%
%ADD15R,0.0257X0.0512*%
%ADD16R,0.0434X0.0749*%
%ADD17OC8,0.0780*%
%ADD18R,0.0512X0.0355*%
%ADD19C,0.0207*%
%ADD20R,0.0473X0.0631*%
%ADD21C,0.0631*%
%ADD22C,0.0780*%
%ADD23R,0.0316X0.0827*%
%ADD24R,0.0473X0.0788*%
D10*
X000373Y000131D02*
X000373Y019127D01*
X001840Y019127D01*
X001903Y019129D01*
X001967Y019134D01*
X002030Y019144D01*
X002092Y019156D01*
X002153Y019173D01*
X002213Y019193D01*
X002273Y019216D01*
X002330Y019243D01*
X002386Y019273D01*
X002440Y019307D01*
X002492Y019343D01*
X002542Y019382D01*
X002589Y019425D01*
X002634Y019470D01*
X002677Y019517D01*
X002716Y019567D01*
X002752Y019619D01*
X002786Y019673D01*
X002816Y019729D01*
X002843Y019786D01*
X002866Y019846D01*
X002886Y019906D01*
X002903Y019967D01*
X002915Y020029D01*
X002925Y020092D01*
X002930Y020156D01*
X002932Y020219D01*
X002932Y021588D01*
X011987Y021588D01*
X011987Y002690D01*
X010554Y002690D01*
X010489Y002688D01*
X010423Y002682D01*
X010358Y002673D01*
X010294Y002660D01*
X010231Y002643D01*
X010169Y002622D01*
X010108Y002598D01*
X010049Y002570D01*
X009991Y002539D01*
X009935Y002505D01*
X009882Y002467D01*
X009830Y002427D01*
X009781Y002383D01*
X009735Y002337D01*
X009691Y002288D01*
X009651Y002236D01*
X009613Y002183D01*
X009579Y002127D01*
X009548Y002069D01*
X009520Y002010D01*
X009496Y001949D01*
X009475Y001887D01*
X009458Y001824D01*
X009445Y001760D01*
X009436Y001695D01*
X009430Y001629D01*
X009428Y001564D01*
X009428Y000131D01*
X000373Y000131D01*
X008298Y001706D02*
X008300Y001740D01*
X008306Y001774D01*
X008316Y001807D01*
X008329Y001838D01*
X008347Y001868D01*
X008367Y001896D01*
X008391Y001921D01*
X008417Y001943D01*
X008445Y001961D01*
X008476Y001977D01*
X008508Y001989D01*
X008542Y001997D01*
X008576Y002001D01*
X008610Y002001D01*
X008644Y001997D01*
X008678Y001989D01*
X008710Y001977D01*
X008740Y001961D01*
X008769Y001943D01*
X008795Y001921D01*
X008819Y001896D01*
X008839Y001868D01*
X008857Y001838D01*
X008870Y001807D01*
X008880Y001774D01*
X008886Y001740D01*
X008888Y001706D01*
X008886Y001672D01*
X008880Y001638D01*
X008870Y001605D01*
X008857Y001574D01*
X008839Y001544D01*
X008819Y001516D01*
X008795Y001491D01*
X008769Y001469D01*
X008741Y001451D01*
X008710Y001435D01*
X008678Y001423D01*
X008644Y001415D01*
X008610Y001411D01*
X008576Y001411D01*
X008542Y001415D01*
X008508Y001423D01*
X008476Y001435D01*
X008445Y001451D01*
X008417Y001469D01*
X008391Y001491D01*
X008367Y001516D01*
X008347Y001544D01*
X008329Y001574D01*
X008316Y001605D01*
X008306Y001638D01*
X008300Y001672D01*
X008298Y001706D01*
X009428Y000131D02*
X011987Y000131D01*
X011987Y002690D01*
X000905Y017572D02*
X000907Y017606D01*
X000913Y017640D01*
X000923Y017673D01*
X000936Y017704D01*
X000954Y017734D01*
X000974Y017762D01*
X000998Y017787D01*
X001024Y017809D01*
X001052Y017827D01*
X001083Y017843D01*
X001115Y017855D01*
X001149Y017863D01*
X001183Y017867D01*
X001217Y017867D01*
X001251Y017863D01*
X001285Y017855D01*
X001317Y017843D01*
X001347Y017827D01*
X001376Y017809D01*
X001402Y017787D01*
X001426Y017762D01*
X001446Y017734D01*
X001464Y017704D01*
X001477Y017673D01*
X001487Y017640D01*
X001493Y017606D01*
X001495Y017572D01*
X001493Y017538D01*
X001487Y017504D01*
X001477Y017471D01*
X001464Y017440D01*
X001446Y017410D01*
X001426Y017382D01*
X001402Y017357D01*
X001376Y017335D01*
X001348Y017317D01*
X001317Y017301D01*
X001285Y017289D01*
X001251Y017281D01*
X001217Y017277D01*
X001183Y017277D01*
X001149Y017281D01*
X001115Y017289D01*
X001083Y017301D01*
X001052Y017317D01*
X001024Y017335D01*
X000998Y017357D01*
X000974Y017382D01*
X000954Y017410D01*
X000936Y017440D01*
X000923Y017471D01*
X000913Y017504D01*
X000907Y017538D01*
X000905Y017572D01*
X000373Y019127D02*
X000373Y021588D01*
X002932Y021588D01*
D11*
X006688Y013901D03*
X006688Y013586D03*
X006688Y013271D03*
X006688Y012956D03*
X006688Y012641D03*
X006688Y012326D03*
X006688Y012011D03*
X006688Y011696D03*
X010068Y011696D03*
X010068Y012011D03*
X010068Y012326D03*
X010068Y012641D03*
X010068Y012956D03*
X010068Y013271D03*
X010068Y013586D03*
X010068Y013901D03*
D12*
X009480Y014489D03*
X009165Y014489D03*
X008850Y014489D03*
X008536Y014489D03*
X008221Y014489D03*
X007906Y014489D03*
X007591Y014489D03*
X007276Y014489D03*
X007276Y011109D03*
X007591Y011109D03*
X007906Y011109D03*
X008221Y011109D03*
X008536Y011109D03*
X008850Y011109D03*
X009165Y011109D03*
X009480Y011109D03*
D13*
X005786Y011264D03*
X005786Y010792D03*
X005786Y010320D03*
D14*
X007578Y010096D03*
X008286Y010096D03*
X010767Y011942D03*
X010767Y012670D03*
X011475Y012670D03*
X011475Y011942D03*
X008877Y016470D03*
X009211Y017257D03*
X008503Y017257D03*
X008168Y016470D03*
X005452Y017218D03*
X004743Y017218D03*
X003759Y017218D03*
X003050Y017218D03*
X002975Y018438D03*
X002267Y018438D03*
X003050Y014560D03*
X003759Y014560D03*
X004743Y014560D03*
X005452Y014560D03*
D15*
X005471Y015367D03*
X004723Y015367D03*
X004723Y016391D03*
X005097Y016391D03*
X005471Y016391D03*
X003778Y016391D03*
X003030Y016391D03*
X003030Y015367D03*
X003404Y015367D03*
X003778Y015367D03*
D16*
X002233Y014580D03*
X001131Y014580D03*
D17*
X009393Y008694D03*
X009393Y007694D03*
X009393Y006694D03*
X010393Y006694D03*
X010393Y007694D03*
X010393Y008694D03*
D18*
X009082Y004229D03*
X009082Y003521D03*
X008219Y003509D03*
X008219Y004218D03*
D19*
X009512Y018207D02*
X009512Y018827D01*
X010132Y018827D01*
X010132Y018207D01*
X009512Y018207D01*
X009512Y018413D02*
X010132Y018413D01*
X010132Y018619D02*
X009512Y018619D01*
X009512Y018825D02*
X010132Y018825D01*
X004620Y018827D02*
X004620Y018207D01*
X004000Y018207D01*
X004000Y018827D01*
X004620Y018827D01*
X004620Y018413D02*
X004000Y018413D01*
X004000Y018619D02*
X004620Y018619D01*
X004620Y018825D02*
X004000Y018825D01*
D20*
X001495Y018458D03*
X000904Y018458D03*
X000904Y016686D03*
X001495Y016686D03*
X008298Y002592D03*
X008889Y002592D03*
X008889Y000820D03*
X008298Y000820D03*
D21*
X008593Y001706D03*
X001200Y017572D03*
D22*
X004294Y020509D03*
X005294Y020509D03*
X006294Y020509D03*
D23*
X008987Y019726D03*
X009578Y019726D03*
X010168Y019726D03*
X010759Y019726D03*
D24*
X011526Y021044D03*
X008219Y021044D03*
M02*
